<svg xmlns="http://www.w3.org/2000/svg" xmlns:svg="http://www.w3.org/2000/svg" id="svg3016" width="32" height="32" version="1.1"><metadata id="metadata3021"/><g id="layer1" transform="translate(0,-1020.3622)"><rect id="rect3024" width="15" height="15" x="0" y="1020.362" fill="#1190e6" fill-opacity="1" stroke="none"/><rect id="rect3024-2" width="15" height="15" x="0" y="1037.362" fill="#ffd748" fill-opacity="1" stroke="none"/><rect id="rect3024-0" width="15" height="15" x="17" y="1037.362" fill="#6eca60" fill-opacity="1" stroke="none"/><g id="g4" transform="matrix(1.2888888,0,0,1.2285714,0.32093437,-241.66693)"><path id="path6" fill="#95a5a6" d="m 3,1031.4 v 10 c 0,4.2 3.6322,8 9,10 5.368,-2 9,-5.8 9,-10 v -10 H 3 z"/><path id="path8" fill="#ecf0f1" d="m 3,1030.4 v 10 c 0,4.2 3.6322,8 9,10 5.368,-2 9,-5.8 9,-10 v -10 H 3 z"/><path id="path10" fill="#bdc3c7" d="m 3,1030.4 v 10 c 0,4.2 3.6322,8 9,10 v -20 H 3 z"/><path id="path12" fill="#c0392b" d="m 5,1032.4 v 8 c 0,3.4 2.8251,6.4 7,8 4.175,-1.6 7,-4.6 7,-8 v -8 H 5 z"/><path id="path14" fill="#e74c3c" d="m 12,1032.4 v 16 c 4.175,-1.6 7,-4.6 7,-8 v -8 h -7 z"/><path id="path16" fill="#c0392b" d="m 9.1562,1036.5 -1.4062,1.4 2.844,2.9 -2.844,2.8 1.4062,1.4 2.8438,-2.8 2.844,2.8 1.406,-1.4 -2.844,-2.8 2.844,-2.8 -1.438,-1.5 -2.812,2.9 -2.8438,-2.9 z"/><path id="path18" fill="#ecf0f1" d="m 9.1562,1035.5 -1.4062,1.4 2.844,2.9 -2.844,2.8 1.4062,1.4 2.8438,-2.8 2.844,2.8 1.406,-1.4 -2.844,-2.8 2.844,-2.8 -1.438,-1.5 -2.812,2.9 -2.8438,-2.9 z"/></g></g></svg>