<svg xmlns="http://www.w3.org/2000/svg" xmlns:svg="http://www.w3.org/2000/svg" id="svg2" width="512" height="512" version="1.1" viewBox="0 0 512 512"><title id="title6123">CodeLite IDE Logo</title><defs id="defs4"><filter id="filter4154" color-interpolation-filters="sRGB"><feFlood id="feFlood4156" flood-color="#000" flood-opacity=".498" result="flood"/><feComposite id="feComposite4158" in="flood" in2="SourceGraphic" operator="in" result="composite1"/><feGaussianBlur id="feGaussianBlur4160" in="composite1" result="blur" stdDeviation="1.5"/><feOffset id="feOffset4162" dx="0" dy="0" result="offset"/><feComposite id="feComposite4164" in="SourceGraphic" in2="offset" operator="over" result="composite2"/></filter><filter id="filter4166" color-interpolation-filters="sRGB"><feFlood id="feFlood4168" flood-color="#000" flood-opacity=".498" result="flood"/><feComposite id="feComposite4170" in="flood" in2="SourceGraphic" operator="in" result="composite1"/><feGaussianBlur id="feGaussianBlur4172" in="composite1" result="blur" stdDeviation="1.5"/><feOffset id="feOffset4174" dx="0" dy="0" result="offset"/><feComposite id="feComposite4176" in="SourceGraphic" in2="offset" operator="over" result="composite2"/></filter><filter id="filter4178" color-interpolation-filters="sRGB"><feFlood id="feFlood4180" flood-color="#000" flood-opacity=".498" result="flood"/><feComposite id="feComposite4182" in="flood" in2="SourceGraphic" operator="in" result="composite1"/><feGaussianBlur id="feGaussianBlur4184" in="composite1" result="blur" stdDeviation="1.5"/><feOffset id="feOffset4186" dx="0" dy="0" result="offset"/><feComposite id="feComposite4188" in="SourceGraphic" in2="offset" operator="over" result="composite2"/></filter><filter id="filter5006" color-interpolation-filters="sRGB"><feFlood id="feFlood5008" flood-color="#000" flood-opacity=".498" result="flood"/><feComposite id="feComposite5010" in="flood" in2="SourceGraphic" operator="in" result="composite1"/><feGaussianBlur id="feGaussianBlur5012" in="composite1" result="blur" stdDeviation="2"/><feOffset id="feOffset5014" dx="0" dy="0" result="offset"/><feComposite id="feComposite5016" in="SourceGraphic" in2="offset" operator="over" result="composite2"/></filter><filter id="filter4459" color-interpolation-filters="sRGB"><feFlood id="feFlood4461" flood-color="#000" flood-opacity="1" result="flood"/><feComposite id="feComposite4463" in="flood" in2="SourceGraphic" operator="in" result="composite1"/><feGaussianBlur id="feGaussianBlur4465" in="composite1" result="blur" stdDeviation="5"/><feOffset id="feOffset4467" dx="0" dy="0" result="offset"/><feComposite id="feComposite4469" in="SourceGraphic" in2="offset" operator="over" result="composite2"/></filter></defs><metadata id="metadata7"/><g id="layer1" transform="translate(0,-540.36219)"><rect id="rect5967-9" width="244.978" height="244.978" x="-250.531" y="547.873" fill="#1190e6" fill-opacity="1" fill-rule="evenodd" stroke="#c2e7ff" stroke-dasharray="none" stroke-miterlimit="4" stroke-opacity="1" stroke-width="5.022" filter="url(#filter5006)" rx="10.044" ry="10.044" transform="matrix(-1,0,0,1,0,-2)"/><rect id="rect5967-9-7-5" width="244.978" height="244.978" x="-250.531" y="801.873" fill="#ffd748" fill-opacity="1" fill-rule="evenodd" stroke="#fdfdf1" stroke-dasharray="none" stroke-miterlimit="4" stroke-opacity="1" stroke-width="5.022" filter="url(#filter5006)" rx="10.044" ry="10.044" transform="scale(-1,1)"/><rect id="rect5967-9-9" width="244.978" height="244.978" x="261.511" y="801.873" fill="#6eca60" fill-opacity="1" fill-rule="evenodd" stroke="#d0ffb9" stroke-dasharray="none" stroke-miterlimit="4" stroke-opacity="1" stroke-width="5.022" filter="url(#filter5006)" rx="10.044" ry="10.044"/><g id="g4" transform="matrix(15.058522,0,0,14.032793,83.754824,-13819.372)"><path id="path6" fill="#95a5a6" d="m 3,1031.4 v 10 c 0,4.2 3.6322,8 9,10 5.368,-2 9,-5.8 9,-10 v -10 H 3 z"/><path id="path8" fill="#ecf0f1" d="m 3,1030.4 v 10 c 0,4.2 3.6322,8 9,10 5.368,-2 9,-5.8 9,-10 v -10 H 3 z"/><path id="path10" fill="#bdc3c7" d="m 3,1030.4 v 10 c 0,4.2 3.6322,8 9,10 v -20 H 3 z"/><path id="path12" fill="#c0392b" d="m 5,1032.4 v 8 c 0,3.4 2.8251,6.4 7,8 4.175,-1.6 7,-4.6 7,-8 v -8 H 5 z"/><path id="path14" fill="#e74c3c" d="m 12,1032.4 v 16 c 4.175,-1.6 7,-4.6 7,-8 v -8 h -7 z"/><path id="path16" fill="#c0392b" d="m 9.1562,1036.5 -1.4062,1.4 2.844,2.9 -2.844,2.8 1.4062,1.4 2.8438,-2.8 2.844,2.8 1.406,-1.4 -2.844,-2.8 2.844,-2.8 -1.438,-1.5 -2.812,2.9 -2.8438,-2.9 z"/><path id="path18" fill="#ecf0f1" d="m 9.1562,1035.5 -1.4062,1.4 2.844,2.9 -2.844,2.8 1.4062,1.4 2.8438,-2.8 2.844,2.8 1.406,-1.4 -2.844,-2.8 2.844,-2.8 -1.438,-1.5 -2.812,2.9 -2.8438,-2.9 z"/></g></g></svg>