<svg xmlns="http://www.w3.org/2000/svg" xmlns:svg="http://www.w3.org/2000/svg" id="svg3745" width="24" height="24" version="1.1"><metadata id="metadata9"/><path id="path3765" fill="#000" fill-opacity="1" stroke="#000" stroke-opacity="1" d="M 13.81691,15.839897 C 12.248478,17.395634 9.7158392,17.385342 8.1601026,15.81691 6.6043661,14.248478 6.6146578,11.715839 8.1830898,10.160103 8.2425382,10.101135 8.3038234,10.04405 8.366855,9.9889292 L 11,13 13.81691,15.839897 Z M 9,16 8,15 3,20 4,21 9,16 Z" opacity=".9"/><path id="path3767" fill="#000" fill-opacity="1" stroke="#000" stroke-opacity="1" d="m 9.18309,9.160103 c 1.568432,-1.555737 4.101071,-1.545445 5.656807,0.022987 1.555737,1.568432 1.545445,4.101071 -0.02299,5.656807 -0.05945,0.05897 -0.120733,0.116053 -0.183765,0.171174 L 12,12 9.18309,9.160103 Z M 20,5 19,4 l -5,5 1,1 5,-5 z" opacity=".9"/></svg>