<svg xmlns="http://www.w3.org/2000/svg" xmlns:svg="http://www.w3.org/2000/svg" id="svg2" width="48" height="48" version="1.1" viewBox="0 0 48 48"><metadata id="metadata41"/><defs id="defs4"><linearGradient id="def0" x1="55.228" x2="55.228" y1="1.545" y2="109.703" gradientTransform="matrix(3.3711083,0,0,1.8827954,-5.8181818,-4.363637)" gradientUnits="userSpaceOnUse"><stop id="stop7" offset="0" stop-color="#B3E2FF"/><stop id="stop9" offset="1" stop-color="#9CF"/></linearGradient></defs><g id="g11" transform="matrix(0.34375,0,0,0.45833333,2,2.0000003)"><path id="path13" fill="#09f" d="M 128,96 0,96 0,0 l 128,0 0,96 z"/><path id="path15" fill="url(#def0)" d="m 1.33333,1.33334 125.33367,0 0,93.33336 -125.33367,0 0,-93.33336 z"/><path id="path17" fill="#fff" d="m 2.66667,2.66666 122.66633,0 0,90.66664 -122.66633,0 0,-90.66664 z"/><path id="path19" fill="#deffff" d="m 125.333,14.6667 -122.66633,0 0,-12.00004 122.66633,0 0,12.00004 z"/><path id="path21" fill="#b4e2ff" d="m 2.66667,14.6667 122.66633,0 0,-1.3334 -122.66633,0 0,1.3334 z"/><path id="path23" fill="#b4e2ff" d="m 40,93.3333 1.3333,0 0,-90.66664 -1.3333,0 0,90.66664 z"/><path id="path25" fill="#b4e2ff" d="m 86.6667,93.3333 1.3333,0 0,-90.66664 -1.3333,0 0,90.66664 z"/><path id="path27" fill="#b4e2ff" d="m 2.66667,28 122.66633,0 0,-1.3333 -122.66633,0 0,1.3333 z"/><path id="path29" fill="#b4e2ff" d="m 2.66667,41.3333 122.66633,0 0,-1.3333 -122.66633,0 0,1.3333 z"/><path id="path31" fill="#b4e2ff" d="m 2.66667,54.6667 122.66633,0 0,-1.3334 -122.66633,0 0,1.3334 z"/><path id="path33" fill="#b4e2ff" d="m 2.66667,68 122.66633,0 0,-1.3347 -122.66633,0 0,1.3347 z"/><path id="path35" fill="#b4e2ff" d="m 2.66667,81.3333 122.66633,0 0,-1.3333 -122.66633,0 0,1.3333 z"/><path id="path37" fill="#fc0" d="m 88,0 -48,0 0,96 48,0 m -4,-4 -40,0 0,-88 40,0 0,88 z"/></g></svg>