<svg xmlns="http://www.w3.org/2000/svg" xmlns:svg="http://www.w3.org/2000/svg" id="svg2" width="48" height="48" version="1.1" viewBox="0 0 48 48"><metadata id="metadata41"/><defs id="defs4"><linearGradient id="def0" x1="55.228" x2="55.228" y1="1.545" y2="109.703" gradientTransform="matrix(1.2114921,0,0,0.90217279,-1.0909091,-1.0909093)" gradientUnits="userSpaceOnUse"><stop id="stop7" offset="0" stop-color="#B3E2FF"/><stop id="stop9" offset="1" stop-color="#9CF"/></linearGradient></defs><g id="g4173" transform="matrix(0.95652174,0,0,0.95652174,1.0434783,1.0434784)"><path id="path13" fill="#09f" d="M 47,47 1,47 1,0.99999984 l 46,0 L 47,47 Z"/><path id="path15" fill="url(#def0)" d="m 1.4791655,1.6388919 45.0417875,0 0,44.7222351 -45.0417875,0 0,-44.7222351 z"/><path id="path17" fill="#fff" d="m 1.9583345,2.2777744 44.0832125,0 0,43.4444316 -44.0832125,0 0,-43.4444316 z"/><path id="path19" fill="#deffff" d="m 46.041547,8.0277936 -44.0832125,0 0,-5.7500192 44.0832125,0 0,5.7500192 z"/><path id="path21" fill="#b4e2ff" d="m 1.9583345,8.0277936 44.0832125,0 0,-0.6389208 -44.0832125,0 0,0.6389208 z"/><path id="path23" fill="#b4e2ff" d="m 15.375,45.722206 0.479155,0 0,-43.4444316 -0.479155,0 0,43.4444316 z"/><path id="path25" fill="#b4e2ff" d="m 32.145845,45.722206 0.479155,0 0,-43.4444316 -0.479155,0 0,43.4444316 z"/><path id="path27" fill="#b4e2ff" d="m 1.9583345,14.416667 44.0832125,0 0,-0.638873 -44.0832125,0 0,0.638873 z"/><path id="path29" fill="#b4e2ff" d="m 1.9583345,20.80554 44.0832125,0 0,-0.638873 -44.0832125,0 0,0.638873 z"/><path id="path31" fill="#b4e2ff" d="m 1.9583345,27.19446 44.0832125,0 0,-0.63892 -44.0832125,0 0,0.63892 z"/><path id="path33" fill="#b4e2ff" d="m 1.9583345,33.583333 44.0832125,0 0,-0.639543 -44.0832125,0 0,0.639543 z"/><path id="path35" fill="#b4e2ff" d="m 1.9583345,39.972206 44.0832125,0 0,-0.638873 -44.0832125,0 0,0.638873 z"/></g></svg>