<svg xmlns="http://www.w3.org/2000/svg" xmlns:svg="http://www.w3.org/2000/svg" id="Layer_1" width="16" height="16" enable-background="new 0 0 99.176 99.176" version="1.1" viewBox="0 0 16 16" xml:space="preserve"><metadata id="metadata15"/><path id="path7" fill="#ff7d34" fill-opacity="1" stroke="#9c5329" stroke-dasharray="none" stroke-miterlimit="10" stroke-opacity="1" stroke-width="1" d="M 9.6029162,13.622531 C 9.6037514,13.140219 9.290552,12.745943 8.9063607,12.745104 l -1.2066947,-0.0025 c -0.126115,-4.6e-4 -0.2308489,-0.131466 -0.2308489,-0.29077 3.341e-4,-0.163286 0.105402,-0.293873 0.2318511,-0.293873 l 2.2670627,0.0048 c 0.3863621,8.37e-4 0.6983921,-0.389665 0.6992271,-0.874493 5.02e-4,-0.482312 -0.310192,-0.87533 -0.6970556,-0.876168 L 8.1697156,10.4079 c -0.1282864,0 -0.231517,-0.132264 -0.2310158,-0.291568 0,-0.162447 0.1037316,-0.294292 0.231684,-0.293873 l 2.5805952,0.0056 c 0.384192,4.19e-4 0.697892,-0.389665 0.69856,-0.8749112 C 11.45004,8.4688026 11.137676,8.0770419 10.753318,8.0766227 L 8.1727224,8.0710159 C 8.04477,8.0705967 7.9417065,7.9395906 7.9417065,7.7767238 7.9420405,7.6178395 8.0454381,7.4864142 8.1735576,7.4864142 l 5.9402644,0.012786 c 0.386196,8.385e-4 0.698226,-0.3921799 0.699062,-0.8742825 8.35e-4,-0.4844081 -0.310026,-0.8757496 -0.696556,-0.8763784 L 5.848198,5.7307226 6.5198646,3.75536 C 6.7251564,3.1613259 6.891862,2.4750634 6.6441422,1.9730481 6.3935826,1.4731287 5.8431868,1.3488301 5.4132267,1.6936382 c 0,0 -1.477299,2.9427117 -2.4624991,3.7541112 -0.9880398,0.8111899 -1.7602643,2.1273297 -1.7636051,4.5917116 -0.00535,4.079217 2.5034239,4.449387 3.2534321,4.451064 l 4.4633005,0.0098 c 0.3841913,4.19e-4 0.6983929,-0.393438 0.6990611,-0.877846 z"/></svg>