<svg xmlns="http://www.w3.org/2000/svg" xmlns:svg="http://www.w3.org/2000/svg" xmlns:xlink="http://www.w3.org/1999/xlink" id="svg3385" width="24" height="24" version="1.0"><defs id="defs3387"><radialGradient id="radialGradient3976" cx="605.714" cy="486.648" r="117.143" fx="605.714" fy="486.648" gradientTransform="matrix(-2.774389,0,0,1.969706,112.7623,-872.8854)" gradientUnits="userSpaceOnUse" xlink:href="#linearGradient5060"/><linearGradient id="linearGradient5060"><stop id="stop5062" offset="0" stop-color="#000" stop-opacity="1"/><stop id="stop5064" offset="1" stop-color="#000" stop-opacity="0"/></linearGradient><radialGradient id="radialGradient2662" cx="605.714" cy="486.648" r="117.143" fx="605.714" fy="486.648" gradientTransform="matrix(2.774389,0,0,1.969706,-1891.633,-872.8854)" gradientUnits="userSpaceOnUse" xlink:href="#linearGradient5060"/><linearGradient id="linearGradient5048"><stop id="stop5050" offset="0" stop-color="#000" stop-opacity="0"/><stop id="stop5056" offset=".5" stop-color="#000" stop-opacity="1"/><stop id="stop5052" offset="1" stop-color="#000" stop-opacity="0"/></linearGradient><linearGradient id="linearGradient2660" x1="302.857" x2="302.857" y1="366.648" y2="609.505" gradientTransform="matrix(2.774389,0,0,1.969706,-1892.179,-872.8854)" gradientUnits="userSpaceOnUse" xlink:href="#linearGradient5048"/><linearGradient id="linearGradient4008-764"><stop id="stop4334" offset="0" stop-color="#595959" stop-opacity="1"/><stop id="stop4336" offset="1" stop-color="#b3b3b3" stop-opacity="1"/></linearGradient><linearGradient id="linearGradient2603" x1="10.592" x2="10.592" y1="44.78" y2="2.426" gradientTransform="matrix(0.4893421,0,0,0.4639192,0.2558016,0.8602544)" gradientUnits="userSpaceOnUse" xlink:href="#linearGradient4008-764"/><linearGradient id="linearGradient3023"><stop id="stop3029" offset="0" stop-color="#d8d8d8" stop-opacity="1"/><stop id="stop3031" offset="1" stop-color="#8f8f8f" stop-opacity="1"/></linearGradient><linearGradient id="linearGradient2601" x1="13.424" x2="13.424" y1="2" y2="22.051" gradientUnits="userSpaceOnUse" xlink:href="#linearGradient3023"/><linearGradient id="linearGradient2238"><stop id="stop2240" offset="0" stop-color="#fff" stop-opacity="1"/><stop id="stop2242" offset="1" stop-color="#fff" stop-opacity="0"/></linearGradient><linearGradient id="linearGradient2598" x1="22.763" x2="22.763" y1="-4.877" y2="43.844" gradientTransform="matrix(0.4662133,0,0,0.4354479,0.8103191,1.987307)" gradientUnits="userSpaceOnUse" xlink:href="#linearGradient2238"/><linearGradient id="linearGradient4128"><stop id="stop4130" offset="0" stop-color="#3d434a" stop-opacity="1"/><stop id="stop4132" offset="1" stop-color="#000" stop-opacity="1"/></linearGradient><radialGradient id="radialGradient2595" cx="16.352" cy="12.225" r="19.17" fx="16.352" fy="12.225" gradientTransform="matrix(0,0.4984012,-1.1479657,0,24.468551,1.8233917)" gradientUnits="userSpaceOnUse" xlink:href="#linearGradient4128"/><linearGradient id="linearGradient8265-821-176-38-919-66-249-2"><stop id="stop2687-1" offset="0" stop-color="#fff" stop-opacity="1"/><stop id="stop2689-3" offset="1" stop-color="#fff" stop-opacity="0"/></linearGradient><linearGradient id="linearGradient2589" x1="16.626" x2="20.055" y1="15.298" y2="24.628" gradientTransform="matrix(0.4789116,0,0,0.5359383,0.5061227,-0.1988816)" gradientUnits="userSpaceOnUse" xlink:href="#linearGradient8265-821-176-38-919-66-249-2"/><filter id="filter3499" width="1.14" height="1.307" x="-.07" y="-.153" color-interpolation-filters="sRGB"><feGaussianBlur id="feGaussianBlur3501" stdDeviation="1.023"/></filter></defs><g id="layer1"><g id="g5022" transform="matrix(0.01182016,0,0,0.00990682,22.513267,19.753927)"><rect id="rect2969" width="1339.633" height="478.357" x="-1559.252" y="-150.697" fill="url(#linearGradient2660)" fill-opacity="1" fill-rule="nonzero" stroke="none" stroke-width="1" display="inline" opacity=".402" overflow="visible" visibility="visible" style="marker:none"/><path id="path2971" fill="url(#radialGradient2662)" fill-opacity="1" fill-rule="nonzero" stroke="none" stroke-width="1" d="m -219.61876,-150.68038 c 0,0 0,478.33079 0,478.33079 142.874166,0.90045 345.40022,-107.16966 345.40014,-239.196175 0,-132.026537 -159.436816,-239.134595 -345.40014,-239.134615 l 0,0 z" display="inline" opacity=".402" overflow="visible" visibility="visible" style="marker:none"/><path id="path2973" fill="url(#radialGradient3976)" fill-opacity="1" fill-rule="nonzero" stroke="none" stroke-width="1" d="m -1559.2523,-150.68038 c 0,0 0,478.33079 0,478.33079 -142.8742,0.90045 -345.4002,-107.16966 -345.4002,-239.196175 0,-132.026537 159.4368,-239.134595 345.4002,-239.134615 l 0,0 z" display="inline" opacity=".402" overflow="visible" visibility="visible" style="marker:none"/></g><rect id="rect1316" width="22.998" height="18.998" x=".501" y="2.501" fill="url(#linearGradient2601)" fill-opacity="1" fill-rule="evenodd" stroke="url(#linearGradient2603)" stroke-dasharray="none" stroke-dashoffset="0" stroke-linecap="round" stroke-linejoin="round" stroke-miterlimit="4" stroke-opacity="1" stroke-width="1.002" rx="1.592" ry="1.592"/><rect id="rect2232" width="20.998" height="16.998" x="1.501" y="3.501" fill="none" stroke="url(#linearGradient2598)" stroke-dasharray="none" stroke-dashoffset="0" stroke-linecap="round" stroke-linejoin="round" stroke-miterlimit="4" stroke-opacity="1" stroke-width="1.002" opacity=".4" rx=".618" ry=".618"/><rect id="rect1314" width="18.998" height="14.998" x="2.501" y="4.501" fill="url(#radialGradient2595)" fill-opacity="1" fill-rule="evenodd" stroke="#1e1f1f" stroke-dasharray="none" stroke-dashoffset="0" stroke-linecap="round" stroke-linejoin="round" stroke-miterlimit="4" stroke-opacity="1" stroke-width="1.002" rx="0" ry="0"/><path id="path2976" fill="url(#linearGradient2589)" fill-opacity="1" fill-rule="evenodd" stroke="none" d="m 2.0476194,3.0000001 c -0.5786579,0 -1.0476191,0.5248032 -1.0476191,1.1723651 l 0,8.5750128 c 0.00133,0.07214 0.029596,0.140358 0.077943,0.188097 0.048347,0.04774 0.1123523,0.07063 0.176479,0.06312 L 22.805444,9.1800387 c 0.110858,-0.019566 0.193008,-0.1256417 0.194558,-0.2512211 l 0,-4.7564524 c 0,-0.6475619 -0.468962,-1.1723651 -1.04762,-1.1723651 l -19.9047626,0 0,0 z" opacity=".2"/><path id="path3497" fill="none" stroke="#3a7d6b" stroke-dasharray="none" stroke-linecap="round" stroke-linejoin="round" stroke-miterlimit="4" stroke-opacity="1" stroke-width="3.773" d="m -51.076451,15.112784 5.623521,0 2,-10 4,15 3,-9 3,6 3,-2 11.635138,0" filter="url(#filter3499)" transform="matrix(0.5269903,0,0,0.5333113,30.416794,5.2734598)"/><path id="path3477" fill="none" stroke="#b9ffeb" stroke-dasharray="none" stroke-linecap="square" stroke-linejoin="round" stroke-miterlimit="4" stroke-opacity="1" stroke-width="1" d="m 3.5,13.333277 2.9635414,0 1.0539805,-5.3331114 2.1079611,7.9996684 1.58097,-4.7998 1.580971,3.199866 1.580971,-1.066623 6.131605,0"/></g></svg>