<svg xmlns="http://www.w3.org/2000/svg" xmlns:svg="http://www.w3.org/2000/svg" xmlns:xlink="http://www.w3.org/1999/xlink" id="svg2" width="128" height="128" version="1.0"><metadata id="metadata7"/><defs id="defs5"><pattern id="pattern3224" patternTransform="translate(3.9056706,84.358377)" xlink:href="#pattern3217"/><pattern id="pattern3185" width="11.504" height="11.844" patternTransform="translate(15.738646,78.530933)" patternUnits="userSpaceOnUse"><g id="g3181" transform="translate(-15.738646,-78.530933)"><rect id="rect3047" width="5.434" height="5.434" x="-47.118" y="68.1" fill="gray" fill-opacity="1" fill-rule="evenodd" stroke="#000" stroke-dasharray="none" stroke-dashoffset="0" stroke-linecap="round" stroke-linejoin="round" stroke-miterlimit="4" stroke-opacity="1" stroke-width="0" marker-end="none" marker-mid="none" marker-start="none" display="inline" enable-background="accumulate" overflow="visible" ry="2.182" transform="matrix(0.7071068,-0.7071068,0.7071068,0.7071068,0,0)" visibility="visible" style="marker:none"/><rect id="rect3087" width="5.434" height="5.434" x="-47.358" y="76.292" fill="gray" fill-opacity="1" fill-rule="evenodd" stroke="#000" stroke-dasharray="none" stroke-dashoffset="0" stroke-linecap="round" stroke-linejoin="round" stroke-miterlimit="4" stroke-opacity="1" stroke-width="0" marker-end="none" marker-mid="none" marker-start="none" display="inline" enable-background="accumulate" overflow="visible" ry="2.182" transform="matrix(0.7071068,-0.7071068,0.7071068,0.7071068,0,0)" visibility="visible" style="marker:none"/></g></pattern><pattern id="pattern3217" width="7.321" height="7.321" patternTransform="translate(2.8868,82.830071)" patternUnits="userSpaceOnUse"><g id="g3213" transform="matrix(0.5590771,0,0,0.5590771,-1.6139438,-46.308397)"><path id="path3209" fill="#b3b3b3" fill-opacity="1" fill-rule="evenodd" stroke="#000" stroke-dasharray="none" stroke-dashoffset="0" stroke-linecap="round" stroke-linejoin="round" stroke-miterlimit="4" stroke-opacity="1" stroke-width="0" marker-end="none" marker-mid="none" marker-start="none" d="M 9.3396471,86.056496 A 3.2264235,3.2264235 0 1 1 2.8868001,86.056496 A 3.2264235,3.2264235 0 1 1 9.3396471,86.056496 z" display="inline" enable-background="accumulate" opacity="1" overflow="visible" visibility="visible" style="marker:none"/><path stroke-width="0" style="marker:none" id="path3211" fill="#b3b3b3" fill-opacity="1" fill-rule="evenodd" stroke="#000" stroke-dasharray="none" stroke-dashoffset="0" stroke-linecap="round" stroke-linejoin="round" stroke-miterlimit="4" stroke-opacity="1" marker-end="none" marker-mid="none" marker-start="none" d="M 9.3396471,86.056496 A 3.2264235,3.2264235 0 1 1 2.8868001,86.056496 A 3.2264235,3.2264235 0 1 1 9.3396471,86.056496 z" display="inline" enable-background="accumulate" opacity="1" overflow="visible" transform="translate(6.6415059,6.6415059)" visibility="visible"/></g></pattern></defs><g id="layer1"><g id="g3250" transform="matrix(0,-1,1,0,1.6691291,131.73155)"><rect stroke-miterlimit="4" style="marker:none" id="rect3252" width="40.833" height="62.72" x="-17.868" y="62.151" fill="#f95" fill-opacity="1" fill-rule="evenodd" stroke="#000" stroke-dasharray="none" stroke-dashoffset="0" stroke-linecap="round" stroke-linejoin="round" stroke-opacity="1" stroke-width="8" marker-end="none" marker-mid="none" marker-start="none" display="inline" enable-background="accumulate" opacity="1" overflow="visible" ry="5" transform="matrix(0.7071068,-0.7071068,0.7071068,0.7071068,0,0)" visibility="visible"/><path id="path3254" fill="#f60" fill-opacity="1" fill-rule="evenodd" stroke="#000" stroke-dashoffset="0" stroke-linecap="round" stroke-linejoin="round" stroke-miterlimit="4" stroke-opacity="1" stroke-width="4" marker-end="none" marker-mid="none" marker-start="none" d="M -22.471104,46.675209 C -22.621572,32.911414 -9.4968085,26.970563 -1.4203351,27.120412 C 6.9312579,27.275366 19.600058,35.12715 19.074863,46.675209 L 19.074863,142.49509 C 19.03694,156.01911 5.1654622,160.53766 -1.2299492,160.54892 C -9.5843595,160.56363 -21.760063,154.87663 -22.471104,142.49509 L -22.471104,46.675209 z" display="inline" enable-background="accumulate" overflow="visible" transform="matrix(0.7071068,-0.7071068,0.7071068,0.7071068,0,0)" visibility="visible" style="marker:none"/><rect stroke-miterlimit="4" style="marker:none" id="rect3256" width="40.833" height="62.72" x="-17.868" y="62.151" fill="#f95" fill-opacity="1" fill-rule="evenodd" stroke="none" stroke-dasharray="none" stroke-dashoffset="0" stroke-linecap="round" stroke-linejoin="round" stroke-opacity="1" stroke-width="3.847" marker-end="none" marker-mid="none" marker-start="none" display="inline" enable-background="accumulate" opacity="1" overflow="visible" ry="5" transform="matrix(0.7071068,-0.7071068,0.7071068,0.7071068,0,0)" visibility="visible"/><path id="path3258" fill="url(#pattern3224)" fill-opacity="1" fill-rule="evenodd" stroke="none" stroke-dasharray="none" stroke-dashoffset="0" stroke-linecap="round" stroke-linejoin="round" stroke-miterlimit="4" stroke-opacity="1" stroke-width="3.847" marker-end="none" marker-mid="none" marker-start="none" d="M 61.566596,31.069405 C 60.288501,31.069405 59.254839,31.198588 58.275496,32.17793 L 35.862621,53.149905 C 33.903935,55.108591 33.903934,58.253721 35.862621,60.212405 L 73.143871,97.493655 C 75.102557,99.452341 77.568436,98.942903 79.527124,96.98422 L 100.83019,75.681155 C 102.78888,73.722469 103.37717,71.057644 101.41849,69.098955 L 65.217921,33.018456 C 64.238578,32.039113 62.844691,31.069405 61.566596,31.069405 z" display="inline" enable-background="accumulate" opacity="1" overflow="visible" visibility="visible" style="marker:none"/></g><g id="g3244"><rect id="rect3031" width="40.833" height="62.72" x="-17.868" y="62.151" fill="#f95" fill-opacity="1" fill-rule="evenodd" stroke="#000" stroke-dasharray="none" stroke-dashoffset="0" stroke-linecap="round" stroke-linejoin="round" stroke-miterlimit="4" stroke-opacity="1" stroke-width="8" marker-end="none" marker-mid="none" marker-start="none" display="inline" enable-background="accumulate" opacity="1" overflow="visible" ry="5" transform="matrix(0.7071068,-0.7071068,0.7071068,0.7071068,0,0)" visibility="visible" style="marker:none"/><path id="rect3026" fill="#f60" fill-opacity="1" fill-rule="evenodd" stroke="#000" stroke-dashoffset="0" stroke-linecap="round" stroke-linejoin="round" stroke-miterlimit="4" stroke-opacity="1" stroke-width="4" marker-end="none" marker-mid="none" marker-start="none" d="M -22.471104,46.675209 C -22.621572,32.911414 -9.4968085,26.970563 -1.4203351,27.120412 C 6.9312579,27.275366 19.600058,35.12715 19.074863,46.675209 L 19.074863,142.49509 C 19.03694,156.01911 5.1654622,160.53766 -1.2299492,160.54892 C -9.5843595,160.56363 -21.760063,154.87663 -22.471104,142.49509 L -22.471104,46.675209 z" display="inline" enable-background="accumulate" overflow="visible" transform="matrix(0.7071068,-0.7071068,0.7071068,0.7071068,0,0)" visibility="visible" style="marker:none"/><rect stroke-miterlimit="4" style="marker:none" id="rect3029" width="40.833" height="62.72" x="-17.868" y="62.151" fill="#f95" fill-opacity="1" fill-rule="evenodd" stroke="none" stroke-dasharray="none" stroke-dashoffset="0" stroke-linecap="round" stroke-linejoin="round" stroke-opacity="1" stroke-width="3.847" marker-end="none" marker-mid="none" marker-start="none" display="inline" enable-background="accumulate" opacity="1" overflow="visible" ry="5" transform="matrix(0.7071068,-0.7071068,0.7071068,0.7071068,0,0)" visibility="visible"/><path id="rect3192" fill="url(#pattern3224)" fill-opacity="1" fill-rule="evenodd" stroke="none" stroke-dasharray="none" stroke-dashoffset="0" stroke-linecap="round" stroke-linejoin="round" stroke-miterlimit="4" stroke-opacity="1" stroke-width="3.847" marker-end="none" marker-mid="none" marker-start="none" d="M 61.566596,31.069405 C 60.288501,31.069405 59.254839,31.198588 58.275496,32.17793 L 35.862621,53.149905 C 33.903935,55.108591 33.903934,58.253721 35.862621,60.212405 L 73.143871,97.493655 C 75.102557,99.452341 77.568436,98.942903 79.527124,96.98422 L 100.83019,75.681155 C 102.78888,73.722469 103.37717,71.057644 101.41849,69.098955 L 65.217921,33.018456 C 64.238578,32.039113 62.844691,31.069405 61.566596,31.069405 z" display="inline" enable-background="accumulate" opacity="1" overflow="visible" visibility="visible" style="marker:none"/></g></g></svg>