<svg xmlns="http://www.w3.org/2000/svg" xmlns:svg="http://www.w3.org/2000/svg" xmlns:xlink="http://www.w3.org/1999/xlink" id="svg2413" width="16" height="16" version="1.0"><metadata id="metadata23"/><defs id="defs2415"><linearGradient id="linearGradient2490"><stop id="stop2492" offset="0" stop-color="#791235" stop-opacity="1"/><stop id="stop2494" offset="1" stop-color="#dd3b27" stop-opacity="1"/></linearGradient><linearGradient id="linearGradient2411" x1="18.379" x2="18.379" y1="44.98" y2="3.082" gradientTransform="matrix(0.32245612,0,0,0.32255352,0.26005402,0.2576006)" gradientUnits="userSpaceOnUse" xlink:href="#linearGradient2490"/><linearGradient id="linearGradient3242"><stop id="stop3244" offset="0" stop-color="#f8b17e" stop-opacity="1"/><stop id="stop3246" offset=".262" stop-color="#e35d4f" stop-opacity="1"/><stop id="stop3248" offset=".661" stop-color="#c6262e" stop-opacity="1"/><stop id="stop3250" offset="1" stop-color="#690b54" stop-opacity="1"/></linearGradient><radialGradient id="radialGradient2409" cx="23.896" cy="3.99" r="20.397" fx="23.896" fy="3.99" gradientTransform="matrix(0,0.76982467,-1.015848,0,12.052237,-17.453789)" gradientUnits="userSpaceOnUse" xlink:href="#linearGradient3242"/><linearGradient id="linearGradient4873"><stop id="stop4875" offset="0" stop-color="#fff" stop-opacity="1"/><stop id="stop4877" offset="1" stop-color="#fff" stop-opacity="0"/></linearGradient><linearGradient id="linearGradient2406" x1="63.397" x2="63.397" y1="-12.489" y2="5.468" gradientTransform="matrix(0.65024182,0,0,0.65042334,-32.446302,10.282415)" gradientUnits="userSpaceOnUse" xlink:href="#linearGradient4873"/></defs><path id="path2555" fill="url(#radialGradient2409)" fill-opacity="1" stroke="none" stroke-dasharray="none" stroke-dashoffset="0" stroke-linecap="round" stroke-linejoin="round" stroke-miterlimit="4" stroke-opacity="1" stroke-width=".878" d="m 7.9990009,1.4369369 c -3.6195623,0 -6.5599675,2.9412909 -6.5599675,6.5619469 0,3.6206562 2.9404052,6.5619502 6.5599675,6.5619472 3.6195611,0 6.5599691,-2.941291 6.5599661,-6.5619472 0,-3.620656 -2.940405,-6.5619469 -6.5599661,-6.5619469 z"/><path id="path2463" fill="none" fill-opacity="1" fill-rule="nonzero" stroke="url(#linearGradient2406)" stroke-dasharray="none" stroke-miterlimit="4" stroke-opacity="1" stroke-width=".875" d="m 13.68569,7.9986836 c 0,3.1417214 -2.546206,5.6886074 -5.6866185,5.6886074 -3.1407004,0 -5.6867611,-2.546914 -5.6867611,-5.6886074 0,-3.1415766 2.5460607,-5.6882055 5.6867611,-5.6882055 3.1404125,0 5.6866185,2.5466289 5.6866185,5.6882055 l 0,0 z" opacity=".4"/></svg>