<svg xmlns="http://www.w3.org/2000/svg" xmlns:svg="http://www.w3.org/2000/svg" xmlns:xlink="http://www.w3.org/1999/xlink" id="svg3734" width="24" height="24" version="1.1"><defs id="defs3736"><linearGradient id="linearGradient4456"><stop id="stop4458" offset="0" stop-color="#f6daae" stop-opacity="1"/><stop id="stop4460" offset="1" stop-color="#f0c178" stop-opacity="0"/></linearGradient><linearGradient id="linearGradient3390-178-986-453-4-5"><stop id="stop3624-8-6" offset="0" stop-color="#bb2b12" stop-opacity="1"/><stop id="stop3626-1-1" offset="1" stop-color="#cd7233" stop-opacity="1"/></linearGradient><linearGradient id="linearGradient3732" x1="-39.666" x2="-46.583" y1="198.908" y2="176.957" gradientTransform="matrix(0.92956783,0,0,0.99594396,51.30231,-181.73954)" gradientUnits="userSpaceOnUse" xlink:href="#linearGradient3390-178-986-453-4-5"/><linearGradient id="linearGradient7012-661-145-733-759-865-745-661-970-94-1-0"><stop id="stop3618-1-9" offset="0" stop-color="#f0c178" stop-opacity="1"/><stop id="stop3270-5-6" offset=".5" stop-color="#e18941" stop-opacity="1"/><stop id="stop3620-9-3" offset="1" stop-color="#ec4f18" stop-opacity="1"/></linearGradient><linearGradient id="linearGradient4322" x1="-47.659" x2="-42.818" y1="178.965" y2="197.039" gradientTransform="matrix(0.92956783,0,0,0.99594396,51.30231,-181.73954)" gradientUnits="userSpaceOnUse" xlink:href="#linearGradient7012-661-145-733-759-865-745-661-970-94-1-0"/><linearGradient id="linearGradient4324" x1="-47.659" x2="-42.818" y1="178.965" y2="197.039" gradientTransform="matrix(0.92956783,0,0,0.99594396,51.30231,-181.73954)" gradientUnits="userSpaceOnUse" xlink:href="#linearGradient7012-661-145-733-759-865-745-661-970-94-1-0"/><linearGradient id="linearGradient4452" x1="-39.666" x2="-46.583" y1="198.908" y2="176.957" gradientTransform="matrix(0.92956783,0,0,0.99594396,51.30231,-181.73954)" gradientUnits="userSpaceOnUse" xlink:href="#linearGradient3390-178-986-453-4-5"/><linearGradient id="linearGradient4462" x1="5.5" x2="13" y1="-3" y2="16" gradientUnits="userSpaceOnUse" xlink:href="#linearGradient4456"/><linearGradient id="linearGradient2839" x1="5.5" x2="14.154" y1="-3" y2="18.844" gradientUnits="userSpaceOnUse" xlink:href="#linearGradient4456"/></defs><g id="layer1" transform="translate(1,7)"><path id="path3169-2-3" fill="none" stroke="url(#linearGradient3732)" stroke-dasharray="none" stroke-linecap="round" stroke-linejoin="round" stroke-miterlimit="4" stroke-opacity="1" stroke-width="5" d="M 7.75009,-0.6251675 2.5,4.99993 7.750153,10.624983" display="inline" enable-background="new"/><path id="path3765" fill="none" stroke="url(#linearGradient4452)" stroke-dasharray="none" stroke-linecap="round" stroke-linejoin="round" stroke-miterlimit="4" stroke-opacity="1" stroke-width="6" d="M 19.025,10.281 16.5,6.625 C 15.913987,5.5474719 14.286755,5.0058052 13,5 l -6.5,-7e-5" display="inline" enable-background="new"/><path id="path4277" fill="none" stroke="url(#linearGradient4322)" stroke-dasharray="none" stroke-linecap="round" stroke-linejoin="round" stroke-miterlimit="4" stroke-opacity="1" stroke-width="3" d="M 7.75009,-0.6251675 2.5,4.99993 7.750153,10.624983" display="inline" enable-background="new"/><path id="path4279" fill="none" stroke="url(#linearGradient4324)" stroke-dasharray="none" stroke-linecap="round" stroke-linejoin="round" stroke-miterlimit="4" stroke-opacity="1" stroke-width="4" d="M 19.025,10.281 16.5,6.625 C 15.872767,5.7123523 14.410415,5.0058052 13,5 l -6.5,-7e-5" display="inline" enable-background="new"/><path id="path4454" fill="none" stroke="url(#linearGradient2839)" stroke-dasharray="none" stroke-linecap="round" stroke-linejoin="round" stroke-miterlimit="4" stroke-opacity="1" stroke-width="1" d="M 8.227535,9.6038747 6.5,8 C 5.5,7 6.5,6.5 8,6.5 l 3.832441,-0.04122 c 1.245403,0.017784 3.161228,0.051221 3.696723,1.6075845 l 1.981554,2.5556465 c 0.650453,2.061006 3.819044,1.245673 2.885409,-1.3099737 L 18.168591,6.574063 C 17.324057,5.2314554 16.27468,3.9452074 14,3.5 l -5.5,0 C 7,3.5 5.5,3.5 6.5,2 L 8.1450948,0.43734542 c 1.5,-2.00000002 -0.5,-2.50000002 -1.5,-1.50000002 L 2,4 C 1.5,4.5 1.4724356,5.3333333 2,6 l 4.727535,5.103875 c 1,1 3,0 1.5,-1.5000003 z" display="inline" enable-background="new" opacity=".4"/><path id="path4464" fill="none" stroke="url(#linearGradient4462)" stroke-dasharray="none" stroke-linecap="round" stroke-linejoin="round" stroke-miterlimit="4" stroke-opacity="1" stroke-width="1" d="M 6.5,2 8.1450948,0.47856554 c 1.5,-2.00000004 -0.5,-2.50000004 -1.5,-1.50000004 L 2,4 C 1.5,4.5 1.4724356,5.3333333 2,6 l 4.7687552,5.227535 c 1,1 3,0 1.5,-1.5 L 6.5,8" display="inline" enable-background="new" opacity=".4"/><path id="path4466" fill="none" stroke="#f6daae" stroke-dasharray="none" stroke-linecap="round" stroke-linejoin="round" stroke-miterlimit="4" stroke-opacity="1" stroke-width="1" d="M 7.1397362,-1.5160758 2,4" display="inline" enable-background="new" opacity=".6"/></g></svg>