<svg xmlns="http://www.w3.org/2000/svg" xmlns:svg="http://www.w3.org/2000/svg" xmlns:xlink="http://www.w3.org/1999/xlink" id="svg3150" width="16" height="16" version="1.1"><defs id="defs3152"><linearGradient id="linearGradient3931"><stop id="stop3933" offset="0" stop-color="#8d8f8a" stop-opacity="1"/><stop id="stop3935" offset="1" stop-color="#c1c1c1" stop-opacity="1"/></linearGradient><linearGradient id="linearGradient4547" x1="-53.179" x2="-52.184" y1="16.54" y2="5.393" gradientTransform="matrix(0.3000362,0,0,0.3120485,22.157115,-0.3741276)" gradientUnits="userSpaceOnUse" xlink:href="#linearGradient3931"/><linearGradient id="linearGradient3600"><stop id="stop3602" offset="0" stop-color="#f4f4f4" stop-opacity="1"/><stop id="stop3604" offset="1" stop-color="#dbdbdb" stop-opacity="1"/></linearGradient><linearGradient id="linearGradient4545" x1="25.132" x2="25.132" y1="6.729" y2="47.013" gradientTransform="matrix(0.3715633,0,0,0.3334383,0.08245345,-0.0025171)" gradientUnits="userSpaceOnUse" xlink:href="#linearGradient3600"/><linearGradient id="linearGradient2837" x1="25.132" x2="25.132" y1="6.729" y2="47.013" gradientTransform="matrix(0.3715633,0,0,0.3334383,-5.917546,-4.0025171)" gradientUnits="userSpaceOnUse" xlink:href="#linearGradient3600"/><linearGradient id="linearGradient2839" x1="-51.786" x2="-51.786" y1="50.786" y2="2.906" gradientTransform="matrix(0.3000362,0,0,0.3120485,16.157115,-4.3741276)" gradientUnits="userSpaceOnUse" xlink:href="#linearGradient3931"/></defs><g id="layer1"><path id="path2835" fill="url(#linearGradient2837)" fill-opacity="1" stroke="url(#linearGradient2839)" stroke-dasharray="none" stroke-dashoffset="0" stroke-linecap="butt" stroke-linejoin="round" stroke-miterlimit="4" stroke-opacity="1" stroke-width=".995" d="m 0.499974,0.5 9.0000002,0 0.0024,11.002374 -9.0047472,0.0597 L 0.499974,0.5 z" display="inline"/><path id="rect2594" fill="url(#linearGradient4545)" fill-opacity="1" stroke="url(#linearGradient4547)" stroke-dasharray="none" stroke-dashoffset="0" stroke-linecap="butt" stroke-linejoin="round" stroke-miterlimit="4" stroke-opacity="1" stroke-width=".995" d="m 6.499974,4.5 9,0 0.0024,11.002374 -9.0047472,0.0597 L 6.499974,4.5 z" display="inline"/><path id="path3639" fill="none" stroke="#000" stroke-dasharray="none" stroke-dashoffset="0" stroke-linecap="square" stroke-linejoin="round" stroke-miterlimit="4" stroke-opacity="1" stroke-width=".995" d="m 8.5746037,6.5298507 4.9253963,5e-7 m -4.9253963,5.9999998 3.9253963,0 M 8.5746037,8.5298507 11.5,8.53 m -2.9253963,1.999851 4.9253963,0 M 2.5746037,2.5298507 l 4.5223882,5e-7 M 2.5746037,8.5298507 5.5,8.5298512 M 2.5746037,4.5298507 5.5,4.5298512 M 2.5746037,6.5298507 5.5,6.5298512" display="inline" opacity=".2"/></g></svg>