<svg xmlns="http://www.w3.org/2000/svg" xmlns:svg="http://www.w3.org/2000/svg" xmlns:xlink="http://www.w3.org/1999/xlink" id="svg3744" width="16" height="16" version="1.1"><defs id="defs3746"><linearGradient id="linearGradient3101" x1="18.031" x2="20.055" y1="16.408" y2="24.628" gradientTransform="matrix(0.2966887,0,0,0.25147818,1.8815319,4.6561652)" gradientUnits="userSpaceOnUse" xlink:href="#linearGradient8265-821-176-38-919-66-249"/><linearGradient id="linearGradient8265-821-176-38-919-66-249"><stop id="stop2687" offset="0" stop-color="#fff" stop-opacity=".275"/><stop id="stop2689" offset="1" stop-color="#fff" stop-opacity=".078"/></linearGradient><linearGradient id="linearGradient3104" x1="126.698" x2="169.23" y1="58.583" y2="238.4" gradientTransform="matrix(0.05489342,0.01385132,0.00257263,0.05248166,-0.71177107,-0.26741069)" gradientUnits="userSpaceOnUse" xlink:href="#linearGradient2610"/><linearGradient id="linearGradient2610"><stop id="stop2612" offset="0" stop-color="#f0c178" stop-opacity="1"/><stop id="stop2614" offset=".5" stop-color="#e18941" stop-opacity="1"/><stop id="stop2616" offset="1" stop-color="#ec4f18" stop-opacity="1"/></linearGradient><linearGradient id="linearGradient3106" x1="10.318" x2="4.176" y1="14.993" y2="4.051" gradientTransform="matrix(1.0083043,0,0,1.0006232,2.0584711e-4,-0.00662069)" gradientUnits="userSpaceOnUse" xlink:href="#linearGradient2603"/><linearGradient id="linearGradient2603"><stop id="stop2605" offset="0" stop-color="#bb2b12" stop-opacity="1"/><stop id="stop2607" offset="1" stop-color="#cd7233" stop-opacity="1"/></linearGradient><linearGradient id="linearGradient3139" x1="25.132" x2="25.132" y1="6.729" y2="47.013" gradientTransform="matrix(0.3715633,0,0,0.3334383,-0.9175205,-0.0025171)" gradientUnits="userSpaceOnUse" xlink:href="#linearGradient3600"/><linearGradient id="linearGradient3600"><stop id="stop3602" offset="0" stop-color="#f4f4f4" stop-opacity="1"/><stop id="stop3604" offset="1" stop-color="#dbdbdb" stop-opacity="1"/></linearGradient><linearGradient id="linearGradient3141" x1="-51.786" x2="-51.786" y1="50.786" y2="2.906" gradientTransform="matrix(0.3000362,0,0,0.3120485,21.157141,-0.3741276)" gradientUnits="userSpaceOnUse" xlink:href="#linearGradient3931"/><linearGradient id="linearGradient3931"><stop id="stop3933" offset="0" stop-color="#8d8f8a" stop-opacity="1"/><stop id="stop3935" offset="1" stop-color="#c1c1c1" stop-opacity="1"/></linearGradient><linearGradient id="linearGradient3143" x1="32.892" x2="36.358" y1="8.059" y2="5.457" gradientTransform="matrix(0.3707081,0,0,0.3548465,-0.8566575,-0.04895116)" gradientUnits="userSpaceOnUse" xlink:href="#linearGradient8589"/><linearGradient id="linearGradient8589"><stop id="stop8591" offset="0" stop-color="#fefefe" stop-opacity="1"/><stop id="stop8593" offset="1" stop-color="#cbcbcb" stop-opacity="1"/></linearGradient><linearGradient id="linearGradient3145" x1="17.289" x2="15.18" y1="2.185" y2="5.821" gradientTransform="matrix(0.6844293,0,0,0.6820072,-0.2131519,0.1569169)" gradientUnits="userSpaceOnUse" xlink:href="#linearGradient4559"/><linearGradient id="linearGradient4559"><stop id="stop4561" offset="0" stop-color="silver" stop-opacity="1"/><stop id="stop4563" offset="1" stop-color="#949492" stop-opacity="1"/></linearGradient><linearGradient id="linearGradient2673" x1="302.857" x2="302.857" y1="366.648" y2="609.505" gradientTransform="matrix(2.774389,0,0,1.969706,-1892.179,-872.8854)" gradientUnits="userSpaceOnUse" xlink:href="#linearGradient5048-6"/><linearGradient id="linearGradient5048-6"><stop id="stop5050-5" offset="0" stop-color="#000" stop-opacity="0"/><stop id="stop5056-2" offset=".5" stop-color="#000" stop-opacity="1"/><stop id="stop5052-6" offset="1" stop-color="#000" stop-opacity="0"/></linearGradient><radialGradient id="radialGradient2675" cx="605.714" cy="486.648" r="117.143" fx="605.714" fy="486.648" gradientTransform="matrix(2.774389,0,0,1.969706,-1891.633,-872.8854)" gradientUnits="userSpaceOnUse" xlink:href="#linearGradient5060-7"/><linearGradient id="linearGradient5060-7"><stop id="stop5062-3" offset="0" stop-color="#000" stop-opacity="1"/><stop id="stop5064-2" offset="1" stop-color="#000" stop-opacity="0"/></linearGradient><radialGradient id="radialGradient2677" cx="605.714" cy="486.648" r="117.143" fx="605.714" fy="486.648" gradientTransform="matrix(-2.774389,0,0,1.969706,112.7623,-872.8854)" gradientUnits="userSpaceOnUse" xlink:href="#linearGradient5060-7"/></defs><g id="layer1"><g id="layer6" transform="matrix(0.3639508,0,0,0.3445682,-0.64382107,-0.38545179)"><g id="g2488" display="inline" transform="matrix(0.02165152,0,0,0.01485743,43.0076,42.68539)"><rect id="rect2490" width="1339.633" height="478.357" x="-1559.252" y="-150.697" fill="url(#linearGradient2673)" fill-opacity="1" fill-rule="nonzero" stroke="none" stroke-width="1" display="inline" opacity=".402" overflow="visible" visibility="visible" style="marker:none"/><path id="path2492" fill="url(#radialGradient2675)" fill-opacity="1" fill-rule="nonzero" stroke="none" stroke-width="1" d="m -219.61876,-150.68038 c 0,0 0,478.33079 0,478.33079 142.874166,0.90045 345.40022,-107.16966 345.40014,-239.196175 0,-132.026537 -159.436816,-239.134595 -345.40014,-239.134615 z" display="inline" opacity=".402" overflow="visible" visibility="visible" style="marker:none"/><path id="path2494" fill="url(#radialGradient2677)" fill-opacity="1" fill-rule="nonzero" stroke="none" stroke-width="1" d="m -1559.2523,-150.68038 c 0,0 0,478.33079 0,478.33079 -142.8742,0.90045 -345.4002,-107.16966 -345.4002,-239.196175 0,-132.026537 159.4368,-239.134595 345.4002,-239.134615 z" display="inline" opacity=".402" overflow="visible" visibility="visible" style="marker:none"/></g></g><path id="rect2196" fill="#fff" fill-opacity="1" stroke="#a8a8a8" stroke-dasharray="none" stroke-linecap="round" stroke-linejoin="round" stroke-miterlimit="4" stroke-opacity="1" stroke-width=".979" d="m 0.60252719,1.521453 c -0.056258,0 -0.104488,0.060345 -0.104488,0.122673 0,4.6045693 0.003374,8.651192 -6.5534e-4,12.857254 C 5.2037099,14.47741 9.9124926,14.45312 14.6199,14.43586 c -0.417129,0 -1.112329,-0.07009 -1.102384,-0.940487 0.0035,-3.5970297 0.02296,-7.4083531 0.01078,-10.9808561 l -6.051949,0 c -0.4774881,0 -1.0962577,-0.9930629 -1.5260835,-0.9930629 l -5.34773331,0 z" display="inline"/><g id="layer1-9" transform="matrix(0.67812973,0,0,0.66778403,1.4820415,0.15013525)"><path id="rect2594" fill="url(#linearGradient3139)" fill-opacity="1" stroke="url(#linearGradient3141)" stroke-dasharray="none" stroke-dashoffset="0" stroke-linecap="butt" stroke-linejoin="round" stroke-miterlimit="4" stroke-opacity="1" stroke-width="1.479" d="m 1.4976268,0.49762721 c 2.980045,0 4.9376418,0 7.9176887,0 0.522766,0.16184396 4.3536885,2.61362219 5.0870585,3.89029659 0,3.907463 0,7.2069842 0,11.1144502 -4.334914,0 -8.6698338,0 -13.0047472,0 0,-5.001584 0,-10.0031638 0,-15.00474679 z" display="inline"/><path id="path12038" fill="url(#linearGradient3143)" fill-opacity="1" fill-rule="evenodd" stroke="url(#linearGradient3145)" stroke-dasharray="none" stroke-linecap="butt" stroke-linejoin="round" stroke-miterlimit="4" stroke-opacity="1" stroke-width="1.479" d="m 8.8743469,0.4979205 c 0,1.5433585 0,4.5184686 0,4.5184686 0,0 4.7062561,0 5.6277331,0 0,-1.9018156 -3.631393,-4.5184686 -5.6277331,-4.5184686 z" display="inline"/></g><path id="rect3086" fill="url(#linearGradient3104)" fill-opacity="1" stroke="url(#linearGradient3106)" stroke-dasharray="none" stroke-linecap="round" stroke-linejoin="round" stroke-miterlimit="4" stroke-opacity="1" stroke-width=".953" d="m 2.5264149,6.5399998 c 0.656364,0 12.4800451,0 12.9890041,0 0,0.615413 -0.02468,7.9734812 -0.05407,7.9734812 -4.558843,0.01775 -11.6594001,-0.01389 -12.9868141,-0.01389 0,-1.161471 0.05188,-5.5693472 0.05188,-7.9595912 z" display="inline"/><path id="path2509" fill="url(#linearGradient3101)" fill-opacity="1" fill-rule="evenodd" stroke="none" d="m 2.8364987,6.0000017 c -0.4565886,0 -0.834437,0.3202705 -0.834437,0.7072824 l 0,4.0236509 c 0.00175,0.07198 0.044034,0.15405 0.1112582,0.204326 0.067223,0.05028 0.1531492,0.07149 0.2503311,0.06287 0.00309,6.7e-5 0.00618,6.7e-5 0.00927,0 L 15.723914,9.2063484 c 0.154804,-0.020694 0.275982,-0.1343723 0.278146,-0.2671955 l 0,-2.2318688 c 0,-0.3870119 -0.377849,-0.7072824 -0.834437,-0.7072824 l -12.3311243,0 z"/><path id="path2406" fill="none" stroke="#fff" stroke-linecap="butt" stroke-linejoin="miter" stroke-opacity="1" stroke-width="1" d="m 3.4999989,13.999999 0,-6.5000002 11.5000001,0" opacity=".35"/></g></svg>