<svg xmlns="http://www.w3.org/2000/svg" xmlns:svg="http://www.w3.org/2000/svg" xmlns:xlink="http://www.w3.org/1999/xlink" id="svg3334" width="16" height="16" version="1.0"><metadata id="metadata26"/><defs id="defs3336"><linearGradient id="linearGradient3104"><stop id="stop3106" offset="0" stop-color="#aaa" stop-opacity="1"/><stop id="stop3108" offset="1" stop-color="#c8c8c8" stop-opacity="1"/></linearGradient><linearGradient id="linearGradient2519" x1="-51.786" x2="-51.786" y1="50.786" y2="2.906" gradientTransform="matrix(0.2537858,0,0,0.3050189,19.128982,-0.6854851)" gradientUnits="userSpaceOnUse" xlink:href="#linearGradient3104"/><linearGradient id="linearGradient3600"><stop id="stop3602" offset="0" stop-color="#f4f4f4" stop-opacity="1"/><stop id="stop3604" offset="1" stop-color="#dbdbdb" stop-opacity="1"/></linearGradient><linearGradient id="linearGradient2517" x1="25.132" x2="25.132" y1=".985" y2="47.013" gradientTransform="matrix(0.3142872,0,0,0.3259268,0.4571068,-0.3222465)" gradientUnits="userSpaceOnUse" xlink:href="#linearGradient3600"/><linearGradient id="linearGradient3211"><stop id="stop3213" offset="0" stop-color="#fff" stop-opacity="1"/><stop id="stop3215" offset="1" stop-color="#fff" stop-opacity="0"/></linearGradient><linearGradient id="linearGradient2511" x1="24" x2="24" y1="2" y2="46.017" gradientTransform="matrix(0.2727267,0,0,0.302325,1.4545607,0.7441991)" gradientUnits="userSpaceOnUse" xlink:href="#linearGradient3211"/><linearGradient id="linearGradient8589"><stop id="stop8591" offset="0" stop-color="#fefefe" stop-opacity="1"/><stop id="stop8593" offset="1" stop-color="#cbcbcb" stop-opacity="1"/></linearGradient><linearGradient id="linearGradient2507" x1="32.892" x2="36.358" y1="8.059" y2="5.457" gradientTransform="matrix(0.3091956,0,0,0.3766935,0.4761461,0.1071779)" gradientUnits="userSpaceOnUse" xlink:href="#linearGradient8589"/><linearGradient id="linearGradient3242-7"><stop id="stop3244-5" offset="0" stop-color="#eef87e" stop-opacity="1"/><stop id="stop3246-9" offset=".262" stop-color="#cde34f" stop-opacity="1"/><stop id="stop3248-7" offset=".661" stop-color="#93b723" stop-opacity="1"/><stop id="stop3250-8" offset="1" stop-color="#5a7e0d" stop-opacity="1"/></linearGradient><linearGradient id="linearGradient2490-3"><stop id="stop2492-3" offset="0" stop-color="#365f0e" stop-opacity="1"/><stop id="stop2494-8" offset="1" stop-color="#84a718" stop-opacity="1"/></linearGradient><linearGradient id="linearGradient5530" x1="24.139" x2="24.139" y1="7.048" y2="39.268" gradientTransform="matrix(0.20131127,0,0,0.1999165,7.4133025,7.3088517)" gradientUnits="userSpaceOnUse" xlink:href="#linearGradient3943"/><linearGradient id="linearGradient3943"><stop id="stop3945" offset="0" stop-color="#fff" stop-opacity="1"/><stop id="stop3947" offset="1" stop-color="#fff" stop-opacity="0"/></linearGradient><radialGradient id="radialGradient3149" cx="69.448" cy="51.695" r="31" fx="69.448" fy="51.695" gradientTransform="matrix(0,0.25030935,-0.27259303,0,25.244726,-8.076711)" gradientUnits="userSpaceOnUse" xlink:href="#linearGradient3242-7"/><linearGradient id="linearGradient3151" x1="72.422" x2="72.422" y1="124.756" y2="51.244" gradientTransform="matrix(0.10408428,0,0,0.10482496,2.8405826,2.7754018)" gradientUnits="userSpaceOnUse" xlink:href="#linearGradient2490-3"/></defs><g id="layer1" transform="matrix(1.0745238,0,0,0.87527655,-0.07456591,0.99512555)"><path id="path4160" fill="url(#linearGradient2517)" fill-opacity="1" stroke="url(#linearGradient2519)" stroke-dasharray="none" stroke-dashoffset="0" stroke-linecap="butt" stroke-linejoin="round" stroke-miterlimit="4" stroke-opacity="1" stroke-width="1" d="m 1.5,0.4999664 c 2.5206756,0 5.9205035,0 8.4411815,0 0.4421795,0.1617935 2.9385125,2.1328451 3.5588315,3.4091211 0,3.906246 2.6e-5,7.6846975 2.6e-5,11.5909465 -3.6666935,0 -8.3333464,0 -12.000039,0 0,-5.000023 0,-10.0000465 0,-15.0000676 z" display="inline"/><path id="path2435" fill="none" fill-opacity="1" stroke="url(#linearGradient2511)" stroke-dasharray="none" stroke-dashoffset="0" stroke-linecap="butt" stroke-linejoin="miter" stroke-miterlimit="4" stroke-opacity="1" stroke-width="1" d="m 12.5,4.2150736 c 0,3.3853981 0,6.8995284 0,10.2849274 -2.999999,0 -6.9999991,0 -10,0 0,-4.333337 0,-8.6666684 0,-13.000001 2.0623569,0 5.1738997,0 7.2362577,0" display="inline" opacity=".6"/><path id="path3330" fill="#c1c1c1" fill-opacity="1" fill-rule="evenodd" stroke="none" stroke-linecap="butt" stroke-linejoin="miter" stroke-opacity="1" stroke-width="1" d="M 9.2941205,0.8409023 C 10.142028,3.6448055 9,5.0341186 9,5.0341186 c 0,0 1.892807,-1.2514061 4.171354,-0.1023041 1.942856,0.9798084 0.03608,-1.008024 -0.04146,-1.129046 C 12.586944,2.9552643 10.707454,1.1696619 10.025256,0.8725867 9.9696235,0.8483603 9.5814385,0.8409023 9.2941205,0.8409023 Z" display="inline"/><path id="path4474" fill="url(#linearGradient2507)" fill-opacity="1" fill-rule="evenodd" stroke="none" stroke-linecap="butt" stroke-linejoin="miter" stroke-opacity="1" stroke-width="1" d="M 9.2941205,0.8409023 C 10.281641,0.8409023 10,4.0219212 10,4.0219212 c 0,0 2.272472,-0.5007314 3.171354,0.9098933 0.162882,0.2556128 0.03608,-1.008024 -0.04146,-1.129046 C 12.586944,2.9552643 10.707454,1.1696619 10.025256,0.8725867 9.9696235,0.8483603 9.5814385,0.8409023 9.2941205,0.8409023 Z" display="inline"/></g><g id="g4169" transform="translate(-2.9558233,-1.9277108)"><path id="path2262" fill="url(#radialGradient3149)" fill-opacity="1" fill-rule="nonzero" stroke="url(#linearGradient3151)" stroke-dasharray="none" stroke-dashoffset="0" stroke-linecap="round" stroke-linejoin="round" stroke-miterlimit="4" stroke-opacity="1" stroke-width=".985" d="m 10.5,10.5 0,-2.0072863 3,0 0,2.0072863 2.007286,0 0,3 -2.007286,0 0,2.007286 -3,0 0,-2.007286 -2.0072863,0 0,-3 2.0072863,0 z" color="#000" display="inline" enable-background="accumulate" overflow="visible" visibility="visible" style="marker:none"/><path id="path2272" fill="none" stroke="url(#linearGradient5530)" stroke-dasharray="none" stroke-linecap="butt" stroke-linejoin="miter" stroke-miterlimit="4" stroke-opacity="1" stroke-width="1" d="m 11.5,11.5 0,-1.9999997 1,0 0,1.9999997 2,0 0,1 -2,0 0,2.292538 -1,0 0,-2.292538 -2,0 0,-1 2,0 z" display="inline" opacity=".4"/></g></svg>