<svg xmlns="http://www.w3.org/2000/svg" xmlns:svg="http://www.w3.org/2000/svg" xmlns:xlink="http://www.w3.org/1999/xlink" id="svg3272" width="16" height="16" version="1.0"><defs id="defs3274"><linearGradient id="linearGradient2687" x1="18.031" x2="20.055" y1="16.408" y2="24.628" gradientTransform="matrix(0.2966887,0,0,0.3520695,1.8805021,2.1186294)" gradientUnits="userSpaceOnUse" xlink:href="#linearGradient8265-821-176-38-919-66-249"/><linearGradient id="linearGradient2692" x1="10.318" x2="4.176" y1="14.993" y2="4.051" gradientTransform="matrix(1.0083043,0,0,1.0006232,-8.2398426e-4,-6.6205e-3)" gradientUnits="userSpaceOnUse" xlink:href="#linearGradient3390-178-986-453"/><linearGradient id="linearGradient2690" x1="126.698" x2="169.23" y1="58.583" y2="238.4" gradientTransform="matrix(5.489342e-2,1.385132e-2,2.57263e-3,5.248166e-2,-0.7128009,-0.2674105)" gradientUnits="userSpaceOnUse" xlink:href="#linearGradient7012-661-145-733-759-865-745-661-970-94"/><radialGradient id="radialGradient2677" cx="605.714" cy="486.648" r="117.143" fx="605.714" fy="486.648" gradientTransform="matrix(-2.774389,0,0,1.969706,112.7623,-872.8854)" gradientUnits="userSpaceOnUse" xlink:href="#linearGradient5060"/><radialGradient id="radialGradient2675" cx="605.714" cy="486.648" r="117.143" fx="605.714" fy="486.648" gradientTransform="matrix(2.774389,0,0,1.969706,-1891.633,-872.8854)" gradientUnits="userSpaceOnUse" xlink:href="#linearGradient5060"/><linearGradient id="linearGradient2673" x1="302.857" x2="302.857" y1="366.648" y2="609.505" gradientTransform="matrix(2.774389,0,0,1.969706,-1892.179,-872.8854)" gradientUnits="userSpaceOnUse" xlink:href="#linearGradient5048"/><linearGradient id="linearGradient3404" x1="18.031" x2="20.055" y1="16.408" y2="24.628" gradientUnits="userSpaceOnUse" xlink:href="#linearGradient8265-821-176-38-919-66-249"/><linearGradient id="linearGradient3752"><stop id="stop3754" offset="0" stop-color="#fff" stop-opacity="1"/><stop id="stop3760" offset=".848" stop-color="#fff" stop-opacity="1"/><stop id="stop3756" offset="1" stop-color="#fff" stop-opacity="0"/></linearGradient><radialGradient id="radialGradient3402" cx="4.02" cy="5.593" r="10.273" fx="4.02" fy="5.593" gradientTransform="matrix(-1.680222e-2,1.3942814,-1.79662,-2.165073e-2,-5.3658054,-19.339419)" gradientUnits="userSpaceOnUse" xlink:href="#linearGradient3752"/><linearGradient id="linearGradient3400" x1="9.705" x2="9.705" y1="20.882" y2="4.303" gradientTransform="matrix(0.9945751,0,0,0.9945751,-19.857339,-19.77827)" gradientUnits="userSpaceOnUse" xlink:href="#linearGradient3390-178-986-453"/><radialGradient id="radialGradient3398" cx="7.819" cy="8.561" r="11.268" fx="7.819" fy="8.561" gradientTransform="matrix(1.6899516,0,0,1.0436086,-24.967043,-20.53429)" gradientUnits="userSpaceOnUse" xlink:href="#linearGradient7012-661-145-733-759-865-745-661-970-94"/><linearGradient id="linearGradient5157"><stop id="stop5159" offset="0" stop-color="#c1c1c1" stop-opacity="1"/><stop id="stop5161" offset="1" stop-color="#909090" stop-opacity="1"/></linearGradient><linearGradient id="linearGradient3396" x1="9.876" x2="9.876" y1="2.601" y2="23.062" gradientTransform="translate(-19.518072,-21.496043)" gradientUnits="userSpaceOnUse" xlink:href="#linearGradient5157"/><linearGradient id="linearGradient11111"><stop id="stop11113" offset="0" stop-color="#fff" stop-opacity="1"/><stop id="stop11115" offset=".91" stop-color="#cdcdcd" stop-opacity="1"/><stop id="stop11117" offset="1" stop-color="#a1a1a1" stop-opacity="1"/></linearGradient><linearGradient id="linearGradient3394" x1="-28.531" x2="-28.531" y1="17.956" y2="37.503" gradientTransform="translate(14.859932,-35.997365)" gradientUnits="userSpaceOnUse" xlink:href="#linearGradient11111"/><radialGradient id="radialGradient3392" cx="605.714" cy="486.648" r="117.143" fx="605.714" fy="486.648" gradientTransform="matrix(-2.774389,0,0,1.969706,112.7623,-872.8854)" gradientUnits="userSpaceOnUse" xlink:href="#linearGradient5060"/><linearGradient id="linearGradient5060"><stop id="stop5062" offset="0" stop-color="#000" stop-opacity="1"/><stop id="stop5064" offset="1" stop-color="#000" stop-opacity="0"/></linearGradient><radialGradient id="radialGradient3390" cx="605.714" cy="486.648" r="117.143" fx="605.714" fy="486.648" gradientTransform="matrix(2.774389,0,0,1.969706,-1891.633,-872.8854)" gradientUnits="userSpaceOnUse" xlink:href="#linearGradient5060"/><linearGradient id="linearGradient5048"><stop id="stop5050" offset="0" stop-color="#000" stop-opacity="0"/><stop id="stop5056" offset=".5" stop-color="#000" stop-opacity="1"/><stop id="stop5052" offset="1" stop-color="#000" stop-opacity="0"/></linearGradient><linearGradient id="linearGradient3388" x1="302.857" x2="302.857" y1="366.648" y2="609.505" gradientTransform="matrix(2.774389,0,0,1.969706,-1892.179,-872.8854)" gradientUnits="userSpaceOnUse" xlink:href="#linearGradient5048"/><linearGradient id="linearGradient3390-178-986-453"><stop id="stop3624" offset="0" stop-color="#bb2b12" stop-opacity="1"/><stop id="stop3626" offset="1" stop-color="#cd7233" stop-opacity="1"/></linearGradient><linearGradient id="linearGradient7012-661-145-733-759-865-745-661-970-94"><stop id="stop3618" offset="0" stop-color="#edb763" stop-opacity="1"/><stop id="stop3270" offset=".5" stop-color="#de7f32" stop-opacity="1"/><stop id="stop3620" offset="1" stop-color="#d24413" stop-opacity="1"/></linearGradient><linearGradient id="linearGradient8265-821-176-38-919-66-249"><stop id="stop2687" offset="0" stop-color="#fff" stop-opacity=".275"/><stop id="stop2689" offset="1" stop-color="#fff" stop-opacity=".078"/></linearGradient></defs><g id="layer1"><g id="layer6" transform="matrix(0.3639508,0,0,0.3445682,-0.6448509,-0.3854516)"><g id="g2488" display="inline" transform="matrix(2.165152e-2,0,0,1.485743e-2,43.0076,42.68539)"><rect id="rect2490" width="1339.633" height="478.357" x="-1559.252" y="-150.697" fill="url(#linearGradient2673)" fill-opacity="1" fill-rule="nonzero" stroke="none" stroke-width="1" display="inline" opacity=".402" overflow="visible" visibility="visible" style="marker:none"/><path id="path2492" fill="url(#radialGradient2675)" fill-opacity="1" fill-rule="nonzero" stroke="none" stroke-width="1" d="M -219.61876,-150.68038 C -219.61876,-150.68038 -219.61876,327.65041 -219.61876,327.65041 C -76.744594,328.55086 125.78146,220.48075 125.78138,88.454235 C 125.78138,-43.572302 -33.655436,-150.68036 -219.61876,-150.68038 L -219.61876,-150.68038 z" display="inline" opacity=".402" overflow="visible" visibility="visible" style="marker:none"/><path id="path2494" fill="url(#radialGradient2677)" fill-opacity="1" fill-rule="nonzero" stroke="none" stroke-width="1" d="M -1559.2523,-150.68038 C -1559.2523,-150.68038 -1559.2523,327.65041 -1559.2523,327.65041 C -1702.1265,328.55086 -1904.6525,220.48075 -1904.6525,88.454235 C -1904.6525,-43.572302 -1745.2157,-150.68036 -1559.2523,-150.68038 L -1559.2523,-150.68038 z" display="inline" opacity=".402" overflow="visible" visibility="visible" style="marker:none"/></g></g><path id="rect2196" fill="#fff" fill-opacity="1" stroke="#a8a8a8" stroke-dasharray="none" stroke-linecap="round" stroke-linejoin="round" stroke-miterlimit="4" stroke-opacity="1" stroke-width=".979" d="M 0.60149736,1.5214532 C 0.54523936,1.5214532 0.49700936,1.5817982 0.49700936,1.6441262 C 0.49700936,6.2486955 0.50038336,10.295318 0.49635402,14.50138 C 5.2026801,14.47741 9.9114628,14.45312 14.61887,14.43586 C 14.201741,14.43586 13.506541,14.36577 13.516486,13.495373 C 13.519986,9.8983435 13.539446,6.0870201 13.527266,2.5145171 L 7.4753172,2.5145171 C 6.9978291,2.5145171 6.3790595,1.5214542 5.9492337,1.5214542 L 0.60150036,1.5214542 L 0.60149736,1.5214532 z" display="inline"/><path id="rect3086" fill="url(#linearGradient2690)" fill-opacity="1" stroke="url(#linearGradient2692)" stroke-dasharray="none" stroke-linecap="round" stroke-linejoin="round" stroke-miterlimit="4" stroke-opacity="1" stroke-width=".953" d="M 2.5253881,4.5240135 C 3.1817521,4.5240135 15.00543,4.5554065 15.514389,4.5554065 C 15.514389,5.1708195 15.489709,14.513481 15.460319,14.513481 C 10.901476,14.531231 3.8009191,14.499591 2.4735051,14.499591 C 2.4735051,13.33812 2.5253851,6.9142625 2.5253851,4.5240185 L 2.5253881,4.5240135 z" display="inline"/><path id="path2509" fill="url(#linearGradient2687)" fill-opacity="1" fill-rule="evenodd" stroke="none" d="M 2.8354689,4.0000008 C 2.3788803,4.0000008 2.0010319,4.4483796 2.0010319,4.9901963 L 2.0010319,10.623308 C 2.0027819,10.724082 2.0450659,10.838978 2.1122901,10.909365 C 2.1795131,10.979755 2.2654393,11.009448 2.3626212,10.997385 C 2.3657112,10.997479 2.3688012,10.997479 2.3718912,10.997385 L 15.722884,8.4888869 C 15.877688,8.4599149 15.998866,8.3007656 16.00103,8.1148131 L 16.00103,4.9901963 C 16.00103,4.4483796 15.623181,4.0000008 15.166593,4.0000008 L 2.8354689,4.0000008 L 2.8354689,4.0000008 z"/><path id="path2406" fill="none" stroke="#fff" stroke-linecap="butt" stroke-linejoin="miter" stroke-opacity="1" stroke-width="1" d="M 3.4989691,13.999999 L 3.4989691,5.5 L 14.998969,5.5" opacity=".35"/></g></svg>