<svg xmlns="http://www.w3.org/2000/svg" xmlns:svg="http://www.w3.org/2000/svg" xmlns:xlink="http://www.w3.org/1999/xlink" id="svg3272" width="16" height="16" version="1.0"><defs id="defs3274"><linearGradient id="linearGradient2897" x1="29.956" x2="29.956" y1="21.866" y2="43.144" gradientTransform="matrix(0.4229234,0,0,0.4233787,-2.6035157,-2.9089857)" gradientUnits="userSpaceOnUse" xlink:href="#linearGradient3341"/><linearGradient id="linearGradient3341"><stop id="stop3343" offset="0" stop-color="#fff" stop-opacity="1"/><stop id="stop3345" offset="1" stop-color="#fff" stop-opacity="0"/></linearGradient><linearGradient id="linearGradient2868" x1="30" x2="30" y1=".918" y2="25.793" gradientTransform="matrix(0.3368574,0,0,0.3216128,-0.1057209,-0.2952997)" gradientUnits="userSpaceOnUse" xlink:href="#linearGradient3341"/><linearGradient id="linearGradient2874" x1="30" x2="30" y1="5" y2="44.679" gradientTransform="matrix(0.3368574,0,0,0.3216128,-0.1057209,-0.2952997)" gradientUnits="userSpaceOnUse" xlink:href="#linearGradient3785-5"/><radialGradient id="radialGradient2872" cx="26.376" cy="12.313" r="8" fx="26.376" fy="12.313" gradientTransform="matrix(0.5525016,-0.0426402,0.04315608,0.5097191,-6.3026675,-1.9765067)" gradientUnits="userSpaceOnUse" xlink:href="#linearGradient6954-6"/><linearGradient id="linearGradient2884" x1="30" x2="30" y1="25.085" y2="45" gradientTransform="matrix(0.4273872,0,0,0.4230086,-2.7256264,-3.0702578)" gradientUnits="userSpaceOnUse" xlink:href="#linearGradient3785-5"/><radialGradient id="radialGradient2882" cx="25" cy="28.66" r="16" fx="25" fy="28.66" gradientTransform="matrix(0.5609457,0,0,0.1578952,-6.0645883,5.5177328)" gradientUnits="userSpaceOnUse" xlink:href="#linearGradient6954-6"/><linearGradient id="linearGradient2687" x1="18.031" x2="20.055" y1="16.408" y2="24.628" gradientTransform="matrix(0.2966887,0,0,0.3520695,1.8805021,2.1186294)" gradientUnits="userSpaceOnUse" xlink:href="#linearGradient8265-821-176-38-919-66-249"/><linearGradient id="linearGradient2692" x1="10.318" x2="4.176" y1="14.993" y2="4.051" gradientTransform="matrix(1.0083043,0,0,1.0006232,-8.2398426e-4,-0.0066205)" gradientUnits="userSpaceOnUse" xlink:href="#linearGradient3390-178-986-453"/><linearGradient id="linearGradient2690" x1="126.698" x2="169.23" y1="58.583" y2="238.4" gradientTransform="matrix(0.05489342,0.01385132,0.00257263,0.05248166,-0.7128009,-0.2674105)" gradientUnits="userSpaceOnUse" xlink:href="#linearGradient7012-661-145-733-759-865-745-661-970-94"/><radialGradient id="radialGradient2677" cx="605.714" cy="486.648" r="117.143" fx="605.714" fy="486.648" gradientTransform="matrix(-2.774389,0,0,1.969706,112.7623,-872.8854)" gradientUnits="userSpaceOnUse" xlink:href="#linearGradient5060"/><radialGradient id="radialGradient2675" cx="605.714" cy="486.648" r="117.143" fx="605.714" fy="486.648" gradientTransform="matrix(2.774389,0,0,1.969706,-1891.633,-872.8854)" gradientUnits="userSpaceOnUse" xlink:href="#linearGradient5060"/><linearGradient id="linearGradient2673" x1="302.857" x2="302.857" y1="366.648" y2="609.505" gradientTransform="matrix(2.774389,0,0,1.969706,-1892.179,-872.8854)" gradientUnits="userSpaceOnUse" xlink:href="#linearGradient5048"/><linearGradient id="linearGradient5060"><stop id="stop5062" offset="0" stop-color="#000" stop-opacity="1"/><stop id="stop5064" offset="1" stop-color="#000" stop-opacity="0"/></linearGradient><linearGradient id="linearGradient5048"><stop id="stop5050" offset="0" stop-color="#000" stop-opacity="0"/><stop id="stop5056" offset=".5" stop-color="#000" stop-opacity="1"/><stop id="stop5052" offset="1" stop-color="#000" stop-opacity="0"/></linearGradient><linearGradient id="linearGradient3390-178-986-453"><stop id="stop3624" offset="0" stop-color="#bb2b12" stop-opacity="1"/><stop id="stop3626" offset="1" stop-color="#cd7233" stop-opacity="1"/></linearGradient><linearGradient id="linearGradient7012-661-145-733-759-865-745-661-970-94"><stop id="stop3618" offset="0" stop-color="#edb763" stop-opacity="1"/><stop id="stop3270" offset=".5" stop-color="#de7f32" stop-opacity="1"/><stop id="stop3620" offset="1" stop-color="#d24413" stop-opacity="1"/></linearGradient><linearGradient id="linearGradient8265-821-176-38-919-66-249"><stop id="stop2687" offset="0" stop-color="#fff" stop-opacity=".275"/><stop id="stop2689" offset="1" stop-color="#fff" stop-opacity=".078"/></linearGradient><linearGradient id="linearGradient6954-6"><stop id="stop6960-4" offset="0" stop-color="#f5f5f5" stop-opacity="1"/><stop id="stop6962-9" offset="1" stop-color="#d2d2d2" stop-opacity="1"/></linearGradient><linearGradient id="linearGradient3785-5"><stop id="stop3787-0" offset="0" stop-color="#969696" stop-opacity="1"/><stop id="stop3789-4" offset="1" stop-color="#646464" stop-opacity="1"/></linearGradient></defs><g id="layer1"><g id="layer6" transform="matrix(0.3639508,0,0,0.3445682,-0.6448509,-0.3854516)"><g id="g2488" display="inline" transform="matrix(0.02165152,0,0,0.01485743,43.0076,42.68539)"><rect id="rect2490" width="1339.633" height="478.357" x="-1559.252" y="-150.697" fill="url(#linearGradient2673)" fill-opacity="1" fill-rule="nonzero" stroke="none" stroke-width="1" display="inline" opacity=".402" overflow="visible" visibility="visible" style="marker:none"/><path id="path2492" fill="url(#radialGradient2675)" fill-opacity="1" fill-rule="nonzero" stroke="none" stroke-width="1" d="m -219.61876,-150.68038 c 0,0 0,478.33079 0,478.33079 142.874166,0.90045 345.40022,-107.16966 345.40014,-239.196175 0,-132.026537 -159.436816,-239.134595 -345.40014,-239.134615 l 0,0 z" display="inline" opacity=".402" overflow="visible" visibility="visible" style="marker:none"/><path id="path2494" fill="url(#radialGradient2677)" fill-opacity="1" fill-rule="nonzero" stroke="none" stroke-width="1" d="m -1559.2523,-150.68038 c 0,0 0,478.33079 0,478.33079 -142.8742,0.90045 -345.4002,-107.16966 -345.4002,-239.196175 0,-132.026537 159.4368,-239.134595 345.4002,-239.134615 l 0,0 z" display="inline" opacity=".402" overflow="visible" visibility="visible" style="marker:none"/></g></g><path id="rect2196" fill="#fff" fill-opacity="1" stroke="#a8a8a8" stroke-dasharray="none" stroke-linecap="round" stroke-linejoin="round" stroke-miterlimit="4" stroke-opacity="1" stroke-width=".979" d="m 0.60149736,1.5214532 c -0.056258,0 -0.104488,0.060345 -0.104488,0.122673 0,4.6045693 0.003374,8.6511918 -6.5534e-4,12.8572538 C 5.2026801,14.47741 9.9114628,14.45312 14.61887,14.43586 c -0.417129,0 -1.112329,-0.07009 -1.102384,-0.940487 0.0035,-3.5970295 0.02296,-7.4083529 0.01078,-10.9808559 l -6.0519488,0 c -0.4774881,0 -1.0962577,-0.9930629 -1.5260835,-0.9930629 l -5.34773334,0 -3e-6,-10e-7 z" display="inline"/><path id="rect3086" fill="url(#linearGradient2690)" fill-opacity="1" stroke="url(#linearGradient2692)" stroke-dasharray="none" stroke-linecap="round" stroke-linejoin="round" stroke-miterlimit="4" stroke-opacity="1" stroke-width=".953" d="m 2.5253881,4.5240135 c 0.656364,0 12.4800419,0.031393 12.9890009,0.031393 0,0.615413 -0.02468,9.9580745 -0.05407,9.9580745 -4.558843,0.01775 -11.6593999,-0.01389 -12.9868139,-0.01389 0,-1.161471 0.05188,-7.5853285 0.05188,-9.9755725 l 3e-6,-5e-6 z" display="inline"/><path id="path2509" fill="url(#linearGradient2687)" fill-opacity="1" fill-rule="evenodd" stroke="none" d="m 2.8354689,4.0000008 c -0.4565886,0 -0.834437,0.4483788 -0.834437,0.9901955 l 0,5.6331117 c 0.00175,0.100774 0.044034,0.21567 0.1112582,0.286057 0.067223,0.07039 0.1531492,0.100083 0.2503311,0.08802 0.00309,9.4e-5 0.00618,9.4e-5 0.00927,0 L 15.722884,8.4888869 c 0.154804,-0.028972 0.275982,-0.1881213 0.278146,-0.3740738 l 0,-3.1246168 c 0,-0.5418167 -0.377849,-0.9901955 -0.834437,-0.9901955 l -12.3311241,0 0,0 z"/><path id="path2406" fill="none" stroke="#fff" stroke-linecap="butt" stroke-linejoin="miter" stroke-opacity="1" stroke-width="1" d="m 3.4989691,13.999999 0,-8.499999 11.4999999,0" opacity=".35"/></g><g id="g3743" transform="matrix(0.9158595,0,0,0.8478725,1.2993353,2.2042211)"><path id="path2880" fill="url(#radialGradient2882)" fill-opacity="1" stroke="url(#linearGradient2884)" stroke-dasharray="none" stroke-linejoin="round" stroke-miterlimit="4" stroke-opacity="1" stroke-width="1.134" d="m 8.9227819,6.679329 c -0.080508,0.6801617 0.5891956,2.100317 0.218391,2.7190245 -1.4424534,0.5049417 -4.0422121,1.4262915 -4.1806268,2.0314545 -0.102202,0.94003 -0.2554985,2.311655 -0.3743845,3.250328 2.5287403,1.368305 8.4778624,1.302382 10.9195474,0 -0.08616,-0.665984 -0.163433,-2.584345 -0.24959,-3.250328 -0.652567,-0.780597 -2.370987,-1.237375 -4.180627,-2.0314545 -0.472869,-0.6162352 0.243062,-1.9933813 0.0936,-2.6877714 -0.285956,-0.049252 -1.9567212,-0.023727 -2.2463071,-0.031253 l -3e-6,-1e-7 z"/><path id="path2870" fill="url(#radialGradient2872)" fill-opacity="1" stroke="url(#linearGradient2874)" stroke-dasharray="none" stroke-miterlimit="4" stroke-opacity="1" stroke-width=".947" d="m 10,1.46875 c -1.3953075,0 -2.53125,1.0066477 -2.53125,2.25 0.010946,0.4601408 0.05895,1.0054807 0.34375,2.25 0.1684289,0.4824189 1.6739448,1.7766941 1.6875,1.9375 0.3266416,0.1608049 0.850642,0.1608049 1.1875,0 0,-0.1608059 1.331572,-1.4550811 1.5,-1.9375 0.320478,-1.293427 0.326559,-1.7675806 0.34375,-2.25 0,-1.2433523 -1.13594,-2.25 -2.53125,-2.25 z"/><path id="path2866" fill="none" stroke="url(#linearGradient2868)" stroke-dasharray="none" stroke-miterlimit="4" stroke-opacity="1" stroke-width=".947" d="M 10,2.46875 C 9.3876089,2.453926 8.7330161,2.7993069 8.53125,3.40625 c -0.1135765,0.4104884 -0.010161,0.836839 0.03125,1.25 0.05222,0.3381399 0.1132782,0.6660809 0.1875,1 0.1940928,0.171452 0.3611426,0.3974634 0.5625,0.5625 C 9.5758075,6.4747814 9.8032965,6.7399516 10.0625,7 10.330703,6.7826897 10.510924,6.4967292 10.75,6.25 10.902681,6.070177 11.060251,5.8623797 11.21875,5.6875 11.376386,4.9772187 11.558479,4.2653005 11.5,3.53125 11.375368,2.844477 10.652976,2.4515616 10,2.46875 z"/><path id="path2876" fill="none" stroke="url(#linearGradient2897)" stroke-dasharray="none" stroke-linejoin="round" stroke-miterlimit="4" stroke-opacity="1" stroke-width=".995" d="m 10.065527,9.4141332 c 0.04034,0.6190758 -0.4786519,1.1021158 -1.0496774,1.1886588 -1.0489997,0.377946 -2.138962,0.707194 -3.0872853,1.313781 -0.2220119,0.541252 -0.1029796,1.161838 -0.2469829,1.720427 -0.3269361,0.709654 0.5622095,0.776816 1.0188043,0.907136 2.2288718,0.541242 4.5959683,0.499548 6.8229003,-0.03128 0.331794,-0.168758 1.124544,-0.08502 0.926186,-0.625611 -0.06148,-0.588086 -0.09081,-1.192816 -0.123492,-1.782988 C 13.417036,11.395234 12.264248,11.145993 11.238695,10.665353 10.425654,10.548478 10.39638,9.9450343 10.065527,9.4141332 z"/></g></svg>