<svg xmlns="http://www.w3.org/2000/svg" xmlns:svg="http://www.w3.org/2000/svg" xmlns:xlink="http://www.w3.org/1999/xlink" id="svg11300" width="16" height="16" version="1.0"><defs id="defs3"><linearGradient id="linearGradient6468"><stop id="stop6470" offset="0" stop-color="#cd8033" stop-opacity="1"/><stop id="stop6472" offset="1" stop-color="#bb5e12" stop-opacity="1"/></linearGradient><linearGradient id="linearGradient6951"><stop id="stop6953" offset="0" stop-color="#6e3d09" stop-opacity="1"/><stop id="stop6959" offset=".242" stop-color="#ea8113" stop-opacity="1"/><stop id="stop6961" offset=".621" stop-color="#5c3307" stop-opacity="1"/><stop id="stop6955" offset="1" stop-color="#e07c12" stop-opacity="1"/></linearGradient><linearGradient id="linearGradient6963"><stop id="stop6965" offset="0" stop-color="#696969" stop-opacity="1"/><stop id="stop6967" offset="1" stop-color="#000" stop-opacity="1"/></linearGradient><linearGradient id="linearGradient6651"><stop id="stop6653" offset="0" stop-color="#f2f2f2" stop-opacity="1"/><stop id="stop6655" offset="1" stop-color="#c3c3c3" stop-opacity="1"/></linearGradient><linearGradient id="linearGradient4103"><stop id="stop4105" offset="0" stop-color="#edd563" stop-opacity="1"/><stop id="stop4107" offset="1" stop-color="#e08223" stop-opacity="1"/></linearGradient><linearGradient id="linearGradient5113"><stop id="stop5115" offset="0" stop-color="#fff" stop-opacity="1"/><stop id="stop5117" offset="1" stop-color="#fff" stop-opacity="0"/></linearGradient><radialGradient id="radialGradient5622" cx="15.415" cy="35.357" r="7.579" fx="15.415" fy="35.357" gradientTransform="matrix(0.3148742,0,0,0.3562318,-2.0091664,1.0761736)" gradientUnits="userSpaceOnUse" xlink:href="#linearGradient6963"/><linearGradient id="linearGradient5625" x1="20.251" x2="22.012" y1="29.811" y2="31.724" gradientTransform="matrix(0.3872935,0,0,0.3916797,-3.1214584,-0.6714711)" gradientUnits="userSpaceOnUse" xlink:href="#linearGradient6651"/><linearGradient id="linearGradient5628" x1="28.059" x2="33.437" y1="18.868" y2="23.743" gradientTransform="matrix(0.3936735,0,0,0.3912417,-3.3035426,-0.657916)" gradientUnits="userSpaceOnUse" xlink:href="#linearGradient6951"/><linearGradient id="linearGradient6422" x1="60.169" x2="60.441" y1="40.12" y2="43.87" gradientTransform="matrix(0.2583983,0,0,0.3925711,-3.7820218,-1.9892769)" gradientUnits="userSpaceOnUse" xlink:href="#linearGradient6651"/><radialGradient id="radialGradient6425" cx="9.969" cy="8.063" r="3" fx="9.969" fy="8.063" gradientTransform="matrix(1,0,0,1.5,0,-5.2499997)" gradientUnits="userSpaceOnUse" xlink:href="#linearGradient5113"/><linearGradient id="linearGradient6428" x1="42.816" x2="54.065" y1="64.564" y2="64.52" gradientTransform="matrix(0.2637961,0,0,0.3281378,-1.6991099,-11.764374)" gradientUnits="userSpaceOnUse" xlink:href="#linearGradient4103"/><linearGradient id="linearGradient6431" x1="53.169" x2="69.691" y1="24.245" y2="24.245" gradientTransform="matrix(0.3542879,0,0,0.2344752,-9.3950121,4.6539702)" gradientUnits="userSpaceOnUse" xlink:href="#linearGradient6651"/><linearGradient id="linearGradient6434" x1="52.718" x2="67.466" y1="2.316" y2="2.316" gradientTransform="matrix(0.3636593,0,0,0.2895792,-9.852978,4.3279461)" gradientUnits="userSpaceOnUse" xlink:href="#linearGradient4103"/><linearGradient id="linearGradient6436" x1="131" x2="136" y1="41.5" y2="41.5" gradientTransform="matrix(1.242248,0,0,0.9937754,-153.84008,-36.741682)" gradientUnits="userSpaceOnUse" xlink:href="#linearGradient6468"/></defs><g id="g6438"><path id="path5634" fill="url(#linearGradient5628)" fill-opacity="1" fill-rule="nonzero" stroke="#673907" stroke-dasharray="none" stroke-dashoffset="0" stroke-linecap="round" stroke-linejoin="miter" stroke-miterlimit="4" stroke-opacity="1" stroke-width=".796" d="M 5.9708008,8.8843254 7.5714174,10.371318 C 10.400951,7.6081684 14.572141,0.99039481 14.572141,0.99039481 14.741222,0.51133817 14.144089,0.20951664 13.845275,0.53244769 c 0,0 -5.3894283,5.51537231 -7.8744742,8.35187771 z" display="inline" overflow="visible" visibility="visible" style="marker:none"/><path id="path5636" fill="url(#linearGradient5625)" fill-opacity="1" fill-rule="nonzero" stroke="#797b75" stroke-dasharray="none" stroke-dashoffset="0" stroke-linecap="round" stroke-linejoin="miter" stroke-miterlimit="4" stroke-opacity="1" stroke-width=".79" d="m 2.5376166,13.282953 1.0002338,0.862966 4.2103008,-3.67021 C 7.5787157,9.8637054 6.6089352,8.7587969 5.8827575,8.7587969 L 2.5376166,13.282953 z" display="inline" overflow="visible" visibility="visible" style="marker:none"/><path id="path5638" fill="url(#radialGradient5622)" fill-opacity="1" fill-rule="nonzero" stroke="none" stroke-width=".7" d="m -0.00190108,15.981486 c 2.09101738,0 3.67790858,0.28908 3.97836028,-1.477034 0.2420956,-1.423244 -1.4436404,-2.105208 -2.2790058,-0.834627 -0.8047259,1.223971 -1.69935448,2.311661 -1.69935448,2.311661 z" display="inline" overflow="visible" visibility="visible" style="marker:none"/><path id="path5640" fill="url(#linearGradient6434)" fill-opacity="1" fill-rule="nonzero" stroke="url(#linearGradient6436)" stroke-dasharray="none" stroke-dashoffset="0" stroke-linecap="round" stroke-linejoin="miter" stroke-miterlimit="4" stroke-opacity="1" stroke-width="1" d="m 11.812656,2.5011642 c -1.289339,0.043526 -2.3124436,0.5266226 -2.3124436,1.1091806 0,0.1384755 0,1.6417864 0,1.7802652 0,0.6112076 1.1261836,1.1091776 2.5051436,1.1091776 1.379017,0 2.494432,-0.49797 2.494432,-1.1091776 0,-0.1384788 0,-1.6417897 0,-1.7802652 0,-0.6112077 -1.115415,-1.1091806 -2.494432,-1.1091806 -0.06465,0 -0.129319,-0.00214 -0.1927,0 z" display="inline" enable-background="new" overflow="visible" visibility="visible" style="marker:none"/><path id="path5642" fill="url(#linearGradient6431)" fill-opacity="1" fill-rule="nonzero" stroke="#828282" stroke-dasharray="none" stroke-dashoffset="0" stroke-linecap="round" stroke-linejoin="miter" stroke-miterlimit="4" stroke-opacity="1" stroke-width="1" d="M 8.4998149,14.335376 8.5963385,6.7620795 9.8875461,5.6207611 c 1.4639249,-0.153137 2.8674129,-0.1691867 4.1892199,0 l 1.340169,1.1413184 0.08325,7.7381055 -7.0003701,-0.164809 z" display="inline" enable-background="new" overflow="visible" visibility="visible" style="marker:none"/><path id="path5646" fill="url(#linearGradient6428)" fill-opacity="1" fill-rule="nonzero" stroke="none" stroke-width="1" d="M 9.154,7.3721214 9,11 c 0.6100343,-0.492202 5.137128,-0.786742 5.999784,-0.03265 L 14.9,7.3721214 c -0.512971,-0.435055 -4.732055,-0.5537329 -5.746,0 z" display="inline" enable-background="new" overflow="visible" visibility="visible" style="marker:none"/><path id="path5648" fill="none" stroke="url(#radialGradient6425)" stroke-dasharray="none" stroke-dashoffset="0" stroke-linecap="round" stroke-linejoin="miter" stroke-miterlimit="4" stroke-opacity="1" stroke-width="1" d="m 9.5000361,14.499964 0.1361809,-7.2791425 0.72005,-0.620527 c 1.012549,-0.1461041 2.313632,-0.135174 3.326183,0.050249 l 0.685094,0.5702777 0.13242,7.2706498 -4.9999279,0.0085 z" display="inline" enable-background="new" opacity=".6" overflow="visible" visibility="visible" style="marker:none"/><rect stroke-linecap="round" style="marker:none" id="rect5650" width="7" height="2" x="8.5" y="13.5" fill="url(#linearGradient6422)" fill-opacity="1" fill-rule="nonzero" stroke="#828282" stroke-dasharray="none" stroke-dashoffset="0" stroke-linejoin="miter" stroke-miterlimit="4" stroke-opacity="1" stroke-width="1" display="inline" enable-background="new" overflow="visible" rx=".31" ry=".45" visibility="visible"/></g></svg>