<svg xmlns="http://www.w3.org/2000/svg" xmlns:svg="http://www.w3.org/2000/svg" xmlns:xlink="http://www.w3.org/1999/xlink" id="svg3272" width="16" height="16" version="1.0"><defs id="defs3274"><linearGradient id="linearGradient4559-3-4-562-226"><stop id="stop2918" offset="0" stop-color="#8f8f8f" stop-opacity="1"/><stop id="stop2920" offset="1" stop-color="#afafaf" stop-opacity="1"/></linearGradient><linearGradient id="linearGradient2842" x1="17.289" x2="15.18" y1="2.185" y2="5.821" gradientTransform="matrix(0.547965,0,0,0.6824617,3.721122,5.156396)" gradientUnits="userSpaceOnUse" xlink:href="#linearGradient4559-3-4-562-226"/><linearGradient id="linearGradient8589-0-2-885-13"><stop id="stop2912" offset="0" stop-color="#fefefe" stop-opacity="1"/><stop id="stop2914" offset="1" stop-color="#cbcbcb" stop-opacity="1"/></linearGradient><linearGradient id="linearGradient2840" x1="32.892" x2="36.358" y1="8.059" y2="5.457" gradientTransform="matrix(0.2967948,0,0,0.355083,3.205921,4.9503907)" gradientUnits="userSpaceOnUse" xlink:href="#linearGradient8589-0-2-885-13"/><linearGradient id="linearGradient3600-4-0-797-101"><stop id="stop2906" offset="0" stop-color="#f4f4f4" stop-opacity="1"/><stop id="stop2908" offset="1" stop-color="#dbdbdb" stop-opacity="1"/></linearGradient><linearGradient id="linearGradient2847" x1="25.132" x2="25.132" y1="6.729" y2="47.013" gradientTransform="matrix(0.2858492,0,0,0.2889939,3.639618,3.0645207)" gradientUnits="userSpaceOnUse" xlink:href="#linearGradient3600-4-0-797-101"/><linearGradient id="linearGradient2687" x1="18.031" x2="20.055" y1="16.408" y2="24.628" gradientTransform="matrix(0.2966887,0,0,0.3520695,1.8805021,2.1186294)" gradientUnits="userSpaceOnUse" xlink:href="#linearGradient8265-821-176-38-919-66-249"/><linearGradient id="linearGradient2692" x1="10.318" x2="4.176" y1="14.993" y2="4.051" gradientTransform="matrix(1.0083043,0,0,1.0006232,-8.2398426e-4,-0.0066205)" gradientUnits="userSpaceOnUse" xlink:href="#linearGradient3390-178-986-453"/><linearGradient id="linearGradient2690" x1="126.698" x2="169.23" y1="58.583" y2="238.4" gradientTransform="matrix(0.05489342,0.01385132,0.00257263,0.05248166,-0.7128009,-0.2674105)" gradientUnits="userSpaceOnUse" xlink:href="#linearGradient7012-661-145-733-759-865-745-661-970-94"/><radialGradient id="radialGradient2677" cx="605.714" cy="486.648" r="117.143" fx="605.714" fy="486.648" gradientTransform="matrix(-2.774389,0,0,1.969706,112.7623,-872.8854)" gradientUnits="userSpaceOnUse" xlink:href="#linearGradient5060"/><radialGradient id="radialGradient2675" cx="605.714" cy="486.648" r="117.143" fx="605.714" fy="486.648" gradientTransform="matrix(2.774389,0,0,1.969706,-1891.633,-872.8854)" gradientUnits="userSpaceOnUse" xlink:href="#linearGradient5060"/><linearGradient id="linearGradient2673" x1="302.857" x2="302.857" y1="366.648" y2="609.505" gradientTransform="matrix(2.774389,0,0,1.969706,-1892.179,-872.8854)" gradientUnits="userSpaceOnUse" xlink:href="#linearGradient5048"/><linearGradient id="linearGradient5060"><stop id="stop5062" offset="0" stop-color="#000" stop-opacity="1"/><stop id="stop5064" offset="1" stop-color="#000" stop-opacity="0"/></linearGradient><linearGradient id="linearGradient5048"><stop id="stop5050" offset="0" stop-color="#000" stop-opacity="0"/><stop id="stop5056" offset=".5" stop-color="#000" stop-opacity="1"/><stop id="stop5052" offset="1" stop-color="#000" stop-opacity="0"/></linearGradient><linearGradient id="linearGradient3390-178-986-453"><stop id="stop3624" offset="0" stop-color="#bb2b12" stop-opacity="1"/><stop id="stop3626" offset="1" stop-color="#cd7233" stop-opacity="1"/></linearGradient><linearGradient id="linearGradient7012-661-145-733-759-865-745-661-970-94"><stop id="stop3618" offset="0" stop-color="#edb763" stop-opacity="1"/><stop id="stop3270" offset=".5" stop-color="#de7f32" stop-opacity="1"/><stop id="stop3620" offset="1" stop-color="#d24413" stop-opacity="1"/></linearGradient><linearGradient id="linearGradient8265-821-176-38-919-66-249"><stop id="stop2687" offset="0" stop-color="#fff" stop-opacity=".275"/><stop id="stop2689" offset="1" stop-color="#fff" stop-opacity=".078"/></linearGradient></defs><g id="layer1"><g id="layer6" transform="matrix(0.3639508,0,0,0.3445682,-0.6448509,-0.3854516)"><g id="g2488" display="inline" transform="matrix(0.02165152,0,0,0.01485743,43.0076,42.68539)"><rect id="rect2490" width="1339.633" height="478.357" x="-1559.252" y="-150.697" fill="url(#linearGradient2673)" fill-opacity="1" fill-rule="nonzero" stroke="none" stroke-width="1" display="inline" opacity=".402" overflow="visible" visibility="visible" style="marker:none"/><path id="path2492" fill="url(#radialGradient2675)" fill-opacity="1" fill-rule="nonzero" stroke="none" stroke-width="1" d="m -219.61876,-150.68038 c 0,0 0,478.33079 0,478.33079 142.874166,0.90045 345.40022,-107.16966 345.40014,-239.196175 0,-132.026537 -159.436816,-239.134595 -345.40014,-239.134615 l 0,0 z" display="inline" opacity=".402" overflow="visible" visibility="visible" style="marker:none"/><path id="path2494" fill="url(#radialGradient2677)" fill-opacity="1" fill-rule="nonzero" stroke="none" stroke-width="1" d="m -1559.2523,-150.68038 c 0,0 0,478.33079 0,478.33079 -142.8742,0.90045 -345.4002,-107.16966 -345.4002,-239.196175 0,-132.026537 159.4368,-239.134595 345.4002,-239.134615 l 0,0 z" display="inline" opacity=".402" overflow="visible" visibility="visible" style="marker:none"/></g></g><path id="rect2196" fill="#fff" fill-opacity="1" stroke="#a8a8a8" stroke-dasharray="none" stroke-linecap="round" stroke-linejoin="round" stroke-miterlimit="4" stroke-opacity="1" stroke-width=".979" d="m 0.60149736,1.5214532 c -0.056258,0 -0.104488,0.060345 -0.104488,0.122673 0,4.6045693 0.003374,8.6511918 -6.5534e-4,12.8572538 C 5.2026801,14.47741 9.9114628,14.45312 14.61887,14.43586 c -0.417129,0 -1.112329,-0.07009 -1.102384,-0.940487 0.0035,-3.5970295 0.02296,-7.4083529 0.01078,-10.9808559 l -6.0519488,0 c -0.4774881,0 -1.0962577,-0.9930629 -1.5260835,-0.9930629 l -5.34773334,0 -3e-6,-10e-7 z" display="inline"/><path id="rect3086" fill="url(#linearGradient2690)" fill-opacity="1" stroke="url(#linearGradient2692)" stroke-dasharray="none" stroke-linecap="round" stroke-linejoin="round" stroke-miterlimit="4" stroke-opacity="1" stroke-width=".953" d="m 2.5253881,4.5240135 c 0.656364,0 12.4800419,0.031393 12.9890009,0.031393 0,0.615413 -0.02468,9.9580745 -0.05407,9.9580745 -4.558843,0.01775 -11.6593999,-0.01389 -12.9868139,-0.01389 0,-1.161471 0.05188,-7.5853285 0.05188,-9.9755725 l 3e-6,-5e-6 z" display="inline"/><path id="path2509" fill="url(#linearGradient2687)" fill-opacity="1" fill-rule="evenodd" stroke="none" d="m 2.8354689,4.0000008 c -0.4565886,0 -0.834437,0.4483788 -0.834437,0.9901955 l 0,5.6331117 c 0.00175,0.100774 0.044034,0.21567 0.1112582,0.286057 0.067223,0.07039 0.1531492,0.100083 0.2503311,0.08802 0.00309,9.4e-5 0.00618,9.4e-5 0.00927,0 L 15.722884,8.4888869 c 0.154804,-0.028972 0.275982,-0.1881213 0.278146,-0.3740738 l 0,-3.1246168 c 0,-0.5418167 -0.377849,-0.9901955 -0.834437,-0.9901955 l -12.3311241,0 0,0 z"/><path id="path2406" fill="none" stroke="#fff" stroke-linecap="butt" stroke-linejoin="miter" stroke-opacity="1" stroke-width="1" d="m 3.4989691,13.999999 0,-8.499999 11.4999999,0" opacity=".35"/></g><path id="rect2594" fill="url(#linearGradient2847)" fill-opacity="1" stroke="#999" stroke-dasharray="none" stroke-dashoffset="0" stroke-linecap="butt" stroke-linejoin="round" stroke-miterlimit="4" stroke-opacity="1" stroke-width=".995" d="m 6.5,5.5 c 2.292593,0 2.920302,0 5.212898,0 0.402172,0.1402717 3.225282,3.091495 3.789475,4.198 0,3.386632 0,2.417738 0,5.804373 -3.334913,0 -5.667459,0 -9.002373,0 L 6.5,5.5 z" display="inline"/><path id="path12038" fill="url(#linearGradient2840)" fill-opacity="1" fill-rule="evenodd" stroke="url(#linearGradient2842)" stroke-dasharray="none" stroke-linecap="butt" stroke-linejoin="round" stroke-miterlimit="4" stroke-opacity="1" stroke-width=".995" d="m 11.497626,5.4976269 c 0,1.5443869 0,4.0047464 0,4.0047464 0,0 3.266995,0 4.004747,0 0,-1.9030829 -2.406446,-4.0047464 -4.004747,-4.0047464 l 0,0 z" display="inline"/><path id="path2609" fill="none" stroke="#bebebe" stroke-linecap="butt" stroke-linejoin="miter" stroke-opacity="1" stroke-width="1" d="m 9.0000066,8.5 1.6559934,0 -1.6559934,0 z m 0,3 2.9999934,0 -2.9999934,0 z m 4.6251294,0 -0.375136,0 0.375136,0 z m -4.6251294,1.962754 1.5937944,0 -1.5937944,0 z m 3.0939934,0 0.90623,0 -0.90623,0 z"/></svg>