<svg xmlns="http://www.w3.org/2000/svg" xmlns:svg="http://www.w3.org/2000/svg" xmlns:xlink="http://www.w3.org/1999/xlink" id="svg3247" width="16" height="16" version="1.0"><defs id="defs3249"><linearGradient id="linearGradient2264"><stop id="stop2266" offset="0" stop-color="#d7e866" stop-opacity="1"/><stop id="stop2268" offset="1" stop-color="#8cab2a" stop-opacity="1"/></linearGradient><linearGradient id="linearGradient2401" x1="24.104" x2="24.104" y1="15.181" y2="34.225" gradientTransform="matrix(0.709648,0,0,0.7053673,-8.9450299,-8.2362938)" gradientUnits="userSpaceOnUse" xlink:href="#linearGradient2264"/><linearGradient id="linearGradient3180"><stop id="stop3182" offset="0" stop-color="#fff" stop-opacity="1"/><stop id="stop3184" offset="1" stop-color="#fff" stop-opacity="0"/></linearGradient><linearGradient id="linearGradient3190" x1="8" x2="8" y1="0" y2="16.004" gradientUnits="userSpaceOnUse" xlink:href="#linearGradient3180"/></defs><g id="layer1"><path id="path2262" fill="url(#linearGradient2401)" fill-opacity="1" fill-rule="evenodd" stroke="#699536" stroke-dasharray="none" stroke-linecap="butt" stroke-linejoin="round" stroke-miterlimit="4" stroke-opacity="1" stroke-width="1" d="m 5.5,5.5 0,-5 5,0 0,5 5,0 0,5 -5,0 0,5 -5,0 0,-5 -5,0 0,-5 5,0 z" display="inline"/><path id="path3188" fill="none" stroke="url(#linearGradient3190)" stroke-dasharray="none" stroke-linecap="butt" stroke-linejoin="miter" stroke-miterlimit="4" stroke-opacity="1" stroke-width="1" d="m 6.5,1.5 0,4 c -0.00481,0.5502805 -0.4497195,0.995191 -1,1 l -4,0 0,3 4,0 c 0.5502805,0.00481 0.995191,0.4497195 1,1 l 0,4 3,0 0,-4 c 0.00481,-0.5502805 0.4497195,-0.995191 1,-1 l 4,0 0,-3 -4,0 C 9.9497195,6.495191 9.504809,6.0502805 9.5,5.5 l 0,-4 -3,0 z" display="inline" opacity=".4"/></g></svg>