<svg xmlns="http://www.w3.org/2000/svg" xmlns:svg="http://www.w3.org/2000/svg" xmlns:xlink="http://www.w3.org/1999/xlink" id="svg2528" width="16" height="16" version="1.0"><defs id="defs2530"><linearGradient id="linearGradient4873"><stop id="stop4875" offset="0" stop-color="#fff" stop-opacity="1"/><stop id="stop4877" offset="1" stop-color="#fff" stop-opacity="0"/></linearGradient><linearGradient id="linearGradient2406" x1="63.397" x2="63.397" y1="-12.489" y2="5.468" gradientTransform="matrix(0.7432394,0,0,0.7432224,-38.229789,10.609333)" gradientUnits="userSpaceOnUse" xlink:href="#linearGradient4873"/><linearGradient id="linearGradient2490"><stop id="stop2492" offset="0" stop-color="#791235" stop-opacity="1"/><stop id="stop2494" offset="1" stop-color="#dd3b27" stop-opacity="1"/></linearGradient><linearGradient id="linearGradient2411" x1="18.379" x2="18.379" y1="44.98" y2="3.082" gradientTransform="matrix(0.3685738,0,0,0.3685738,-0.84577,-0.8457701)" gradientUnits="userSpaceOnUse" xlink:href="#linearGradient2490"/><linearGradient id="linearGradient3242"><stop id="stop3244" offset="0" stop-color="#f8b17e" stop-opacity="1"/><stop id="stop3246" offset=".262" stop-color="#e35d4f" stop-opacity="1"/><stop id="stop3248" offset=".661" stop-color="#c6262e" stop-opacity="1"/><stop id="stop3250" offset="1" stop-color="#690b54" stop-opacity="1"/></linearGradient><radialGradient id="radialGradient2409" cx="23.896" cy="3.99" r="20.397" fx="23.896" fy="3.99" gradientTransform="matrix(0,0.8796593,-1.1611346,0,12.632931,-21.08413)" gradientUnits="userSpaceOnUse" xlink:href="#linearGradient3242"/></defs><g id="layer1"><g id="g2552"><path id="path2555" fill="url(#radialGradient2409)" fill-opacity="1" stroke="url(#linearGradient2411)" stroke-dasharray="none" stroke-dashoffset="0" stroke-linecap="round" stroke-linejoin="round" stroke-miterlimit="4" stroke-opacity="1" stroke-width="1.004" d="M 8.0000011,0.50182787 C 3.862769,0.50182787 0.501827,3.862767 0.501827,7.9999996 C 0.501827,12.137233 3.862769,15.498175 8.0000011,15.498172 C 12.137232,15.498172 15.498177,12.137233 15.498173,7.9999996 C 15.498173,3.862767 12.137232,0.50182787 8.0000011,0.50182787 z"/><path id="path2463" fill="none" fill-opacity="1" fill-rule="nonzero" stroke="url(#linearGradient2406)" stroke-dasharray="none" stroke-miterlimit="4" stroke-opacity="1" stroke-width="1" d="M 14.500001,7.9997709 C 14.500001,11.589737 11.589636,14.5 8.0000818,14.5 C 4.4101984,14.5 1.5000001,11.589705 1.5000001,7.9997709 C 1.5000001,4.4099703 4.4101984,1.5000014 8.0000818,1.5000014 C 11.589636,1.5000014 14.500001,4.4099703 14.500001,7.9997709 L 14.500001,7.9997709 z" opacity=".4"/></g><path id="path3243" fill="#000" fill-opacity="1" fill-rule="evenodd" stroke="none" stroke-dasharray="none" stroke-linecap="round" stroke-linejoin="round" stroke-miterlimit="4" stroke-opacity="1" stroke-width="1" d="M 5.2624588,2.9999997 L 4.0000004,4.2624583 L 6.6046516,6.8538207 C 6.68467,6.9348479 6.68467,7.0651527 6.6046516,7.1461791 L 4.0000004,9.7375411 L 5.2624588,11 L 7.8538212,8.4086383 C 7.9348476,8.3286199 8.0651524,8.3286199 8.1461796,8.4086383 L 10.737542,11 L 12,9.7375411 L 9.408638,7.1461791 C 9.3286204,7.0651527 9.3286204,6.9348479 9.408638,6.8538207 L 12,4.2624583 L 10.737542,2.9999997 L 8.1461796,5.591362 C 8.0651524,5.6713803 7.9348476,5.6713803 7.8538212,5.591362 L 5.2624588,2.9999997 z" opacity=".2"/><path id="path3256" fill="#fff" fill-opacity="1" fill-rule="evenodd" stroke="none" stroke-dasharray="none" stroke-linecap="round" stroke-linejoin="round" stroke-miterlimit="4" stroke-opacity="1" stroke-width="1" d="M 5.2624588,4.0000006 L 4.0000004,5.262459 L 6.6046516,7.8538205 C 6.68467,7.9348477 6.68467,8.0651525 6.6046516,8.1461797 L 4.0000004,10.737542 L 5.2624588,12 L 7.8538212,9.4086377 C 7.9348476,9.3286197 8.0651524,9.3286197 8.1461796,9.4086377 L 10.737542,12 L 12,10.737542 L 9.408638,8.1461797 C 9.3286204,8.0651525 9.3286204,7.9348477 9.408638,7.8538205 L 12,5.262459 L 10.737542,4.0000006 L 8.1461796,6.5913621 C 8.0651524,6.6713805 7.9348476,6.6713805 7.8538212,6.5913621 L 5.2624588,4.0000006 z"/></g></svg>