<svg xmlns="http://www.w3.org/2000/svg" xmlns:svg="http://www.w3.org/2000/svg" id="svg4144" width="256" height="256" version="1.1" viewBox="0 0 256 256"><title id="title4164">Function</title><defs id="defs4146"><filter id="filter4140" color-interpolation-filters="sRGB"><feFlood id="feFlood4142" flood-color="#000" flood-opacity=".498" result="flood"/><feComposite id="feComposite4144" in="flood" in2="SourceGraphic" operator="in" result="composite1"/><feGaussianBlur id="feGaussianBlur4146" in="composite1" result="blur" stdDeviation="3"/><feOffset id="feOffset4148" dx="0" dy="0" result="offset"/><feComposite id="feComposite4150" in="SourceGraphic" in2="offset" operator="over" result="composite2"/></filter></defs><metadata id="metadata4149"/><g id="layer1" transform="translate(0,-796.36216)"><rect id="rect4152" width="253" height="253" x="1.494" y="797.856" fill="#c3caeb" fill-opacity="1" fill-rule="evenodd" stroke="#000" stroke-dasharray="none" stroke-miterlimit="4" stroke-opacity="1" stroke-width=".988" opacity="1" rx="64" ry="64"/><flowRoot id="flowRoot4154" fill="#131f5a" fill-opacity="1" stroke="none" stroke-linecap="butt" stroke-linejoin="miter" stroke-opacity="1" stroke-width="1" font-family="sans-serif" font-size="15" font-stretch="normal" font-style="normal" font-variant="normal" font-weight="normal" letter-spacing="0" text-anchor="start" transform="matrix(17.294818,0,0,13.077876,-616.5619,232.07091)" word-spacing="0" writing-mode="lr-tb" xml:space="preserve" style="line-height:125%;-inkscape-font-specification:'sans-serif, Normal';text-align:start"><flowRegion id="flowRegion4156"><rect id="rect4158" width="54.447" height="54.094" x="39.952" y="43.161" fill="#131f5a" fill-opacity="1" stroke="none" stroke-opacity="1" font-family="sans-serif" font-size="15" font-stretch="normal" font-style="normal" font-variant="normal" font-weight="normal" text-anchor="start" writing-mode="lr-tb" style="line-height:125%;-inkscape-font-specification:'sans-serif, Normal';text-align:start"/></flowRegion><flowPara id="flowPara4160" font-weight="normal">f</flowPara></flowRoot><path id="path4168" fill="#9dd09a" fill-opacity="1" fill-rule="evenodd" stroke="#5dbe57" stroke-dasharray="none" stroke-miterlimit="4" stroke-opacity="1" stroke-width="5" d="m 188.41896,1034.5454 c -16.08768,-2.0323 -29.81242,-13.6865 -34.28204,-29.1102 -1.26574,-4.3678 -1.64676,-7.16833 -1.63675,-12.03021 0.019,-9.20974 2.61589,-17.17768 7.9402,-24.36221 10.74163,-14.49455 29.24652,-20.28584 46.40967,-14.52436 5.74684,1.92915 10.83813,5.16047 15.54145,9.86379 6.37426,6.37426 10.21061,13.79979 11.62022,22.49175 2.14662,13.23654 -2.11277,26.41754 -11.60828,35.92254 -8.96941,8.9783 -21.53322,13.3218 -33.98447,11.7489 z" filter="url(#filter4140)" opacity="1"/></g></svg>