<svg xmlns="http://www.w3.org/2000/svg" xmlns:svg="http://www.w3.org/2000/svg" xmlns:xlink="http://www.w3.org/1999/xlink" id="svg2" width="24" height="24" version="1.0"><defs id="defs4"><linearGradient id="linearGradient5128"><stop id="stop5130" offset="0" stop-color="#eee" stop-opacity="1"/><stop id="stop5132" offset="1" stop-color="#a2a2a2" stop-opacity="1"/></linearGradient><linearGradient id="linearGradient3241" x1="86.133" x2="84.639" y1="105.105" y2="20.895" gradientTransform="matrix(0.1562313,0,0,0.1562313,2.0012016,2.1574324)" gradientUnits="userSpaceOnUse" xlink:href="#linearGradient5128"/><linearGradient id="linearGradient3397"><stop id="stop3399" offset="0" stop-color="#aaa" stop-opacity="1"/><stop id="stop3401" offset="1" stop-color="#8c8c8c" stop-opacity="1"/></linearGradient><linearGradient id="linearGradient3228" x1="40" x2="40" y1="1" y2="23.02" gradientTransform="translate(-24.5,0)" gradientUnits="userSpaceOnUse" xlink:href="#linearGradient3397"/><linearGradient id="linearGradient3309" x1="63.999" x2="63.999" y1="3.1" y2="122.899" gradientUnits="userSpaceOnUse"><stop id="stop3311" offset="0" stop-color="#f6f6f6" stop-opacity="1"/><stop id="stop3313" offset="1" stop-color="#d2d2d2" stop-opacity="1"/></linearGradient><linearGradient id="linearGradient3218" x1="34" x2="34" y1="1" y2="23" gradientTransform="translate(-24.5,0)" gradientUnits="userSpaceOnUse" xlink:href="#linearGradient3309"/><linearGradient id="linearGradient10691"><stop id="stop10693" offset="0" stop-color="#000" stop-opacity="1"/><stop id="stop10695" offset="1" stop-color="#000" stop-opacity="0"/></linearGradient><radialGradient id="radialGradient2411" cx="6.703" cy="73.616" r="7.228" fx="6.703" fy="73.616" gradientTransform="matrix(1.660115,0,0,0.3458573,0.8727276,-3.9605294)" gradientUnits="userSpaceOnUse" xlink:href="#linearGradient10691"/></defs><g id="layer1"><g id="g2486"><path id="path10689" fill="url(#radialGradient2411)" fill-opacity="1" fill-rule="nonzero" stroke="none" stroke-width=".8" d="m 24.000001,21.5 c 0,1.380712 -5.372583,2.5 -12,2.5 C 5.3725835,24 3e-7,22.880712 3e-7,21.5 3e-7,20.119288 5.3725835,19 12.000001,19 c 6.627417,0 12,1.119288 12,2.5 z" display="inline" opacity=".2" overflow="visible" visibility="visible" style="marker:none"/><path id="rect2426" fill="url(#linearGradient3218)" fill-opacity="1" fill-rule="nonzero" stroke="url(#linearGradient3228)" stroke-dasharray="none" stroke-dashoffset="0" stroke-linecap="butt" stroke-linejoin="round" stroke-miterlimit="4" stroke-opacity="1" stroke-width="1" d="M 10.1875,1.5 C 9.799134,1.5 9.5,1.7991339 9.5,2.1875 l 0,1.6875 C 8.988333,4.0322247 8.496816,4.2537684 8.03125,4.5 L 6.84375,3.3125 c -0.274616,-0.2746162 -0.725384,-0.2746162 -1,0 L 3.3125,5.84375 c -0.274616,0.2746162 -0.274616,0.7253836 0,1 L 4.5,8.03125 C 4.253769,8.4968155 4.032225,8.9883329 3.875,9.5 l -1.6875,0 C 1.799134,9.5 1.5,9.7991344 1.5,10.1875 l 0,3.625 C 1.5,14.200866 1.799134,14.5 2.1875,14.5 l 1.6875,0 c 0.157225,0.511667 0.378769,1.003185 0.625,1.46875 l -1.1875,1.1875 c -0.274616,0.274616 -0.274616,0.725384 0,1 l 2.53125,2.53125 c 0.274616,0.274616 0.725384,0.274616 1,0 L 8.03125,19.5 C 8.496816,19.746232 8.988333,19.967775 9.5,20.125 l 0,1.6875 c 0,0.388366 0.299135,0.6875 0.6875,0.6875 l 3.625,0 c 0.388366,0 0.6875,-0.299134 0.6875,-0.6875 l 0,-1.6875 c 0.511667,-0.157225 1.003185,-0.378768 1.46875,-0.625 l 1.1875,1.1875 c 0.274616,0.274616 0.725384,0.274616 1,0 l 2.53125,-2.53125 c 0.274616,-0.274616 0.274616,-0.725384 0,-1 L 19.5,15.96875 C 19.746232,15.503185 19.967775,15.011667 20.125,14.5 l 1.6875,0 c 0.388366,0 0.6875,-0.299134 0.6875,-0.6875 l 0,-3.625 C 22.5,9.7991341 22.200866,9.5 21.8125,9.5 l -1.6875,0 C 19.967775,8.9883329 19.746232,8.4968155 19.5,8.03125 l 1.1875,-1.1875 c 0.274616,-0.2746162 0.274616,-0.7253837 0,-1 L 18.15625,3.3125 c -0.274616,-0.2746162 -0.725384,-0.2746162 -1,0 L 15.96875,4.5 C 15.503185,4.2537684 15.011667,4.0322247 14.5,3.875 l 0,-1.6875 C 14.5,1.7991341 14.200866,1.5 13.8125,1.5 l -3.625,0 z M 12,9 c 1.656,0 3,1.344 3,3 0,1.656 -1.344,3 -3,3 -1.656,0 -3,-1.344 -3,-3 0,-1.656 1.344,-3 3,-3 z" display="block" enable-background="accumulate" overflow="visible" visibility="visible" style="marker:none"/><path id="path3315" fill="#000" fill-opacity="1" stroke="none" d="m 12,6 c -3.3084557,-2e-7 -5.9999999,2.6915446 -5.9999999,6 0,3.308455 2.6915442,6 5.9999999,6 3.308455,-1e-6 6,-2.691545 6,-6 0,-3.3084554 -2.691545,-6 -6,-6 z m 0,2.7692308 c 1.783385,0 3.230769,1.4473842 3.230769,3.2307692 0,1.783385 -1.447384,3.230769 -3.230769,3.230769 -1.783385,0 -3.2307692,-1.447384 -3.2307692,-3.230769 0,-1.783385 1.4473842,-3.2307692 3.2307692,-3.2307692 z" opacity=".05"/><path id="path28" fill="none" stroke="url(#linearGradient3241)" stroke-dasharray="none" stroke-miterlimit="4" stroke-width="1" d="m 11.999999,5.4999995 c -3.5840997,0 -6.4999994,2.9158997 -6.4999994,6.4999995 C 5.4999996,15.5841 8.4158993,18.5 11.999999,18.5 15.584101,18.5 18.5,15.5841 18.5,11.999999 18.5,8.4158992 15.584101,5.4999995 11.999999,5.4999995 z"/></g></g></svg>