<svg xmlns="http://www.w3.org/2000/svg" xmlns:svg="http://www.w3.org/2000/svg" xmlns:xlink="http://www.w3.org/1999/xlink" id="svg2" width="24" height="24" version="1.0"><defs id="defs4"><linearGradient id="linearGradient3600"><stop id="stop3602" offset="0" stop-color="#f4f4f4" stop-opacity="1"/><stop id="stop3604" offset="1" stop-color="#dbdbdb" stop-opacity="1"/></linearGradient><linearGradient id="linearGradient3931"><stop id="stop3933" offset="0" stop-color="#787a75" stop-opacity="1"/><stop id="stop3935" offset="1" stop-color="#cbcbcb" stop-opacity="1"/></linearGradient><linearGradient id="linearGradient2990" x1="25.132" x2="25.132" y1="6.729" y2="47.013" gradientTransform="matrix(0.51430915,0,0,0.46668502,0.15614952,0.79999059)" gradientUnits="userSpaceOnUse" xlink:href="#linearGradient3600"/><linearGradient id="linearGradient2992" x1="-56.333" x2="-47.636" y1="17.518" y2="-.101" gradientTransform="matrix(0.41530302,0,0,0.43674775,30.711374,0.27987899)" gradientUnits="userSpaceOnUse" xlink:href="#linearGradient3931"/><linearGradient id="linearGradient2906" x1="25.132" x2="25.132" y1="6.729" y2="47.013" gradientTransform="matrix(0.51430915,0,0,0.46668502,-5.8438505,-5.2000094)" gradientUnits="userSpaceOnUse" xlink:href="#linearGradient3600"/><linearGradient id="linearGradient2908" x1="-55.344" x2="-51.786" y1="34.058" y2="2.906" gradientTransform="matrix(0.41530302,0,0,0.43674775,24.711374,-5.720121)" gradientUnits="userSpaceOnUse" xlink:href="#linearGradient3931"/></defs><path id="path2904" fill="url(#linearGradient2906)" fill-opacity="1" stroke="url(#linearGradient2908)" stroke-dasharray="none" stroke-dashoffset="0" stroke-linecap="butt" stroke-linejoin="round" stroke-miterlimit="4" stroke-opacity="1" stroke-width=".999" d="m 2.4995695,1.5004305 13.0004305,0 0,14.9999995 -13.0004305,0 0,-14.9999995 z" display="inline"/><path id="rect2594" fill="url(#linearGradient2990)" fill-opacity="1" stroke="url(#linearGradient2992)" stroke-dasharray="none" stroke-dashoffset="0" stroke-linecap="butt" stroke-linejoin="round" stroke-miterlimit="4" stroke-opacity="1" stroke-width=".999" d="m 8.4995695,7.5004305 13.0004305,0 0,14.9999995 -13.0004305,0 0,-14.9999995 z" display="inline"/><path id="path3696" fill="none" stroke="#000" stroke-linecap="square" stroke-linejoin="miter" stroke-opacity="1" stroke-width="1" d="m 10.49957,18.50043 7,0 m -7,-3 8,0 m -8,-3 5,0 m -5,-2.9999995 9,0 M 4.4995695,12.50043 l 3,0 m -3,-2.9999995 3,0 m -3,-3 5,0 m -5,-3 9.0000005,0" opacity=".2"/></svg>