<svg xmlns="http://www.w3.org/2000/svg" xmlns:svg="http://www.w3.org/2000/svg" xmlns:xlink="http://www.w3.org/1999/xlink" id="svg3734" width="24" height="24" version="1.1"><metadata id="metadata29"/><defs id="defs3736"><linearGradient id="linearGradient4456"><stop id="stop4458" offset="0" stop-color="#f6daae" stop-opacity="1"/><stop id="stop4460" offset="1" stop-color="#f0c178" stop-opacity="0"/></linearGradient><linearGradient id="linearGradient3390-178-986-453-4-5"><stop id="stop3624-8-6" offset="0" stop-color="#bb2b12" stop-opacity="1"/><stop id="stop3626-1-1" offset="1" stop-color="#cd7233" stop-opacity="1"/></linearGradient><linearGradient id="linearGradient3732" x1="-55.189" x2="-31.523" y1="191.516" y2="182.48" gradientTransform="matrix(0.92956783,0,0,0.99594396,51.30231,-181.73954)" gradientUnits="userSpaceOnUse" xlink:href="#linearGradient3390-178-986-453-4-5"/><linearGradient id="linearGradient7012-661-145-733-759-865-745-661-970-94-1-0"><stop id="stop3618-1-9" offset="0" stop-color="#f0c178" stop-opacity="1"/><stop id="stop3270-5-6" offset=".5" stop-color="#e18941" stop-opacity="1"/><stop id="stop3620-9-3" offset="1" stop-color="#ec4f18" stop-opacity="1"/></linearGradient><linearGradient id="linearGradient4322" x1="-31.523" x2="-55.189" y1="182.48" y2="191.516" gradientTransform="matrix(0.92956783,0,0,0.99594396,51.30231,-181.73954)" gradientUnits="userSpaceOnUse" xlink:href="#linearGradient7012-661-145-733-759-865-745-661-970-94-1-0"/><linearGradient id="linearGradient4324" x1="-31.523" x2="-55.189" y1="182.48" y2="191.516" gradientTransform="matrix(0.92956783,0,0,0.99594396,51.30231,-181.73954)" gradientUnits="userSpaceOnUse" xlink:href="#linearGradient7012-661-145-733-759-865-745-661-970-94-1-0"/><linearGradient id="linearGradient4452" x1="-55.189" x2="-31.523" y1="191.516" y2="182.48" gradientTransform="matrix(0.92956783,0,0,0.99594396,51.30231,-181.73954)" gradientUnits="userSpaceOnUse" xlink:href="#linearGradient3390-178-986-453-4-5"/><linearGradient id="linearGradient4462" x1="22" x2="0" y1="0" y2="9" gradientUnits="userSpaceOnUse" xlink:href="#linearGradient4456"/><linearGradient id="linearGradient3026" x1="22" x2="0" y1="0" y2="9" gradientUnits="userSpaceOnUse" xlink:href="#linearGradient4456"/></defs><g id="layer1" transform="matrix(0,-1,1,0,6.9995535,23)"><path id="path3169-2-3" fill="none" stroke="url(#linearGradient3732)" stroke-dasharray="none" stroke-linecap="round" stroke-linejoin="round" stroke-miterlimit="4" stroke-opacity="1" stroke-width="5" d="M 8.4801887,-1.4935535 2.5,4.99993 8.4801887,11.493553" display="inline" enable-background="new"/><path id="path3765" fill="none" stroke="url(#linearGradient4452)" stroke-dasharray="none" stroke-linecap="round" stroke-linejoin="round" stroke-miterlimit="4" stroke-opacity="1" stroke-width="6" d="M 19,5 6.5,4.99993" display="inline" enable-background="new"/><path id="path4277" fill="none" stroke="url(#linearGradient4322)" stroke-dasharray="none" stroke-linecap="round" stroke-linejoin="round" stroke-miterlimit="4" stroke-opacity="1" stroke-width="3" d="M 8.5110963,-1.4553562 2.5,4.99993 8.5111593,11.455172" display="inline" enable-background="new"/><path id="path4279" fill="none" stroke="url(#linearGradient4324)" stroke-dasharray="none" stroke-linecap="round" stroke-linejoin="round" stroke-miterlimit="4" stroke-opacity="1" stroke-width="4" d="M 19,5 6.5,4.99993" display="inline" enable-background="new"/><path id="path4454" fill="none" stroke="url(#linearGradient3026)" stroke-dasharray="none" stroke-linecap="round" stroke-linejoin="round" stroke-miterlimit="4" stroke-opacity="1" stroke-width="1" d="M 8.9730739,10.404756 6.5,8 C 5.4860937,7.0141025 6.5,6.5 8,6.5 l 10.5,0 c 3,0 2.5,-3 0,-3 l -10,0 c -1.5,0 -3,0 -2,-1.5 l 2.4047563,-2.33816824 c 1.4999997,-1.99999996 -0.5,-2.49999996 -1.5,-1.49999996 L 2,4 C 1.5,4.5 1.4724356,5.3333333 2,6 l 5.4730739,5.904756 c 1,1 3.0208581,-0.02115 1.5,-1.5 z" display="inline" enable-background="new" opacity=".4"/><path id="path4464" fill="none" stroke="url(#linearGradient4462)" stroke-dasharray="none" stroke-linecap="round" stroke-linejoin="round" stroke-miterlimit="4" stroke-opacity="1" stroke-width="1" d="m 6.5,2 2.3342767,-2.33643868 c 1.5000003,-2.00000002 -0.5,-2.50000002 -1.5,-1.50000002 L 2,4 C 1.5,4.5 1.4724356,5.3333333 2,6 l 5.4735063,5.973074 c 1,1 3.0001307,-1.32e-4 1.5,-1.5 L 6.5,8" display="inline" enable-background="new" opacity=".4"/><path id="path4466" fill="none" stroke="#f6daae" stroke-dasharray="none" stroke-linecap="round" stroke-linejoin="round" stroke-miterlimit="4" stroke-opacity="1" stroke-width="1" d="M 9.1415182,-0.6468307 6.3063674,2.3669234" display="inline" enable-background="new" opacity=".51"/></g></svg>