<svg xmlns="http://www.w3.org/2000/svg" xmlns:svg="http://www.w3.org/2000/svg" xmlns:xlink="http://www.w3.org/1999/xlink" id="svg3287" width="24" height="24" version="1.0"><defs id="defs3289"><linearGradient id="linearGradient8265-821-176-38-919-66-249-0-7"><stop id="stop2687-4-1" offset="0" stop-color="#fff" stop-opacity=".275"/><stop id="stop2689-2-2" offset="1" stop-color="#fff" stop-opacity=".078"/></linearGradient><linearGradient id="linearGradient3001-8-3" x1="18.031" x2="20.055" y1="16.408" y2="24.628" gradientTransform="matrix(0.4450331,0,0,0.3010162,2.855509,8.563845)" gradientUnits="userSpaceOnUse" xlink:href="#linearGradient8265-821-176-38-919-66-249-0-7"/><linearGradient id="linearGradient3752-8-1"><stop id="stop3754-7-5" offset="0" stop-color="#fff" stop-opacity="1"/><stop id="stop3760-0-0" offset=".848" stop-color="#fff" stop-opacity="1"/><stop id="stop3756-4-9" offset="1" stop-color="#fff" stop-opacity="0"/></linearGradient><radialGradient id="radialGradient3004-5-2" cx="4.02" cy="5.593" r="10.273" fx="4.02" fy="5.593" gradientTransform="matrix(-1.680222e-2,1.0430854,-1.79662,-1.619728e-2,14.188571,7.297105)" gradientUnits="userSpaceOnUse" xlink:href="#linearGradient3752-8-1"/><linearGradient id="linearGradient3390-178-986-453"><stop id="stop3624" offset="0" stop-color="#bb2b12" stop-opacity="1"/><stop id="stop3626" offset="1" stop-color="#cd7233" stop-opacity="1"/></linearGradient><linearGradient id="linearGradient3295" x1="9.705" x2="9.705" y1="20.882" y2="4.303" gradientTransform="matrix(0.9945751,0,0,0.7440584,-0.302963,6.9687932)" gradientUnits="userSpaceOnUse" xlink:href="#linearGradient3390-178-986-453"/><linearGradient id="linearGradient7012-661-145-733-759-865-745-661-970-94"><stop id="stop3618" offset="0" stop-color="#f0c178" stop-opacity="1"/><stop id="stop3270" offset=".5" stop-color="#e18941" stop-opacity="1"/><stop id="stop3620" offset="1" stop-color="#ec4f18" stop-opacity="1"/></linearGradient><radialGradient id="radialGradient3293" cx="7.819" cy="8.561" r="11.268" fx="7.819" fy="8.561" gradientTransform="matrix(1.6899516,0,0,0.7807412,-5.412667,6.403202)" gradientUnits="userSpaceOnUse" xlink:href="#linearGradient7012-661-145-733-759-865-745-661-970-94"/><linearGradient id="linearGradient4559"><stop id="stop4561" offset="0" stop-color="silver" stop-opacity="1"/><stop id="stop4563" offset="1" stop-color="#949492" stop-opacity="1"/></linearGradient><linearGradient id="linearGradient3259" x1="17.289" x2="15.18" y1="2.185" y2="5.821" gradientTransform="matrix(0.6844293,0,0,0.6820072,-0.2131519,0.1569169)" gradientUnits="userSpaceOnUse" xlink:href="#linearGradient4559"/><linearGradient id="linearGradient8589"><stop id="stop8591" offset="0" stop-color="#fefefe" stop-opacity="1"/><stop id="stop8593" offset="1" stop-color="#cbcbcb" stop-opacity="1"/></linearGradient><linearGradient id="linearGradient3257" x1="32.892" x2="36.358" y1="8.059" y2="5.457" gradientTransform="matrix(0.3707081,0,0,0.3548465,-0.8566575,-4.895116e-2)" gradientUnits="userSpaceOnUse" xlink:href="#linearGradient8589"/><linearGradient id="linearGradient3931"><stop id="stop3933" offset="0" stop-color="#8d8f8a" stop-opacity="1"/><stop id="stop3935" offset="1" stop-color="#c1c1c1" stop-opacity="1"/></linearGradient><linearGradient id="linearGradient3255" x1="-51.786" x2="-51.786" y1="50.786" y2="2.906" gradientTransform="matrix(0.3000362,0,0,0.3120485,21.157141,-0.3741276)" gradientUnits="userSpaceOnUse" xlink:href="#linearGradient3931"/><linearGradient id="linearGradient3600"><stop id="stop3602" offset="0" stop-color="#f4f4f4" stop-opacity="1"/><stop id="stop3604" offset="1" stop-color="#dbdbdb" stop-opacity="1"/></linearGradient><linearGradient id="linearGradient3253" x1="25.132" x2="25.132" y1="6.729" y2="47.013" gradientTransform="matrix(0.3715633,0,0,0.3334383,-0.9175205,-2.5171e-3)" gradientUnits="userSpaceOnUse" xlink:href="#linearGradient3600"/><linearGradient id="linearGradient5157"><stop id="stop5159" offset="0" stop-color="#c1c1c1" stop-opacity="1"/><stop id="stop5161" offset="1" stop-color="#909090" stop-opacity="1"/></linearGradient><linearGradient id="linearGradient3021" x1="9.876" x2="9.876" y1="2.601" y2="23.062" gradientTransform="translate(3.6304e-2,2.8999999e-7)" gradientUnits="userSpaceOnUse" xlink:href="#linearGradient5157"/><linearGradient id="linearGradient11111"><stop id="stop11113" offset="0" stop-color="#fff" stop-opacity="1"/><stop id="stop11115" offset=".91" stop-color="#cdcdcd" stop-opacity="1"/><stop id="stop11117" offset="1" stop-color="#a1a1a1" stop-opacity="1"/></linearGradient><linearGradient id="linearGradient3019" x1="-28.531" x2="-28.531" y1="17.956" y2="37.503" gradientTransform="translate(34.414308,-14.501322)" gradientUnits="userSpaceOnUse" xlink:href="#linearGradient11111"/><radialGradient id="radialGradient2621" cx="605.714" cy="486.648" r="117.143" fx="605.714" fy="486.648" gradientTransform="matrix(-2.774389,0,0,1.969706,112.7623,-872.8854)" gradientUnits="userSpaceOnUse" xlink:href="#linearGradient5060"/><linearGradient id="linearGradient5060"><stop id="stop5062" offset="0" stop-color="#000" stop-opacity="1"/><stop id="stop5064" offset="1" stop-color="#000" stop-opacity="0"/></linearGradient><radialGradient id="radialGradient2619" cx="605.714" cy="486.648" r="117.143" fx="605.714" fy="486.648" gradientTransform="matrix(2.774389,0,0,1.969706,-1891.633,-872.8854)" gradientUnits="userSpaceOnUse" xlink:href="#linearGradient5060"/><linearGradient id="linearGradient5048"><stop id="stop5050" offset="0" stop-color="#000" stop-opacity="0"/><stop id="stop5056" offset=".5" stop-color="#000" stop-opacity="1"/><stop id="stop5052" offset="1" stop-color="#000" stop-opacity="0"/></linearGradient><linearGradient id="linearGradient2617" x1="302.857" x2="302.857" y1="366.648" y2="609.505" gradientTransform="matrix(2.774389,0,0,1.969706,-1892.179,-872.8854)" gradientUnits="userSpaceOnUse" xlink:href="#linearGradient5048"/></defs><g id="layer1"><g id="g3350"><g id="g3490" stroke-dasharray="none" stroke-miterlimit="4" stroke-width="1.883" transform="matrix(0.5459263,0,0,0.5168524,-0.965732,-0.5781817)"><g id="g5022" stroke-dasharray="none" stroke-miterlimit="4" stroke-width="104.962" display="inline" transform="matrix(2.165152e-2,0,0,1.485743e-2,43.0076,42.68539)"><rect id="rect2527" width="1339.633" height="478.357" x="-1559.252" y="-150.697" fill="url(#linearGradient2617)" fill-opacity="1" fill-rule="nonzero" stroke="none" stroke-width="104.962" display="inline" opacity=".402" overflow="visible" visibility="visible" style="marker:none"/><path id="path2529" fill="url(#radialGradient2619)" fill-opacity="1" fill-rule="nonzero" stroke="none" stroke-width="104.962" d="M -219.61876,-150.68038 C -219.61876,-150.68038 -219.61876,327.65041 -219.61876,327.65041 C -76.744594,328.55086 125.78146,220.48075 125.78138,88.454235 C 125.78138,-43.572302 -33.655436,-150.68036 -219.61876,-150.68038 L -219.61876,-150.68038 z" display="inline" opacity=".402" overflow="visible" visibility="visible" style="marker:none"/><path id="path2531" fill="url(#radialGradient2621)" fill-opacity="1" fill-rule="nonzero" stroke="none" stroke-width="104.962" d="M -1559.2523,-150.68038 C -1559.2523,-150.68038 -1559.2523,327.65041 -1559.2523,327.65041 C -1702.1265,328.55086 -1904.6525,220.48075 -1904.6525,88.454235 C -1904.6525,-43.572302 -1745.2157,-150.68036 -1559.2523,-150.68038 L -1559.2523,-150.68038 z" display="inline" opacity=".402" overflow="visible" visibility="visible" style="marker:none"/></g></g><path id="path3496" fill="url(#linearGradient3019)" fill-opacity="1" stroke="url(#linearGradient3021)" stroke-dasharray="none" stroke-linecap="round" stroke-linejoin="round" stroke-miterlimit="4" stroke-opacity="1" stroke-width="1.011" d="M 0.713585,2.5694953 C 0.628046,2.5694953 0.554716,2.6622423 0.554716,2.7580383 C 0.554716,8.6271983 0.51164,15.002127 0.505573,20.98276 C 0.534657,21.877795 1.042814,22.487902 1.395238,22.491102 C 2.407974,22.500302 1.93451,22.487102 2.443773,22.491102 C 8.914106,22.475002 16.02269,22.412932 22.493021,22.396832 C 22.547231,22.403732 21.016306,22.289107 21.031427,20.951337 C 21.031428,16.27839 20.52938,9.7643453 20.52938,5.0913963 C 20.52938,4.9045183 20.51394,4.8005103 20.49761,4.7143113 C 20.485,4.6477483 20.46891,4.6154413 20.43406,4.5886163 C 20.4062,4.5641653 20.37951,4.5315733 20.33874,4.5257683 L 11.518601,4.5257683 C 10.703285,4.5257683 10.516545,2.5338053 9.304911,2.5338053 L 0.713585,2.5694953 L 0.713585,2.5694953 z" display="inline"/><rect id="rect2545" width="7" height="1" x="2" y="4" fill="#edbd74" fill-opacity="1" fill-rule="nonzero" stroke="none" stroke-width="1" display="block" enable-background="accumulate" overflow="visible" rx=".538" ry=".5" visibility="visible" style="marker:none"/><g id="layer1-9" transform="translate(3.9999996,0.9999995)"><path id="rect2594" fill="url(#linearGradient3253)" fill-opacity="1" stroke="url(#linearGradient3255)" stroke-dasharray="none" stroke-dashoffset="0" stroke-linecap="butt" stroke-linejoin="round" stroke-miterlimit="4" stroke-opacity="1" stroke-width=".995" d="M 1.4976268,0.49762721 C 4.4776718,0.49762721 6.4352686,0.49762721 9.4153155,0.49762721 C 9.9380815,0.65947117 13.769004,3.1112494 14.502374,4.3879238 C 14.502374,8.2953868 14.502374,11.594908 14.502374,15.502374 C 10.16746,15.502374 5.8325402,15.502374 1.4976268,15.502374 C 1.4976268,10.50079 1.4976268,5.4992102 1.4976268,0.49762721 L 1.4976268,0.49762721 z" display="inline"/><path id="path12038" fill="url(#linearGradient3257)" fill-opacity="1" fill-rule="evenodd" stroke="url(#linearGradient3259)" stroke-dasharray="none" stroke-linecap="butt" stroke-linejoin="round" stroke-miterlimit="4" stroke-opacity="1" stroke-width=".995" d="M 9.5,0.4979205 C 9.5,2.041279 9.5,4.5 9.5,4.5 C 9.5,4.5 13.580603,4.5 14.50208,4.5 C 14.50208,2.5981844 11.49634,0.4979205 9.5,0.4979205 L 9.5,0.4979205 z" display="inline"/></g><path id="path3498" fill="url(#radialGradient3293)" fill-opacity="1" stroke="url(#linearGradient3295)" stroke-dasharray="none" stroke-linecap="round" stroke-linejoin="round" stroke-miterlimit="4" stroke-opacity="1" stroke-width="1" d="M 3.535658,10.581714 C 14.10556,10.581714 16.566102,10.582058 23.529163,10.561114 C 23.529163,11.735989 23.787319,22.561114 23.045051,22.561114 C 22.331003,22.561114 8.9994,22.490524 2.036341,22.511474 C 3.508025,22.511474 3.535658,22.045586 3.535658,10.581716 L 3.535658,10.581714 z" display="inline"/><path id="path3211" fill="none" stroke="url(#radialGradient3004-5-2)" stroke-dasharray="none" stroke-linecap="butt" stroke-linejoin="miter" stroke-miterlimit="4" stroke-opacity="1" stroke-width=".981" d="M 22.975103,11.376001 C 22.975103,11.376001 6.143302,11.446031 4.578307,11.306901 C 4.495368,21.652933 4.077359,22.108991 4.077359,22.108991" display="inline" opacity=".4"/><path id="path2608" fill="url(#linearGradient3001-8-3)" fill-opacity="1" fill-rule="evenodd" stroke="none" d="M 4.2879593,10.172401 C 3.6030764,10.172401 3.0363037,10.55576 3.0363037,11.019008 L 3.0363037,15.835268 C 3.0389237,15.921428 3.1023557,16.019664 3.2031911,16.079844 C 3.3040256,16.140024 3.4329148,16.165414 3.5786878,16.155094 C 3.5833178,16.155174 3.5879578,16.155174 3.5925948,16.155094 L 23.619085,14.010357 C 23.851291,13.985587 24.033057,13.849515 24.036303,13.690528 L 24.036303,11.019008 C 24.036303,10.55576 23.46953,10.172401 22.784648,10.172401 L 4.2879593,10.172401 L 4.2879593,10.172401 z"/></g></g></svg>