<svg xmlns="http://www.w3.org/2000/svg" xmlns:svg="http://www.w3.org/2000/svg" xmlns:xlink="http://www.w3.org/1999/xlink" id="svg4602" width="24" height="24" version="1.0"><defs id="defs4604"><radialGradient id="radialGradient4536" cx="605.714" cy="486.648" r="117.143" fx="605.714" fy="486.648" gradientTransform="matrix(-2.774389,0,0,1.969706,112.7623,-872.8854)" gradientUnits="userSpaceOnUse" xlink:href="#linearGradient5060"/><linearGradient id="linearGradient5060"><stop id="stop5062" offset="0" stop-color="#000" stop-opacity="1"/><stop id="stop5064" offset="1" stop-color="#000" stop-opacity="0"/></linearGradient><radialGradient id="radialGradient4534" cx="605.714" cy="486.648" r="117.143" fx="605.714" fy="486.648" gradientTransform="matrix(2.774389,0,0,1.969706,-1891.633,-872.8854)" gradientUnits="userSpaceOnUse" xlink:href="#linearGradient5060"/><linearGradient id="linearGradient5048"><stop id="stop5050" offset="0" stop-color="#000" stop-opacity="0"/><stop id="stop5056" offset=".5" stop-color="#000" stop-opacity="1"/><stop id="stop5052" offset="1" stop-color="#000" stop-opacity="0"/></linearGradient><linearGradient id="linearGradient4532" x1="302.857" x2="302.857" y1="366.648" y2="609.505" gradientTransform="matrix(2.774389,0,0,1.969706,-1892.179,-872.8854)" gradientUnits="userSpaceOnUse" xlink:href="#linearGradient5048"/><linearGradient id="linearGradient3931"><stop id="stop3933" offset="0" stop-color="#8d8f8a" stop-opacity="1"/><stop id="stop3935" offset="1" stop-color="#cbcbcb" stop-opacity="1"/></linearGradient><linearGradient id="linearGradient4547" x1="-51.786" x2="-51.786" y1="50.786" y2="2.906" gradientTransform="matrix(0.4383743,0,0,0.4575444,30.782346,-0.7786496)" gradientUnits="userSpaceOnUse" xlink:href="#linearGradient3931"/><linearGradient id="linearGradient3600"><stop id="stop3602" offset="0" stop-color="#f4f4f4" stop-opacity="1"/><stop id="stop3604" offset="1" stop-color="#dbdbdb" stop-opacity="1"/></linearGradient><linearGradient id="linearGradient4545" x1="25.132" x2="25.132" y1="6.729" y2="47.013" gradientTransform="matrix(0.5428805,0,0,0.4889072,-1.4703092,-0.2337718)" gradientUnits="userSpaceOnUse" xlink:href="#linearGradient3600"/><linearGradient id="linearGradient4873"><stop id="stop4875" offset="0" stop-color="#fff" stop-opacity="1"/><stop id="stop4877" offset="1" stop-color="#fff" stop-opacity="0"/></linearGradient><linearGradient id="linearGradient2502" x1="21.629" x2="22.245" y1="2.11" y2="43.366" gradientTransform="matrix(0.3167426,0,0,0.310739,-3.8023578,0.982695)" gradientUnits="userSpaceOnUse" xlink:href="#linearGradient4873"/><linearGradient id="linearGradient3533"><stop id="stop3535" offset="0" stop-color="#93b9dd" stop-opacity="1"/><stop id="stop3545" offset="1" stop-color="#6396cd" stop-opacity="1"/></linearGradient><linearGradient id="linearGradient2510" x1="15.373" x2="15.373" y1="5.047" y2="22.6" gradientTransform="matrix(0.3167426,0,0,0.310739,-3.8023578,0.982695)" gradientUnits="userSpaceOnUse" xlink:href="#linearGradient3533"/><linearGradient id="linearGradient4559"><stop id="stop4561" offset="0" stop-color="#cacaca" stop-opacity="1"/><stop id="stop4563" offset="1" stop-color="#949492" stop-opacity="1"/></linearGradient><linearGradient id="linearGradient4565" x1="17.289" x2="15.18" y1="2.185" y2="5.821" gradientTransform="translate(-0.44117649,2)" gradientUnits="userSpaceOnUse" xlink:href="#linearGradient4559"/><linearGradient id="linearGradient8589"><stop id="stop8591" offset="0" stop-color="#fefefe" stop-opacity="1"/><stop id="stop8593" offset="1" stop-color="#cbcbcb" stop-opacity="1"/></linearGradient><linearGradient id="linearGradient4543" x1="32.892" x2="36.358" y1="8.059" y2="5.457" gradientTransform="matrix(0.541631,0,0,0.5202974,-1.3813843,1.6981438)" gradientUnits="userSpaceOnUse" xlink:href="#linearGradient8589"/></defs><g id="layer1" transform="translate(0.44117647,0)"><g id="g3490" stroke-dasharray="none" stroke-miterlimit="4" stroke-width="1.883" display="inline" transform="matrix(0.46055693,0,0,0.5168524,2.2998613,-0.5781821)"><g id="g5022" stroke-dasharray="none" stroke-miterlimit="4" stroke-width="104.962" display="inline" transform="matrix(0.02165152,0,0,0.01485743,43.0076,42.68539)"><rect id="rect4173" width="1339.633" height="478.357" x="-1559.252" y="-150.697" fill="url(#linearGradient4532)" fill-opacity="1" fill-rule="nonzero" stroke="none" stroke-width="104.962" display="inline" opacity=".402" overflow="visible" visibility="visible" style="marker:none"/><path id="path5058" fill="url(#radialGradient4534)" fill-opacity="1" fill-rule="nonzero" stroke="none" stroke-width="104.962" d="m -219.61876,-150.68038 c 0,0 0,478.33079 0,478.33079 142.874166,0.90045 345.40022,-107.16966 345.40014,-239.196175 0,-132.026537 -159.436816,-239.134595 -345.40014,-239.134615 z" display="inline" opacity=".402" overflow="visible" visibility="visible" style="marker:none"/><path id="path5018" fill="url(#radialGradient4536)" fill-opacity="1" fill-rule="nonzero" stroke="none" stroke-width="104.962" d="m -1559.2523,-150.68038 c 0,0 0,478.33079 0,478.33079 -142.8742,0.90045 -345.4002,-107.16966 -345.4002,-239.196175 0,-132.026537 159.4368,-239.134595 345.4002,-239.134615 z" display="inline" opacity=".402" overflow="visible" visibility="visible" style="marker:none"/></g></g><path id="rect2594" fill="url(#linearGradient4545)" fill-opacity="1" stroke="url(#linearGradient4547)" stroke-dasharray="none" stroke-dashoffset="0" stroke-linecap="butt" stroke-linejoin="round" stroke-miterlimit="4" stroke-opacity="1" stroke-width=".999" d="m 6.058393,2.4995699 c 4.354059,0 4.708123,10e-8 9.062183,10e-8 0.7638,0.2373053 4.867172,2.9408449 5.938678,4.8127818 0,5.7293572 0,9.4587192 0,15.1880792 -6.333619,0 -8.667243,0 -15.000861,0 l 0,-20.0008611 z" display="inline"/><g id="g9712" display="inline" transform="translate(3.5588235,5)"><path id="path3372" fill="url(#linearGradient2510)" fill-opacity="1" stroke="#538ec6" stroke-dasharray="none" stroke-linecap="butt" stroke-linejoin="round" stroke-miterlimit="4" stroke-opacity="1" stroke-width="1.004" d="M 2.06,10.016632 C 1.5157275,9.4686714 1.0748421,8.7245504 1.0748421,7.9311387 c 0,-1.3656113 1.5327086,-2.8547587 3.0188745,-2.8547587 0.7845985,0 1.5447049,0.1765746 2.1081774,0.7098357 L 4.5,7.5 l 5.997881,0 c 0,0 0,-5.9978758 0,-5.9978758 L 8.655258,3.3318452 C 7.42454,2.1453703 6.001896,1.5236803 4.1855145,1.5040666 c -3.6950948,-0.0399 -6.6421123,2.9131139 -6.682965,6.5221074 0.026821,3.173558 2.04836761,4.819614 4.5804956,6.168911"/><path id="path3370" fill="none" stroke="url(#linearGradient2502)" stroke-dasharray="none" stroke-linecap="butt" stroke-linejoin="miter" stroke-miterlimit="4" stroke-opacity="1" stroke-width="1.004" d="M 1.8974971,11.249758 C 0.7360412,10.437895 0.26441038,9.3032085 0,7.960344 -0.00161958,6.2032966 2.312046,3.9741847 4.1119264,4 4.9990879,4.0127247 6.534992,4.5900861 7.646591,5.6361429 L 6.876843,6.5 9.5,6.5 c 0,0 0,-2.6790505 0,-2.6790505 L 8.701255,4.6539329 C 7.5257,3.3675302 5.9692528,2.5 4.1303702,2.5 0.9171141,2.5 -1.5,5.1084506 -1.5,8.0609425 c 0.082154,2.5132415 1.43857624,4.0178345 3.547068,5.0700135" opacity=".4"/></g><path id="path12038" fill="url(#linearGradient4543)" fill-opacity="1" fill-rule="evenodd" stroke="url(#linearGradient4565)" stroke-dasharray="none" stroke-linecap="butt" stroke-linejoin="round" stroke-miterlimit="4" stroke-opacity="1" stroke-width="1" d="m 15.058824,2.5 c 0,2.262965 0,5 0,5 0,0 4.653658,0 6,0 0,-0.836587 -4.820468,-4.9857176 -6,-5 z" display="inline"/><rect id="rect2874" width="10" height="1" x="8.559" y="14" fill="#babdb6" fill-opacity="1" stroke="none" display="inline" rx=".179" ry=".5"/><rect id="rect2892" width="10" height="1" x="8.559" y="16" fill="#babdb6" fill-opacity="1" stroke="none" display="inline" rx=".179" ry=".5"/><rect id="rect1984" width="10" height="1" x="8.559" y="18" fill="#babdb6" fill-opacity="1" stroke="none" display="inline" rx=".179" ry=".5"/></g></svg>