<svg xmlns="http://www.w3.org/2000/svg" xmlns:svg="http://www.w3.org/2000/svg" xmlns:xlink="http://www.w3.org/1999/xlink" id="svg3386" width="24" height="24" version="1.0"><metadata id="metadata49"/><defs id="defs3388"><linearGradient id="linearGradient5048"><stop id="stop5050" offset="0" stop-color="#000" stop-opacity="0"/><stop id="stop5056" offset=".5" stop-color="#000" stop-opacity="1"/><stop id="stop5052" offset="1" stop-color="#000" stop-opacity="0"/></linearGradient><linearGradient id="linearGradient5060"><stop id="stop5062" offset="0" stop-color="#000" stop-opacity="1"/><stop id="stop5064" offset="1" stop-color="#000" stop-opacity="0"/></linearGradient><linearGradient id="linearGradient3104"><stop id="stop3106" offset="0" stop-color="#aaa" stop-opacity="1"/><stop id="stop3108" offset="1" stop-color="#c8c8c8" stop-opacity="1"/></linearGradient><linearGradient id="linearGradient3600"><stop id="stop3602" offset="0" stop-color="#f4f4f4" stop-opacity="1"/><stop id="stop3604" offset="1" stop-color="#dbdbdb" stop-opacity="1"/></linearGradient><radialGradient id="XMLID_8_" cx="102" cy="112.305" r="139.559" gradientUnits="userSpaceOnUse"><stop id="stop41" offset="0" stop-color="#b7b8b9" stop-opacity="1"/><stop id="stop47" offset=".174" stop-color="#ececec" stop-opacity="1"/><stop id="stop49" offset=".239" stop-color="#fafafa" stop-opacity="0"/><stop id="stop51" offset=".301" stop-color="#fff" stop-opacity="0"/><stop id="stop53" offset=".531" stop-color="#fafafa" stop-opacity="0"/><stop id="stop55" offset=".845" stop-color="#ebecec" stop-opacity="0"/><stop id="stop57" offset="1" stop-color="#e1e2e3" stop-opacity="0"/></radialGradient><linearGradient id="linearGradient3211"><stop id="stop3213" offset="0" stop-color="#fff" stop-opacity="1"/><stop id="stop3215" offset="1" stop-color="#fff" stop-opacity="0"/></linearGradient><linearGradient id="linearGradient8589"><stop id="stop8591" offset="0" stop-color="#fefefe" stop-opacity="1"/><stop id="stop8593" offset="1" stop-color="#cbcbcb" stop-opacity="1"/></linearGradient><linearGradient id="linearGradient2425" x1="32.892" x2="36.358" y1="8.059" y2="5.457" gradientTransform="matrix(0.47821428,0,0,0.50596493,0.37100234,1.9510511)" gradientUnits="userSpaceOnUse" xlink:href="#linearGradient8589"/><linearGradient id="linearGradient2429" x1="24" x2="24" y1="2" y2="46.017" gradientTransform="matrix(0.45489413,0,0,0.4259532,1.090235,2.3296045)" gradientUnits="userSpaceOnUse" xlink:href="#linearGradient3211"/><radialGradient id="radialGradient2432" cx="92.09" cy="102.703" r="139.559" fx="92.09" fy="102.703" gradientTransform="matrix(0.17034377,0,0,-0.17466401,1.1056955,23.740376)" gradientUnits="userSpaceOnUse" xlink:href="#XMLID_8_"/><linearGradient id="linearGradient2435" x1="25.132" x2="25.132" y1=".985" y2="47.013" gradientTransform="matrix(0.48608911,0,0,0.43777638,0.34155538,1.3742594)" gradientUnits="userSpaceOnUse" xlink:href="#linearGradient3600"/><linearGradient id="linearGradient2438" x1="-51.786" x2="-51.786" y1="50.786" y2="2.906" gradientTransform="matrix(0.39251527,0,0,0.40969352,29.22022,0.88636662)" gradientUnits="userSpaceOnUse" xlink:href="#linearGradient3104"/><radialGradient id="radialGradient2441" cx="605.714" cy="486.648" r="117.143" fx="605.714" fy="486.648" gradientTransform="matrix(0.01204859,0,0,0.00823529,13.238794,18.980568)" gradientUnits="userSpaceOnUse" xlink:href="#linearGradient5060"/><radialGradient id="radialGradient2444" cx="605.714" cy="486.648" r="117.143" fx="605.714" fy="486.648" gradientTransform="matrix(-0.01205786,0,0,0.00754189,10.767947,19.403199)" gradientUnits="userSpaceOnUse" xlink:href="#linearGradient5060"/><linearGradient id="linearGradient2447" x1="302.857" x2="302.857" y1="366.648" y2="609.505" gradientTransform="matrix(0.03523419,0,0,0.00754189,-0.72694862,19.403184)" gradientUnits="userSpaceOnUse" xlink:href="#linearGradient5048"/><linearGradient id="linearGradient5530" x1="24.139" x2="24.139" y1="7.048" y2="39.268" gradientTransform="matrix(0.2817955,0,0,0.2800956,12.186027,12.02218)" gradientUnits="userSpaceOnUse" xlink:href="#linearGradient3943"/><linearGradient id="linearGradient3943"><stop id="stop3945" offset="0" stop-color="#fff" stop-opacity="1"/><stop id="stop3947" offset="1" stop-color="#fff" stop-opacity="0"/></linearGradient><linearGradient id="linearGradient3242-7"><stop id="stop3244-5" offset="0" stop-color="#eef87e" stop-opacity="1"/><stop id="stop3246-9" offset=".262" stop-color="#cde34f" stop-opacity="1"/><stop id="stop3248-7" offset=".661" stop-color="#93b723" stop-opacity="1"/><stop id="stop3250-8" offset="1" stop-color="#5a7e0d" stop-opacity="1"/></linearGradient><linearGradient id="linearGradient2490-3"><stop id="stop2492-3" offset="0" stop-color="#365f0e" stop-opacity="1"/><stop id="stop2494-8" offset="1" stop-color="#84a718" stop-opacity="1"/></linearGradient><radialGradient id="radialGradient3121" cx="69.448" cy="51.695" r="31" fx="69.448" fy="51.695" gradientTransform="matrix(0,0.35684158,-0.38820022,0,37.356571,-10.114114)" gradientUnits="userSpaceOnUse" xlink:href="#linearGradient3242-7"/><linearGradient id="linearGradient3123" x1="72.422" x2="72.422" y1="124.756" y2="51.244" gradientTransform="matrix(0.1482266,0,0,0.1494387,5.4507901,5.356682)" gradientUnits="userSpaceOnUse" xlink:href="#linearGradient2490-3"/></defs><g id="g4196" transform="matrix(0.94685152,0,0,1.0005625,1.106297,-1.0135004)"><rect id="rect2879" width="17.013" height="1.832" x="3.501" y="22.168" fill="url(#linearGradient2447)" fill-opacity="1" fill-rule="nonzero" stroke="none" stroke-width="1" display="inline" opacity=".15" overflow="visible" visibility="visible" style="marker:none"/><path id="path2881" fill="url(#radialGradient2444)" fill-opacity="1" fill-rule="nonzero" stroke="none" stroke-width="1" d="m 3.5011542,22.168478 c 0,0 0,1.831501 0,1.831501 C 2.8802042,24.003427 2,23.589632 2,23.08411 2,22.578588 2.6929328,22.168478 3.5011542,22.168478 Z" display="inline" opacity=".15" overflow="visible" visibility="visible" style="marker:none"/><path id="path4160" fill="url(#linearGradient2435)" fill-opacity="1" stroke="url(#linearGradient2438)" stroke-dasharray="none" stroke-dashoffset="0" stroke-linecap="butt" stroke-linejoin="round" stroke-miterlimit="4" stroke-opacity="1" stroke-width=".957" d="m 3.5011158,2.4786344 c 3.8985774,0 7.6103062,0 11.5088872,0 0.683894,0.2173168 4.544819,2.8647821 5.504232,4.5790422 0,5.2467694 3.9e-5,10.3218884 3.9e-5,15.5686594 -5.671053,0 -11.3421052,0 -17.0131582,0 0,-6.715901 0,-13.4318029 0,-20.1477016 z" display="inline"/><path id="path4191" fill="url(#radialGradient2432)" fill-opacity="1" d="m 4.1718827,22.168399 c -0.093859,0 -0.1703438,-0.07842 -0.1703438,-0.174664 l 0,-18.8637056 c 0,-0.096414 0.076485,-0.1746633 0.1703438,-0.1746633 3.524165,0.048278 7.4295643,-0.072218 10.9494453,0.01202 l 4.842611,3.9627975 0.04991,15.0635514 c 0,0.09624 -0.07632,0.174664 -0.170345,0.174664 l -15.6716223,0 z"/><path id="path2435" fill="none" stroke="url(#linearGradient2429)" stroke-dasharray="none" stroke-dashoffset="0" stroke-linecap="butt" stroke-linejoin="miter" stroke-miterlimit="4" stroke-opacity="1" stroke-width=".957" d="m 19.513466,7.2198061 c 0,4.7697729 0,9.7209179 0,14.4906929 -5.003847,0 -10.007694,0 -15.0115424,0 0,-6.105345 0,-12.2106865 0,-18.3160276 3.4399062,0 6.9618514,0 10.4017584,0" display="inline" opacity=".6"/><path id="path3370" fill="#000" fill-opacity="1" fill-rule="evenodd" stroke="none" d="m 14.084765,2.9365708 c 1.157193,0.3010854 0.33932,4.2258542 0.33932,4.2258542 0,0 4.518863,-0.3917214 5.612025,1.0943789 1.490299,2.0259881 -0.06827,-0.5816914 -0.17358,-0.7525113 -0.75651,-1.2272154 -3.869315,-4.1642272 -5.049291,-4.5251642 -0.0883,-0.02701 -0.284095,-0.042557 -0.728474,-0.042557 z" display="inline" opacity=".2"/><path id="path4474" fill="url(#linearGradient2425)" fill-opacity="1" fill-rule="evenodd" stroke="none" d="m 14.009233,2.9365708 c 1.527341,0 1.00077,3.6632052 1.00077,3.6632052 0,0 4.995915,-0.4150961 4.995915,1.8316026 0,-0.5474128 0.05579,-1.3539516 -0.06412,-1.5165053 -0.839753,-1.1383463 -3.746646,-3.5367211 -4.801761,-3.9357449 -0.08604,-0.03254 -0.686426,-0.042558 -1.130805,-0.042558 z" display="inline"/><g id="g4191" transform="matrix(1.0007694,0,0,0.91580131,-4.2760117,-0.02814194)"><path d="m 20.5,22.000086 c 0,0 0,1.999889 0,1.999889 0.620472,0.0038 1.5,-0.448074 1.5,-1.000074 0,-0.551999 -0.692401,-0.999815 -1.5,-0.999815 z" style="marker:none" id="path2883" fill="url(#radialGradient2441)" fill-opacity="1" fill-rule="nonzero" stroke="none" stroke-width="1" display="inline" opacity=".15" overflow="visible" visibility="visible"/><path id="path2262" fill="url(#radialGradient3121)" fill-opacity="1" fill-rule="nonzero" stroke="url(#linearGradient3123)" stroke-dasharray="none" stroke-dashoffset="0" stroke-linecap="round" stroke-linejoin="round" stroke-miterlimit="4" stroke-opacity="1" stroke-width=".985" d="m 16.489465,16.507295 0,-3 4,0 0,3 3,0 0,4 -3,0 0,2.999991 -4,0 0,-2.999991 -2.989465,0 0,-4 2.989465,0 z" color="#000" display="inline" enable-background="accumulate" overflow="visible" visibility="visible" style="marker:none"/><path id="path2272" fill="none" stroke="url(#linearGradient5530)" stroke-dasharray="none" stroke-linecap="butt" stroke-linejoin="miter" stroke-miterlimit="4" stroke-opacity="1" stroke-width="1" d="m 17.489465,17.507295 0,-3 2,0 0,3 3,0 0,2 -3,0 0,3 -2,0 0,-3 -3,0 0,-2 3,0 z" display="inline" opacity=".4"/></g></g></svg>