<svg xmlns="http://www.w3.org/2000/svg" xmlns:svg="http://www.w3.org/2000/svg" xmlns:xlink="http://www.w3.org/1999/xlink" id="svg3272" width="24" height="24" version="1.0"><defs id="defs3274"><linearGradient id="linearGradient6209"><stop id="stop6211" offset="0" stop-color="#96979b" stop-opacity="1"/><stop id="stop6213" offset="1" stop-color="#000" stop-opacity=".341"/></linearGradient><linearGradient id="linearGradient2659" x1="173.096" x2="173.096" y1="75.319" y2="11.949" gradientTransform="matrix(0.9523505,0,0,0.9523505,-117.1021,-1.9494324)" gradientUnits="userSpaceOnUse" xlink:href="#linearGradient6209"/><linearGradient id="linearGradient11104"><stop id="stop11106" offset="0" stop-color="#333" stop-opacity="1"/><stop id="stop11108" offset="1" stop-color="#333" stop-opacity=".612"/></linearGradient><linearGradient id="linearGradient2657" x1="41.542" x2="41.485" y1="68.292" y2="4.536" gradientTransform="matrix(0.1323262,0,0,0.1375548,7.6676761,7.6826166)" gradientUnits="userSpaceOnUse" xlink:href="#linearGradient11104"/><linearGradient id="linearGradient2300"><stop id="stop2302" offset="0" stop-color="#343435" stop-opacity=".976"/><stop id="stop2304" offset="1" stop-color="#919295" stop-opacity="1"/></linearGradient><linearGradient id="linearGradient2655" x1="173.096" x2="173.096" y1="75.319" y2="11.949" gradientTransform="matrix(0.1323262,0,0,0.1375548,-9.496509,6.6473925)" gradientUnits="userSpaceOnUse" xlink:href="#linearGradient2300"/><linearGradient id="linearGradient4467"><stop id="stop4469" offset="0" stop-color="#fff" stop-opacity="1"/><stop id="stop4471" offset="1" stop-color="#fff" stop-opacity=".248"/></linearGradient><radialGradient id="radialGradient2653" cx="15.414" cy="13.078" r="6.656" fx="15.414" fy="13.078" gradientTransform="matrix(1.0064485,0,0,0.8130167,-3.3276971,-0.5826922)" gradientUnits="userSpaceOnUse" xlink:href="#linearGradient4467"/><linearGradient id="linearGradient4454"><stop id="stop4456" offset="0" stop-color="#a1a1a1" stop-opacity=".208"/><stop id="stop4458" offset="1" stop-color="#a1a1a1" stop-opacity=".678"/></linearGradient><radialGradient id="radialGradient2651" cx="18.241" cy="21.818" r="8.309" fx="18.241" fy="21.818" gradientUnits="userSpaceOnUse" xlink:href="#linearGradient4454"/><linearGradient id="linearGradient11114"><stop id="stop11116" offset="0" stop-color="#242424" stop-opacity=".992"/><stop id="stop11118" offset="1" stop-color="#656565" stop-opacity="1"/></linearGradient><linearGradient id="linearGradient2649" x1="-172.653" x2="-166.64" y1="99.667" y2="93.654" gradientTransform="matrix(0.1323262,0,0,0.1375548,41.439475,5.0886772)" gradientUnits="userSpaceOnUse" xlink:href="#linearGradient11114"/><linearGradient id="linearGradient3404" x1="18.031" x2="20.055" y1="16.408" y2="24.628" gradientUnits="userSpaceOnUse" xlink:href="#linearGradient8265-821-176-38-919-66-249"/><linearGradient id="linearGradient3752"><stop id="stop3754" offset="0" stop-color="#fff" stop-opacity="1"/><stop id="stop3760" offset=".848" stop-color="#fff" stop-opacity="1"/><stop id="stop3756" offset="1" stop-color="#fff" stop-opacity="0"/></linearGradient><radialGradient id="radialGradient3402" cx="4.02" cy="5.593" r="10.273" fx="4.02" fy="5.593" gradientTransform="matrix(-1.680222e-2,1.3942814,-1.79662,-2.165073e-2,-5.3658054,-19.339419)" gradientUnits="userSpaceOnUse" xlink:href="#linearGradient3752"/><linearGradient id="linearGradient3400" x1="9.705" x2="9.705" y1="20.882" y2="4.303" gradientTransform="matrix(0.9945751,0,0,0.9945751,-19.857339,-19.77827)" gradientUnits="userSpaceOnUse" xlink:href="#linearGradient3390-178-986-453"/><radialGradient id="radialGradient3398" cx="7.819" cy="8.561" r="11.268" fx="7.819" fy="8.561" gradientTransform="matrix(1.6899516,0,0,1.0436086,-24.967043,-20.53429)" gradientUnits="userSpaceOnUse" xlink:href="#linearGradient7012-661-145-733-759-865-745-661-970-94"/><linearGradient id="linearGradient5157"><stop id="stop5159" offset="0" stop-color="#c1c1c1" stop-opacity="1"/><stop id="stop5161" offset="1" stop-color="#909090" stop-opacity="1"/></linearGradient><linearGradient id="linearGradient3396" x1="9.876" x2="9.876" y1="2.601" y2="23.062" gradientTransform="translate(-19.518072,-21.496043)" gradientUnits="userSpaceOnUse" xlink:href="#linearGradient5157"/><linearGradient id="linearGradient11111"><stop id="stop11113" offset="0" stop-color="#fff" stop-opacity="1"/><stop id="stop11115" offset=".91" stop-color="#cdcdcd" stop-opacity="1"/><stop id="stop11117" offset="1" stop-color="#a1a1a1" stop-opacity="1"/></linearGradient><linearGradient id="linearGradient3394" x1="-28.531" x2="-28.531" y1="17.956" y2="37.503" gradientTransform="translate(14.859932,-35.997365)" gradientUnits="userSpaceOnUse" xlink:href="#linearGradient11111"/><radialGradient id="radialGradient3392" cx="605.714" cy="486.648" r="117.143" fx="605.714" fy="486.648" gradientTransform="matrix(-2.774389,0,0,1.969706,112.7623,-872.8854)" gradientUnits="userSpaceOnUse" xlink:href="#linearGradient5060"/><linearGradient id="linearGradient5060"><stop id="stop5062" offset="0" stop-color="#000" stop-opacity="1"/><stop id="stop5064" offset="1" stop-color="#000" stop-opacity="0"/></linearGradient><radialGradient id="radialGradient3390" cx="605.714" cy="486.648" r="117.143" fx="605.714" fy="486.648" gradientTransform="matrix(2.774389,0,0,1.969706,-1891.633,-872.8854)" gradientUnits="userSpaceOnUse" xlink:href="#linearGradient5060"/><linearGradient id="linearGradient5048"><stop id="stop5050" offset="0" stop-color="#000" stop-opacity="0"/><stop id="stop5056" offset=".5" stop-color="#000" stop-opacity="1"/><stop id="stop5052" offset="1" stop-color="#000" stop-opacity="0"/></linearGradient><linearGradient id="linearGradient3388" x1="302.857" x2="302.857" y1="366.648" y2="609.505" gradientTransform="matrix(2.774389,0,0,1.969706,-1892.179,-872.8854)" gradientUnits="userSpaceOnUse" xlink:href="#linearGradient5048"/><linearGradient id="linearGradient3390-178-986-453"><stop id="stop3624" offset="0" stop-color="#bb2b12" stop-opacity="1"/><stop id="stop3626" offset="1" stop-color="#cd7233" stop-opacity="1"/></linearGradient><linearGradient id="linearGradient7012-661-145-733-759-865-745-661-970-94"><stop id="stop3618" offset="0" stop-color="#edb763" stop-opacity="1"/><stop id="stop3270" offset=".5" stop-color="#de7f32" stop-opacity="1"/><stop id="stop3620" offset="1" stop-color="#d24413" stop-opacity="1"/></linearGradient><linearGradient id="linearGradient8265-821-176-38-919-66-249"><stop id="stop2687" offset="0" stop-color="#fff" stop-opacity=".275"/><stop id="stop2689" offset="1" stop-color="#fff" stop-opacity=".078"/></linearGradient></defs><g id="g2701"><g id="g2902"><g id="g2589" transform="translate(3.630422e-2,-1.2165904e-7)"><g id="g3377" transform="translate(19.518072,21.496043)"><g id="g3490" stroke-dasharray="none" stroke-miterlimit="4" stroke-width="1.883" transform="matrix(0.5459263,0,0,0.5168524,-20.520108,-22.074225)"><g id="g5022" stroke-dasharray="none" stroke-miterlimit="4" stroke-width="104.962" display="inline" transform="matrix(2.165152e-2,0,0,1.485743e-2,43.0076,42.68539)"><rect id="rect2527" width="1339.633" height="478.357" x="-1559.252" y="-150.697" fill="url(#linearGradient3388)" fill-opacity="1" fill-rule="nonzero" stroke="none" stroke-width="104.962" display="inline" opacity=".402" overflow="visible" visibility="visible" style="marker:none"/><path id="path2529" fill="url(#radialGradient3390)" fill-opacity="1" fill-rule="nonzero" stroke="none" stroke-width="104.962" d="M -219.61876,-150.68038 C -219.61876,-150.68038 -219.61876,327.65041 -219.61876,327.65041 C -76.744594,328.55086 125.78146,220.48075 125.78138,88.454235 C 125.78138,-43.572302 -33.655436,-150.68036 -219.61876,-150.68038 L -219.61876,-150.68038 z" display="inline" opacity=".402" overflow="visible" visibility="visible" style="marker:none"/><path id="path2531" fill="url(#radialGradient3392)" fill-opacity="1" fill-rule="nonzero" stroke="none" stroke-width="104.962" d="M -1559.2523,-150.68038 C -1559.2523,-150.68038 -1559.2523,327.65041 -1559.2523,327.65041 C -1702.1265,328.55086 -1904.6525,220.48075 -1904.6525,88.454235 C -1904.6525,-43.572302 -1745.2157,-150.68036 -1559.2523,-150.68038 L -1559.2523,-150.68038 z" display="inline" opacity=".402" overflow="visible" visibility="visible" style="marker:none"/></g></g><path id="path3496" fill="url(#linearGradient3394)" fill-opacity="1" stroke="url(#linearGradient3396)" stroke-dasharray="none" stroke-linecap="round" stroke-linejoin="round" stroke-miterlimit="4" stroke-opacity="1" stroke-width="1.011" d="M -18.840791,-18.926548 C -18.926331,-18.926548 -18.99966,-18.833798 -18.99966,-18.738005 C -18.99966,-12.868845 -19.04274,-6.4939157 -19.0488,-0.5132834 C -19.01972,0.3817516 -18.511559,0.9918586 -18.159135,0.9950586 C -17.146399,1.0042536 -17.619863,0.9910296 -17.1106,0.9950586 C -10.640267,0.9789596 -3.5316834,0.9168856 2.9386476,0.9007876 C 2.9928616,0.9077056 1.4619326,0.7930626 1.4770536,-0.5447074 C 1.4770546,-5.2176544 0.97500656,-11.731699 0.97500656,-16.404648 C 0.97500656,-16.591526 0.95956656,-16.695534 0.94323256,-16.781733 C 0.93061856,-16.848293 0.91453656,-16.880603 0.87968556,-16.907428 C 0.85182356,-16.931878 0.82513656,-16.964468 0.78436456,-16.970278 L -8.0357743,-16.970278 C -8.85109,-16.970278 -9.0378305,-18.962241 -10.249464,-18.962241 L -18.840788,-18.926551 L -18.840791,-18.926548 z" display="inline"/><path id="path3498" fill="url(#radialGradient3398)" fill-opacity="1" stroke="url(#linearGradient3400)" stroke-dasharray="none" stroke-linecap="round" stroke-linejoin="round" stroke-miterlimit="4" stroke-opacity="1" stroke-width="1" d="M -16.018718,-14.948917 C -5.4488164,-14.948917 -2.9882744,-14.948457 3.9747866,-14.976457 C 3.9747866,-13.406013 4.2329426,1.0638176 3.4906746,1.0638176 C 2.7766266,1.0638176 -10.554976,0.9694666 -17.518035,0.9974656 C -16.046351,0.9974656 -16.018718,0.3747176 -16.018718,-14.948918 L -16.018718,-14.948917 z" display="inline"/><path id="path3211" fill="none" stroke="url(#radialGradient3402)" stroke-dasharray="none" stroke-linecap="butt" stroke-linejoin="miter" stroke-miterlimit="4" stroke-opacity="1" stroke-width=".981" d="M 3.4207266,-13.887201 C 3.4207266,-13.887201 -13.411074,-13.793591 -14.976069,-13.979571 C -15.059009,-0.1501374 -15.477017,0.4594706 -15.477017,0.4594706" display="inline" opacity=".4"/><path id="path2608" fill="url(#linearGradient3404)" fill-opacity="1" fill-rule="evenodd" stroke="none" d="M 3.21875,5.34375 C 1.6798019,5.34375 0.40625,6.617302 0.40625,8.15625 L 0.40625,24.15625 C 0.412144,24.442483 0.55466957,24.768827 0.78125,24.96875 C 1.0078275,25.168671 1.2974446,25.253022 1.625,25.21875 C 1.635415,25.219016 1.645835,25.219016 1.65625,25.21875 L 46.65625,18.09375 C 47.178023,18.01146 47.586456,17.55942 47.59375,17.03125 L 47.59375,8.15625 C 47.59375,6.617302 46.320198,5.34375 44.78125,5.34375 L 3.21875,5.34375 L 3.21875,5.34375 z" transform="matrix(0.4450331,0,0,0.4023652,-16.698867,-17.646182)"/></g></g><rect id="rect2545" width="7" height="1" x="2" y="4" fill="#eda374" fill-opacity="1" fill-rule="nonzero" stroke="none" stroke-width="1" display="block" enable-background="accumulate" overflow="visible" rx=".538" ry=".5" visibility="visible" style="marker:none"/></g></g><g id="g3968" display="inline" transform="matrix(1.0321144,0,0,1.0265858,8.452466e-2,0.8150387)"><path id="path11112" fill="url(#linearGradient2649)" fill-opacity="1" fill-rule="evenodd" stroke="#333" stroke-dasharray="none" stroke-linecap="round" stroke-linejoin="round" stroke-miterlimit="4" stroke-opacity="1" stroke-width=".75" d="M 16.835527,15.327332 L 22.752192,21.051512 L 21.932059,22.208525 L 16.036823,16.016494 L 16.835527,15.327332 L 16.835527,15.327332 z"/><path id="path13082" fill="#3e3e3e" fill-opacity="1" stroke="none" d="M 248.35479,110.29199 C 248.35721,111.75982 245.97806,112.95038 243.04239,112.95038 C 240.10672,112.95038 237.72757,111.75982 237.72999,110.29199 C 237.72757,108.82416 240.10672,107.6336 243.04239,107.6336 C 245.97806,107.6336 248.35721,108.82416 248.35479,110.29199 z" transform="matrix(0.1311877,-0.152415,0.1466215,0.1363713,-25.682419,43.655661)"/><path style="marker:none" id="path4452" fill="url(#radialGradient2651)" fill-opacity="1" fill-rule="evenodd" stroke="none" stroke-width="1.526" d="M 25.897786,18.478292 C 25.898498,23.067456 22.178445,26.788086 17.589281,26.788086 C 13.000117,26.788086 9.280064,23.067456 9.280776,18.478292 C 9.280064,13.889128 13.000117,10.168498 17.589281,10.168498 C 22.178445,10.168498 25.898498,13.889128 25.897786,18.478292 L 25.897786,18.478292 z" transform="matrix(0.4879693,0,0,0.494916,5.030665,3.3199676)" visibility="visible"/><path id="path4462" fill="url(#radialGradient2653)" fill-opacity="1" fill-rule="evenodd" stroke="none" stroke-width=".75" d="M 13.446684,8.9252989 C 11.425378,8.9252989 9.7885819,10.447634 9.7885819,12.32759 C 9.7885819,12.87053 9.9517238,13.370086 10.195037,13.825719 C 10.681144,13.992362 11.197525,14.105743 11.745591,14.105743 C 14.140824,14.105743 16.053735,12.350676 16.20155,10.157404 C 15.529683,9.4189608 14.56744,8.9252989 13.446684,8.9252989 z" display="inline" opacity=".834" overflow="visible" visibility="visible" style="marker:none"/><path id="path2298" fill="url(#linearGradient2655)" fill-opacity="1" stroke="url(#linearGradient2657)" stroke-dasharray="none" stroke-linecap="round" stroke-linejoin="round" stroke-miterlimit="4" stroke-opacity="1" stroke-width=".75" d="M 13.524565,8.3589321 C 11.034645,8.3589321 9.0130671,10.296693 9.0130684,12.683311 C 9.0130684,15.069929 11.034645,17.00769 13.524565,17.00769 C 16.014483,17.00769 18.036061,15.069929 18.036061,12.683311 C 18.036061,10.296694 16.014485,8.3589321 13.524565,8.3589321 z M 13.578325,8.6426389 C 15.806819,8.6426389 17.61841,10.37533 17.61841,12.511368 C 17.61841,14.647406 15.806819,16.380097 13.578325,16.380097 C 11.34983,16.380097 9.5423762,14.647406 9.5423762,12.511368 C 9.5423762,10.37533 11.34983,8.6426389 13.578325,8.6426389 L 13.578325,8.6426389 z"/><path id="path4267" fill="url(#linearGradient2659)" fill-opacity="1" stroke="none" d="M 48.577332,9.920532 C 30.657402,9.920532 16.139832,23.33446 16.139832,39.858033 C 16.139832,56.381604 30.657392,69.795535 48.577332,69.795533 C 66.497262,69.795533 81.046082,56.381602 81.046082,39.858033 C 81.046082,23.334461 66.497252,9.920532 48.577332,9.920532 L 48.577332,9.920532 z M 48.764832,11.076782 C 65.605742,11.076782 79.296082,23.673148 79.296082,39.201783 C 79.296082,54.730415 65.605742,67.326783 48.764832,67.326783 C 31.923912,67.326785 18.264832,54.730417 18.264832,39.201783 C 18.264832,23.673148 31.923912,11.076782 48.764832,11.076782 L 48.764832,11.076782 z" display="inline" transform="matrix(0.1323262,0,0,0.1375548,7.1254574,7.1189744)"/></g></svg>