<svg xmlns="http://www.w3.org/2000/svg" xmlns:svg="http://www.w3.org/2000/svg" xmlns:xlink="http://www.w3.org/1999/xlink" id="svg2463" width="24" height="24" version="1.0"><defs id="defs2465"><linearGradient id="linearGradient8838"><stop id="stop8840" offset="0" stop-color="#000" stop-opacity="1"/><stop id="stop8842" offset="1" stop-color="#000" stop-opacity="0"/></linearGradient><radialGradient id="radialGradient2461" cx="62.625" cy="4.625" r="10.625" fx="62.625" fy="4.625" gradientTransform="matrix(1.1294118,0,0,0.2823525,-58.729414,19.694118)" gradientUnits="userSpaceOnUse" xlink:href="#linearGradient8838"/><linearGradient id="linearGradient2490-182-124"><stop id="stop2788" offset="0" stop-color="#1f4b6a" stop-opacity="1"/><stop id="stop2790" offset="1" stop-color="#4083c2" stop-opacity="1"/></linearGradient><linearGradient id="linearGradient2458" x1="18.379" x2="18.379" y1="44.98" y2="3.082" gradientTransform="matrix(0.5160413,0,0,0.5160413,-0.384991,-0.3849911)" gradientUnits="userSpaceOnUse" xlink:href="#linearGradient2490-182-124"/><linearGradient id="linearGradient3242-187-536"><stop id="stop2778" offset="0" stop-color="#8badea" stop-opacity="1"/><stop id="stop2780" offset=".262" stop-color="#6396cd" stop-opacity="1"/><stop id="stop2782" offset=".661" stop-color="#3b7caf" stop-opacity="1"/><stop id="stop2784" offset="1" stop-color="#194c70" stop-opacity="1"/></linearGradient><radialGradient id="radialGradient2456" cx="23.896" cy="3.99" r="20.397" fx="23.896" fy="3.99" gradientTransform="matrix(0,1.2316137,-1.6257082,0,18.486581,-28.720783)" gradientUnits="userSpaceOnUse" xlink:href="#linearGradient3242-187-536"/><linearGradient id="linearGradient4873"><stop id="stop4875" offset="0" stop-color="#fff" stop-opacity="1"/><stop id="stop4877" offset="1" stop-color="#fff" stop-opacity="0"/></linearGradient><linearGradient id="linearGradient2453" x1="63.397" x2="63.397" y1="-12.489" y2="5.468" gradientTransform="matrix(1.0862728,0,0,1.0862481,-55.56661,15.813638)" gradientUnits="userSpaceOnUse" xlink:href="#linearGradient4873"/></defs><g id="layer1"><path id="path8836" fill="url(#radialGradient2461)" fill-opacity="1" fill-rule="evenodd" stroke="none" stroke-dasharray="none" stroke-dashoffset="0" stroke-linecap="butt" stroke-linejoin="round" stroke-miterlimit="4" stroke-opacity="1" stroke-width="1" marker-end="none" marker-mid="none" marker-start="none" d="M 24,21 C 24,22.656854 18.627417,24 12,24 C 5.3725828,24 -2.5e-07,22.656854 -2.5e-07,21 C -2.5e-07,19.343146 5.3725828,18 12,18 C 18.627417,18 24,19.343146 24,21 L 24,21 z" display="inline" opacity=".3" overflow="visible" visibility="visible" style="marker:none"/><path id="path2555" fill="url(#radialGradient2456)" fill-opacity="1" stroke="url(#linearGradient2458)" stroke-dasharray="none" stroke-dashoffset="0" stroke-linecap="round" stroke-linejoin="round" stroke-miterlimit="4" stroke-opacity="1" stroke-width="1.004" d="M 12.000002,1.501785 C 6.207449,1.501785 1.501785,6.2074466 1.501785,11.999999 C 1.501785,17.792553 6.207449,22.498218 12.000002,22.498215 C 17.792552,22.498215 22.498221,17.792553 22.498215,11.999999 C 22.498215,6.2074466 17.792552,1.501785 12.000002,1.501785 z"/><path id="path2463" fill="none" fill-opacity="1" fill-rule="nonzero" stroke="url(#linearGradient2453)" stroke-dasharray="none" stroke-miterlimit="4" stroke-opacity="1" stroke-width="1" d="M 21.499999,11.999663 C 21.499999,17.246537 17.24639,21.499999 12.00012,21.499999 C 6.7533674,21.499999 2.4999999,17.24649 2.4999999,11.999663 C 2.4999999,6.7530318 6.7533674,2.5000007 12.00012,2.5000007 C 17.24639,2.5000007 21.499999,6.7530318 21.499999,11.999663 L 21.499999,11.999663 z" opacity=".4"/><path font-family="URW Palladio L" style="text-align:start;line-height:100%;-inkscape-font-specification:URW Palladio L Bold" id="text3482" fill="#000" fill-opacity="1" stroke="none" stroke-linecap="butt" stroke-linejoin="miter" stroke-opacity="1" stroke-width="1" d="M 9,10.851312 C 9.133856,11.215194 9.284521,11.510148 9.605452,11.106839 C 10.003335,10.870108 11.336495,9.8324456 11.203096,10.84886 C 10.776219,12.729672 10.256615,14.590705 9.8593187,16.477312 C 9.44389,17.510314 10.387249,18.444707 11.372184,17.772941 C 12.419108,17.341357 13.319982,16.63838 14.240327,15.993505 C 14.114752,15.68554 14.031054,15.243151 13.684078,15.645899 C 13.228481,15.852689 12.233405,16.827627 12.048539,16.023521 C 12.431237,13.986941 13.140289,12.025751 13.593528,10.00541 C 14.010625,9.0764616 13.329423,7.9027016 12.309742,8.6711396 C 11.088138,9.2031876 10.066557,10.07231 9,10.851312 z M 13.533765,4.001596 C 12.287368,3.9354507 11.635709,5.9446775 12.820152,6.4944925 C 13.781082,6.8885796 14.827362,5.9030226 14.592611,4.9182248 C 14.519759,4.4054322 14.059369,3.9843465 13.533766,4.001596 L 13.533765,4.001596 z" font-size="40" font-stretch="normal" font-style="normal" font-variant="normal" font-weight="bold" opacity=".2" text-anchor="start" writing-mode="lr-tb"/><path font-family="URW Palladio L" style="text-align:start;line-height:100%;-inkscape-font-specification:URW Palladio L Bold" id="path3536" fill="#fff" fill-opacity="1" stroke="none" stroke-linecap="butt" stroke-linejoin="miter" stroke-opacity="1" stroke-width="1" d="M 9,11.851312 C 9.133856,12.215194 9.284521,12.510148 9.605452,12.106839 C 10.003335,11.870108 11.336495,10.832446 11.203096,11.84886 C 10.776219,13.729672 10.256615,15.590705 9.8593187,17.477312 C 9.44389,18.510314 10.387249,19.444707 11.372184,18.772941 C 12.419108,18.341357 13.319982,17.63838 14.240327,16.993505 C 14.114752,16.68554 14.031054,16.243151 13.684078,16.645899 C 13.228481,16.852689 12.233405,17.827627 12.048539,17.023521 C 12.431237,14.986941 13.140289,13.025751 13.593528,11.00541 C 14.010625,10.076462 13.329423,8.9027016 12.309742,9.6711396 C 11.088138,10.203188 10.066557,11.07231 9,11.851312 z M 13.533765,5.001596 C 12.287368,4.9354507 11.635709,6.9446776 12.820152,7.4944926 C 13.781082,7.8885786 14.827362,6.9030226 14.592611,5.9182248 C 14.519759,5.4054321 14.059369,4.9843465 13.533766,5.001596 L 13.533765,5.001596 z" font-size="40" font-stretch="normal" font-style="normal" font-variant="normal" font-weight="bold" text-anchor="start" writing-mode="lr-tb"/></g></svg>