<svg xmlns="http://www.w3.org/2000/svg" xmlns:svg="http://www.w3.org/2000/svg" xmlns:xlink="http://www.w3.org/1999/xlink" id="svg2" width="24" height="24" version="1.0"><defs id="defs4"><linearGradient id="linearGradient3437"><stop id="stop3439" offset="0" stop-color="#000" stop-opacity="1"/><stop id="stop3441" offset="1" stop-color="#000" stop-opacity="0"/></linearGradient><radialGradient id="radialGradient2670" cx="24.454" cy="46.87" r="19.614" fx="24.454" fy="46.87" gradientTransform="matrix(0.5098238,0,0,0.1027415,-0.4674316,17.131943)" gradientUnits="userSpaceOnUse" xlink:href="#linearGradient3437"/><linearGradient id="linearGradient2411"><stop id="stop2413" offset="0" stop-color="#fee7b1" stop-opacity="1"/><stop id="stop2419" offset=".258" stop-color="#ebd4b4" stop-opacity="1"/><stop id="stop2421" offset=".508" stop-color="#c8a775" stop-opacity="1"/><stop id="stop2423" offset=".74" stop-color="#b0935b" stop-opacity="1"/><stop id="stop2415" offset="1" stop-color="#fcebbf" stop-opacity="1"/></linearGradient><linearGradient id="linearGradient2667" x1="6.727" x2="40.938" y1="32.162" y2="32.162" gradientTransform="matrix(0.4857987,0,0,0.5667573,0.342308,-3.7557638)" gradientUnits="userSpaceOnUse" xlink:href="#linearGradient2411"/><linearGradient id="linearGradient9845"><stop id="stop9847" offset="0" stop-color="#fff" stop-opacity="1"/><stop id="stop9849" offset="1" stop-color="#fff" stop-opacity=".495"/></linearGradient><linearGradient id="linearGradient2654" x1="10.907" x2="30.875" y1="25.002" y2="36.127" gradientTransform="matrix(0.4541292,0,0,0.5078849,1.1075579,-0.9931171)" gradientUnits="userSpaceOnUse" xlink:href="#linearGradient9845"/><linearGradient id="linearGradient5881"><stop id="stop5883" offset="0" stop-color="#d6c8a7" stop-opacity="1"/><stop id="stop5885" offset="1" stop-color="#d0bd99" stop-opacity="1"/></linearGradient><linearGradient id="linearGradient2651" x1="24.875" x2="24.75" y1="21" y2="17" gradientTransform="matrix(0.4705882,0,0,0.807484,0.7058823,-5.1887076)" gradientUnits="userSpaceOnUse" xlink:href="#linearGradient5881"/><linearGradient id="linearGradient12071"><stop id="stop12073" offset="0" stop-color="#fff" stop-opacity="1"/><stop id="stop12075" offset="1" stop-color="#fff" stop-opacity="0"/></linearGradient><linearGradient id="linearGradient2648" x1="21.942" x2="21.942" y1="21.551" y2="18.038" gradientTransform="matrix(0.4545455,0,0,0.2515938,1.0909094,6.0971074)" gradientUnits="userSpaceOnUse" xlink:href="#linearGradient12071"/><filter id="filter5957" width="1.988" height="1.165" x="-.494" y="-.082" color-interpolation-filters="sRGB"><feGaussianBlur id="feGaussianBlur5959" stdDeviation=".699"/></filter><radialGradient id="radialGradient3446" cx="15.938" cy="20.313" r="3.313" fx="15.938" fy="20.313" gradientTransform="matrix(0.7547171,0,0,0.3773584,-4.5283014,1.5849059)" gradientUnits="userSpaceOnUse" xlink:href="#linearGradient6075"/><linearGradient id="linearGradient6075"><stop id="stop6077" offset="0" stop-color="#000" stop-opacity="1"/><stop id="stop6079" offset="1" stop-color="#000" stop-opacity="0"/></linearGradient><radialGradient id="radialGradient3444" cx="15.938" cy="20.313" r="3.313" fx="15.938" fy="20.313" gradientTransform="matrix(0.7547175,0,0,0.3773584,4.4716931,1.5849059)" gradientUnits="userSpaceOnUse" xlink:href="#linearGradient6075"/><linearGradient id="linearGradient10591"><stop id="stop10593" offset="0" stop-color="#cad0c6" stop-opacity="1"/><stop id="stop10599" offset=".5" stop-color="#eaece9" stop-opacity="1"/><stop id="stop10595" offset="1" stop-color="#c5cbc0" stop-opacity="1"/></linearGradient><linearGradient id="linearGradient2638" x1="10.651" x2="27.192" y1="2.914" y2="17.47" gradientTransform="matrix(0.4093677,0,0,0.4715246,2.1464793,-1.8100287)" gradientUnits="userSpaceOnUse" xlink:href="#linearGradient10591"/><linearGradient id="linearGradient2623" x1="35.005" x2="33.004" y1="14.85" y2="14.85" gradientTransform="translate(1.6824037,1.125)" gradientUnits="userSpaceOnUse" xlink:href="#linearGradient6227"/><filter id="filter6251" width="1.485" height="1.095" x="-.242" y="-.048" color-interpolation-filters="sRGB"><feGaussianBlur id="feGaussianBlur6253" stdDeviation=".244"/></filter><linearGradient id="linearGradient6227"><stop id="stop6229" offset="0" stop-color="#000" stop-opacity="1"/><stop id="stop6231" offset="1" stop-color="#000" stop-opacity="0"/></linearGradient><linearGradient id="linearGradient2625" x1="32.128" x2="35.021" y1="13.789" y2="13.789" gradientTransform="translate(-19.532826,1.7437184)" gradientUnits="userSpaceOnUse" xlink:href="#linearGradient6227"/><filter id="filter5745" color-interpolation-filters="sRGB"><feGaussianBlur id="feGaussianBlur5747" stdDeviation=".836"/></filter></defs><g id="layer1"><path id="path3435" fill="url(#radialGradient2670)" fill-opacity="1" stroke="none" d="m 21.999915,21.94743 c 0,1.112975 -4.477116,2.015218 -9.999915,2.015218 -5.5228007,0 -9.9999152,-0.902243 -9.9999152,-2.015218 0,-1.112974 4.4771145,-2.015217 9.9999152,-2.015217 5.522799,0 9.999915,0.902243 9.999915,2.015217 z" opacity=".4"/><path id="rect1314" fill="url(#linearGradient2667)" fill-opacity="1" fill-rule="evenodd" stroke="#a2824e" stroke-dashoffset="0" stroke-linecap="round" stroke-linejoin="round" stroke-miterlimit="4" stroke-opacity="1" stroke-width="1" d="m 4.5857476,8.0017591 c 4.8977004,-0.724037 9.8475144,-0.6116326 14.8284324,0 0.601506,0 1.085748,0.5234748 1.085748,1.1737112 l 0,11.6979167 c 0,0.650237 -0.515495,1.079658 -1.085748,1.173711 -5.164043,0.60626 -9.591863,0.601474 -14.8284324,0 C 3.8904851,21.827641 3.4999997,21.523624 3.4999997,20.873387 l 0,-11.6979167 c 0,-0.6502364 0.4842435,-1.1737112 1.0857479,-1.1737112 z"/><path id="rect6903" fill="none" stroke="url(#linearGradient2654)" stroke-dashoffset="0" stroke-linecap="round" stroke-linejoin="round" stroke-miterlimit="4" stroke-opacity=".601" stroke-width="1" d="m 5.085671,9.5000008 13.828656,0 c 0.324462,0 0.585672,0.2663529 0.585672,0.5972032 l 0,10.395845 c 0,0.33085 -0.231917,0.483593 -0.585672,0.597203 -4.521671,0.546964 -8.9847585,0.545698 -13.828656,0 -0.3244616,-0.11361 -0.5856708,-0.266353 -0.5856708,-0.597203 l 0,-10.395845 c 0,-0.3308503 0.2612092,-0.5972032 0.5856708,-0.5972032 z" opacity=".38"/><path id="rect1460" fill="url(#linearGradient2651)" fill-opacity="1" fill-rule="evenodd" stroke="none" stroke-width="2" d="m 4.7794294,8.5385204 c 4.8137131,-0.7863536 9.6274266,-0.6462936 14.4411406,0 0.431803,0 0.77943,0.3860024 0.77943,0.8654751 l 0,1.4989865 c 0,0.479473 -0.347627,0.865476 -0.77943,0.865476 -5.023394,0.371496 -9.6453578,0.238912 -14.4411406,0 C 4.3476255,11.768458 4,11.382455 4,10.902982 L 4,9.4039955 C 4,8.9245228 4.3476255,8.5385204 4.7794294,8.5385204 z" display="inline" overflow="visible" visibility="visible" style="marker:none"/><path id="rect1593" fill="none" stroke="url(#linearGradient2648)" stroke-dashoffset="0" stroke-linecap="round" stroke-linejoin="round" stroke-miterlimit="4" stroke-opacity="1" stroke-width="1" d="m 5.0455431,10.499999 13.9089149,0 c 0.30223,0 0.545542,0.129295 0.545542,0.289899 l 0,0.174986 c 0,0.160603 -0.243312,0.289898 -0.545542,0.289898 -4.593039,0.317179 -9.2379614,0.33659 -13.9089149,0 -0.302231,0 -0.5455429,-0.129295 -0.5455429,-0.289898 l 0,-0.174986 c 0,-0.160604 0.2433119,-0.289899 0.5455429,-0.289899 z" display="inline" opacity=".6" overflow="visible" visibility="visible" style="marker:none"/><rect id="rect5887" width="2.828" height="16.971" x="14.594" y="23.226" fill="#fff" fill-opacity="1" fill-rule="evenodd" stroke="none" stroke-width="1" display="inline" enable-background="accumulate" filter="url(#filter5957)" opacity=".2" overflow="visible" rx="1.608" ry="1.608" transform="matrix(0.923405,0,0,0.5777374,-7.2270146,-2.3564677)" visibility="visible" style="marker:none"/><path id="path6073" fill="url(#radialGradient3446)" fill-opacity="1" fill-rule="evenodd" stroke="none" stroke-width="1" d="M 10,9.2500012 C 10,9.9403571 8.8807093,10.5 7.5000004,10.5 6.1192879,10.5 5,9.9403571 5,9.2500012 5,8.559644 6.1192879,8 7.5000004,8 8.8807093,8 10,8.559644 10,9.2500012 z" display="inline" enable-background="accumulate" opacity=".3" overflow="visible" visibility="visible" style="marker:none"/><path id="path6083" fill="url(#radialGradient3444)" fill-opacity="1" fill-rule="evenodd" stroke="none" stroke-width="1" d="M 19,9.2500012 C 19,9.9403571 17.880712,10.5 16.499999,10.5 15.119287,10.5 14,9.9403571 14,9.2500012 14,8.559644 15.119287,8 16.499999,8 17.880712,8 19,8.559644 19,9.2500012 z" display="inline" enable-background="accumulate" opacity=".3" overflow="visible" visibility="visible" style="marker:none"/><path id="path2086" fill="url(#linearGradient2638)" fill-opacity="1" fill-rule="evenodd" stroke="#888a85" stroke-dasharray="none" stroke-linecap="butt" stroke-linejoin="miter" stroke-miterlimit="4" stroke-opacity="1" stroke-width="1" d="m 6.5022332,8.6394885 0,-2.7041217 c 0,-3.710962 2.1522135,-5.47392624 5.4772688,-5.42758242 3.343147,0.0463438 5.518265,1.67296292 5.518265,5.42758242 l 0,2.8220027 c 0,0.921467 -2.247715,1.0387458 -2.247715,0 l 0,-1.8789533 c 0,-0.9430494 0.232705,-3.9946876 -3.247128,-3.9946876 -3.4511394,0 -3.1996795,3.0704451 -3.1862975,3.9909281 l 0,1.780712 c 0,1.1102612 -2.3143933,1.1055401 -2.3143933,-0.01588 z"/><path id="rect1345" fill="url(#linearGradient2623)" fill-opacity="1" fill-rule="evenodd" stroke="none" d="m 34.687087,10.837069 1.263948,0.125 c 0.927239,2.822733 0.736052,9.510413 0.736052,9.510413 -0.0625,1.125 -2.03125,0.53125 -2,0 l 0,-9.635413 z" filter="url(#filter6251)" opacity=".182" transform="matrix(0.4093677,0,0,0.4715247,2.1464793,-0.9017404)"/><path id="path6332" fill="url(#linearGradient2625)" fill-opacity="1" fill-rule="evenodd" stroke="none" d="m 12.926606,11.544175 0.371719,0.169195 c 1.720331,1.054966 2.173532,9.37783 2.173532,9.37783 -0.0625,1.125 -2.03125,0.53125 -2,0 0,0 0.37822,-6.87064 -0.545251,-9.547025 z" filter="url(#filter6251)" opacity=".141" transform="matrix(-0.4093677,0,0,0.4715247,14.042204,-1.1934816)"/><path id="path5675" fill="none" stroke="#fff" stroke-dasharray="none" stroke-dashoffset="0" stroke-linecap="round" stroke-linejoin="miter" stroke-miterlimit="4" stroke-opacity="1" stroke-width="4.298" d="m 13.876557,17.722122 0.124999,-7.5 c 0,-9.8763728 18.6875,-10.6764 18.6875,0.875 l 0,6.875" display="inline" enable-background="accumulate" filter="url(#filter5745)" opacity=".624" overflow="visible" transform="matrix(0.459148,0,0,0.4715247,0.9783076,0.2275236)" visibility="visible" style="marker:none"/></g></svg>