<svg xmlns="http://www.w3.org/2000/svg" xmlns:svg="http://www.w3.org/2000/svg" xmlns:xlink="http://www.w3.org/1999/xlink" id="svg2841" width="24" height="24" version="1.0"><defs id="defs2843"><linearGradient id="linearGradient5105-262-943-861"><stop id="stop2487" offset="0" stop-color="#0d0d0d" stop-opacity="1"/><stop id="stop2489" offset="1" stop-color="#0d0d0d" stop-opacity="0"/></linearGradient><radialGradient id="radialGradient4811" cx="11.25" cy="19.031" r="8.063" fx="11.25" fy="19.031" gradientTransform="matrix(1,0,0,0.282946,0,13.64644)" gradientUnits="userSpaceOnUse" xlink:href="#linearGradient5105-262-943-861"/><linearGradient id="linearGradient2264"><stop id="stop2266" offset="0" stop-color="#d7e866" stop-opacity="1"/><stop id="stop2268" offset="1" stop-color="#8cab2a" stop-opacity="1"/></linearGradient><linearGradient id="linearGradient4813" x1="-86.129" x2="-93.088" y1="2.069" y2="31.138" gradientTransform="matrix(0.5112838,-0.1216744,0.12241,0.5082113,56.783012,-3.2077143)" gradientUnits="userSpaceOnUse" xlink:href="#linearGradient2264"/><linearGradient id="linearGradient3400"><stop id="stop3402" offset="0" stop-color="#fff" stop-opacity="1"/><stop id="stop3404" offset="1" stop-color="#fff" stop-opacity="0"/></linearGradient><linearGradient id="linearGradient3597" x1="20.494" x2="20.494" y1="6.01" y2="47.76" gradientTransform="matrix(0.5025885,0,0,0.4995683,1.1940063,0.7665261)" gradientUnits="userSpaceOnUse" xlink:href="#linearGradient3400"/></defs><g id="layer1"><path id="path4346" fill="url(#radialGradient4811)" fill-opacity="1" fill-rule="nonzero" stroke="none" stroke-width="1" d="m 19.3125,19.03125 a 8.0625,2.28125 0 1 1 -16.125,0 8.0625,2.28125 0 1 1 16.125,0 z" display="inline" opacity=".163" overflow="visible" transform="matrix(1.4883719,0,0,1.4465766,-4.7441839,-6.8301638)" visibility="visible" style="marker:none"/><path id="path1542" fill="url(#linearGradient4813)" fill-opacity="1" fill-rule="nonzero" stroke="#699536" stroke-dasharray="none" stroke-dashoffset="0" stroke-linecap="round" stroke-linejoin="round" stroke-miterlimit="4" stroke-opacity="1" stroke-width="1.003" d="m 18.175045,3.5050734 c -0.281317,-0.028378 -0.561,0.1085751 -0.70554,0.3715025 L 11.311125,15.076693 7.3516838,11.94736 C 6.9989939,11.755797 6.5589582,11.879032 6.3662377,12.229603 l -1.7755804,2.265914 c -0.1927162,0.350565 -0.063069,0.787827 0.2896181,0.979387 0,0 7.2294426,5.935012 7.2383626,5.939402 0.08266,0.0449 0.169102,0.06749 0.256971,0.07853 0.28704,0.03605 0.58079,-0.098 0.728339,-0.3664 L 21.409341,6.0216833 c 0.192718,-0.350569 0.06307,-0.7878285 -0.289616,-0.9793887 L 18.454817,3.5886997 c -0.08817,-0.047891 -0.185999,-0.074167 -0.279772,-0.083626 z" display="inline" overflow="visible" visibility="visible" style="marker:none"/><path id="path1544" fill="none" stroke="url(#linearGradient3597)" stroke-dasharray="none" stroke-dashoffset="0" stroke-linecap="round" stroke-linejoin="miter" stroke-miterlimit="4" stroke-opacity="1" stroke-width="1.003" d="M 18.214219,4.6150802 11.621039,16.59425 7.0429763,12.993376 C 6.5430041,13.593 6.1940911,14.084983 5.6268868,14.793063 c 0,0 6.6812002,5.45065 6.7616742,5.534366 0.25102,-0.404598 7.891687,-14.3280177 8.003506,-14.540862 -0.167431,-0.1153442 -2.12007,-1.1251725 -2.177848,-1.1714868 z" display="inline" opacity=".4" overflow="visible" visibility="visible" style="marker:none"/></g></svg>