<svg xmlns="http://www.w3.org/2000/svg" xmlns:svg="http://www.w3.org/2000/svg" xmlns:xlink="http://www.w3.org/1999/xlink" id="svg3272" width="24" height="24" version="1.0"><defs id="defs3274"><linearGradient id="linearGradient4559"><stop id="stop4561" offset="0" stop-color="silver" stop-opacity="1"/><stop id="stop4563" offset="1" stop-color="#949492" stop-opacity="1"/></linearGradient><linearGradient id="linearGradient2620" x1="17.289" x2="15.18" y1="2.185" y2="5.821" gradientTransform="matrix(0.6844293,0,0,0.6820072,-0.2131519,0.1569169)" gradientUnits="userSpaceOnUse" xlink:href="#linearGradient4559"/><linearGradient id="linearGradient8589"><stop id="stop8591" offset="0" stop-color="#fefefe" stop-opacity="1"/><stop id="stop8593" offset="1" stop-color="#cbcbcb" stop-opacity="1"/></linearGradient><linearGradient id="linearGradient2618" x1="32.892" x2="36.358" y1="8.059" y2="5.457" gradientTransform="matrix(0.3707081,0,0,0.3548465,-0.8566575,-0.04895116)" gradientUnits="userSpaceOnUse" xlink:href="#linearGradient8589"/><linearGradient id="linearGradient3931"><stop id="stop3933" offset="0" stop-color="#8d8f8a" stop-opacity="1"/><stop id="stop3935" offset="1" stop-color="#c1c1c1" stop-opacity="1"/></linearGradient><linearGradient id="linearGradient2616" x1="-51.786" x2="-51.786" y1="50.786" y2="2.906" gradientTransform="matrix(0.3000362,0,0,0.3120485,21.157141,-0.3741276)" gradientUnits="userSpaceOnUse" xlink:href="#linearGradient3931"/><linearGradient id="linearGradient3600"><stop id="stop3602" offset="0" stop-color="#f4f4f4" stop-opacity="1"/><stop id="stop3604" offset="1" stop-color="#dbdbdb" stop-opacity="1"/></linearGradient><linearGradient id="linearGradient2614" x1="25.132" x2="25.132" y1="6.729" y2="47.013" gradientTransform="matrix(0.3715633,0,0,0.3334383,-0.9175205,-0.0025171)" gradientUnits="userSpaceOnUse" xlink:href="#linearGradient3600"/><linearGradient id="linearGradient3404" x1="18.031" x2="20.055" y1="16.408" y2="24.628" gradientUnits="userSpaceOnUse" xlink:href="#linearGradient8265-821-176-38-919-66-249"/><linearGradient id="linearGradient3752"><stop id="stop3754" offset="0" stop-color="#fff" stop-opacity="1"/><stop id="stop3760" offset=".848" stop-color="#fff" stop-opacity="1"/><stop id="stop3756" offset="1" stop-color="#fff" stop-opacity="0"/></linearGradient><radialGradient id="radialGradient3402" cx="4.02" cy="5.593" r="10.273" fx="4.02" fy="5.593" gradientTransform="matrix(-0.01680222,1.3942814,-1.79662,-0.02165073,-5.3658054,-19.339419)" gradientUnits="userSpaceOnUse" xlink:href="#linearGradient3752"/><linearGradient id="linearGradient3400" x1="9.705" x2="9.705" y1="20.882" y2="4.303" gradientTransform="matrix(0.9945751,0,0,0.9945751,-19.857339,-19.77827)" gradientUnits="userSpaceOnUse" xlink:href="#linearGradient3390-178-986-453"/><radialGradient id="radialGradient3398" cx="7.819" cy="8.561" r="11.268" fx="7.819" fy="8.561" gradientTransform="matrix(1.6899516,0,0,1.0436086,-24.967043,-20.53429)" gradientUnits="userSpaceOnUse" xlink:href="#linearGradient7012-661-145-733-759-865-745-661-970-94"/><linearGradient id="linearGradient5157"><stop id="stop5159" offset="0" stop-color="#c1c1c1" stop-opacity="1"/><stop id="stop5161" offset="1" stop-color="#909090" stop-opacity="1"/></linearGradient><linearGradient id="linearGradient3396" x1="9.876" x2="9.876" y1="2.601" y2="23.062" gradientTransform="translate(-19.518072,-21.496043)" gradientUnits="userSpaceOnUse" xlink:href="#linearGradient5157"/><linearGradient id="linearGradient11111"><stop id="stop11113" offset="0" stop-color="#fff" stop-opacity="1"/><stop id="stop11115" offset=".91" stop-color="#cdcdcd" stop-opacity="1"/><stop id="stop11117" offset="1" stop-color="#a1a1a1" stop-opacity="1"/></linearGradient><linearGradient id="linearGradient3394" x1="-28.531" x2="-28.531" y1="17.956" y2="37.503" gradientTransform="translate(14.859932,-35.997365)" gradientUnits="userSpaceOnUse" xlink:href="#linearGradient11111"/><radialGradient id="radialGradient3392" cx="605.714" cy="486.648" r="117.143" fx="605.714" fy="486.648" gradientTransform="matrix(-2.774389,0,0,1.969706,112.7623,-872.8854)" gradientUnits="userSpaceOnUse" xlink:href="#linearGradient5060"/><linearGradient id="linearGradient5060"><stop id="stop5062" offset="0" stop-color="#000" stop-opacity="1"/><stop id="stop5064" offset="1" stop-color="#000" stop-opacity="0"/></linearGradient><radialGradient id="radialGradient3390" cx="605.714" cy="486.648" r="117.143" fx="605.714" fy="486.648" gradientTransform="matrix(2.774389,0,0,1.969706,-1891.633,-872.8854)" gradientUnits="userSpaceOnUse" xlink:href="#linearGradient5060"/><linearGradient id="linearGradient5048"><stop id="stop5050" offset="0" stop-color="#000" stop-opacity="0"/><stop id="stop5056" offset=".5" stop-color="#000" stop-opacity="1"/><stop id="stop5052" offset="1" stop-color="#000" stop-opacity="0"/></linearGradient><linearGradient id="linearGradient3388" x1="302.857" x2="302.857" y1="366.648" y2="609.505" gradientTransform="matrix(2.774389,0,0,1.969706,-1892.179,-872.8854)" gradientUnits="userSpaceOnUse" xlink:href="#linearGradient5048"/><linearGradient id="linearGradient3390-178-986-453"><stop id="stop3624" offset="0" stop-color="#bb2b12" stop-opacity="1"/><stop id="stop3626" offset="1" stop-color="#cd7233" stop-opacity="1"/></linearGradient><linearGradient id="linearGradient7012-661-145-733-759-865-745-661-970-94"><stop id="stop3618" offset="0" stop-color="#edb763" stop-opacity="1"/><stop id="stop3270" offset=".5" stop-color="#de7f32" stop-opacity="1"/><stop id="stop3620" offset="1" stop-color="#d24413" stop-opacity="1"/></linearGradient><linearGradient id="linearGradient8265-821-176-38-919-66-249"><stop id="stop2687" offset="0" stop-color="#fff" stop-opacity=".275"/><stop id="stop2689" offset="1" stop-color="#fff" stop-opacity=".078"/></linearGradient></defs><g id="g2701"><g id="g2902"><g id="g2589" transform="translate(0.03630422,-1.2165904e-7)"><g id="g3377" transform="translate(19.518072,21.496043)"><g id="g3490" stroke-dasharray="none" stroke-miterlimit="4" stroke-width="1.883" transform="matrix(0.5459263,0,0,0.5168524,-20.520108,-22.074225)"><g id="g5022" stroke-dasharray="none" stroke-miterlimit="4" stroke-width="104.962" display="inline" transform="matrix(0.02165152,0,0,0.01485743,43.0076,42.68539)"><rect id="rect2527" width="1339.633" height="478.357" x="-1559.252" y="-150.697" fill="url(#linearGradient3388)" fill-opacity="1" fill-rule="nonzero" stroke="none" stroke-width="104.962" display="inline" opacity=".402" overflow="visible" visibility="visible" style="marker:none"/><path id="path2529" fill="url(#radialGradient3390)" fill-opacity="1" fill-rule="nonzero" stroke="none" stroke-width="104.962" d="m -219.61876,-150.68038 c 0,0 0,478.33079 0,478.33079 142.874166,0.90045 345.40022,-107.16966 345.40014,-239.196175 0,-132.026537 -159.436816,-239.134595 -345.40014,-239.134615 l 0,0 z" display="inline" opacity=".402" overflow="visible" visibility="visible" style="marker:none"/><path id="path2531" fill="url(#radialGradient3392)" fill-opacity="1" fill-rule="nonzero" stroke="none" stroke-width="104.962" d="m -1559.2523,-150.68038 c 0,0 0,478.33079 0,478.33079 -142.8742,0.90045 -345.4002,-107.16966 -345.4002,-239.196175 0,-132.026537 159.4368,-239.134595 345.4002,-239.134615 l 0,0 z" display="inline" opacity=".402" overflow="visible" visibility="visible" style="marker:none"/></g></g><path id="path3496" fill="url(#linearGradient3394)" fill-opacity="1" stroke="url(#linearGradient3396)" stroke-dasharray="none" stroke-linecap="round" stroke-linejoin="round" stroke-miterlimit="4" stroke-opacity="1" stroke-width="1.011" d="m -18.840791,-18.926548 c -0.08554,0 -0.158869,0.09275 -0.158869,0.188543 0,5.86916 -0.04308,12.2440893 -0.04914,18.2247216 0.02908,0.895035 0.537241,1.505142 0.889665,1.508342 1.012736,0.009195 0.539272,-0.004029 1.048535,0 6.470333,-0.016099 13.5789166,-0.078173 20.0492476,-0.094271 0.054214,0.006918 -1.476715,-0.107725 -1.461594,-1.445495 10e-7,-4.672947 -0.50204704,-11.1869916 -0.50204704,-15.8599406 0,-0.186878 -0.01544,-0.290886 -0.031774,-0.377085 -0.012614,-0.06656 -0.028696,-0.09887 -0.063547,-0.125695 -0.027862,-0.02445 -0.054549,-0.05704 -0.095321,-0.06285 l -8.82013886,0 c -0.8153157,0 -1.0020562,-1.991963 -2.2136897,-1.991963 l -8.591324,0.03569 -3e-6,3e-6 z" display="inline"/><path id="path3498" fill="url(#radialGradient3398)" fill-opacity="1" stroke="url(#linearGradient3400)" stroke-dasharray="none" stroke-linecap="round" stroke-linejoin="round" stroke-miterlimit="4" stroke-opacity="1" stroke-width="1" d="m -16.018718,-14.948917 c 10.5699016,0 13.0304436,4.6e-4 19.9935046,-0.02754 0,1.570444 0.258156,16.0402746 -0.484112,16.0402746 -0.714048,0 -14.0456506,-0.094351 -21.0087096,-0.066352 1.471684,0 1.499317,-0.622748 1.499317,-15.9463836 l 0,1e-6 z" display="inline"/><path id="path3211" fill="none" stroke="url(#radialGradient3402)" stroke-dasharray="none" stroke-linecap="butt" stroke-linejoin="miter" stroke-miterlimit="4" stroke-opacity="1" stroke-width=".981" d="m 3.4207266,-13.887201 c 0,0 -16.8318006,0.09361 -18.3967956,-0.09237 -0.08294,13.8294336 -0.500948,14.4390416 -0.500948,14.4390416" display="inline" opacity=".4"/><path id="path2608" fill="url(#linearGradient3404)" fill-opacity="1" fill-rule="evenodd" stroke="none" d="m 3.21875,5.34375 c -1.5389481,0 -2.8125,1.273552 -2.8125,2.8125 l 0,16 c 0.005894,0.286233 0.14841957,0.612577 0.375,0.8125 0.2265775,0.199921 0.5161946,0.284272 0.84375,0.25 0.010415,2.66e-4 0.020835,2.66e-4 0.03125,0 l 45,-7.125 c 0.521773,-0.08229 0.930206,-0.53433 0.9375,-1.0625 l 0,-8.875 c 0,-1.538948 -1.273552,-2.8125 -2.8125,-2.8125 l -41.5625,0 0,0 z" transform="matrix(0.4450331,0,0,0.4023652,-16.698867,-17.646182)"/></g></g><rect id="rect2545" width="7" height="1" x="2" y="4" fill="#eda374" fill-opacity="1" fill-rule="nonzero" stroke="none" stroke-width="1" display="block" enable-background="accumulate" overflow="visible" rx=".538" ry=".5" visibility="visible" style="marker:none"/></g></g><g id="g2467" transform="translate(8.9999992,7.9999992)"><path id="rect2594" fill="url(#linearGradient2614)" fill-opacity="1" stroke="url(#linearGradient2616)" stroke-dasharray="none" stroke-dashoffset="0" stroke-linecap="butt" stroke-linejoin="round" stroke-miterlimit="4" stroke-opacity="1" stroke-width=".995" d="m 1.4976268,0.49762721 c 2.980045,0 4.9376418,0 7.9176887,0 0.522766,0.16184396 4.3536885,2.61362219 5.0870585,3.89029659 0,3.907463 0,7.2069842 0,11.1144502 -4.334914,0 -8.6698338,0 -13.0047472,0 0,-5.001584 0,-10.0031638 0,-15.00474679 l 0,0 z" display="inline"/><path id="path12038" fill="url(#linearGradient2618)" fill-opacity="1" fill-rule="evenodd" stroke="url(#linearGradient2620)" stroke-dasharray="none" stroke-linecap="butt" stroke-linejoin="round" stroke-miterlimit="4" stroke-opacity="1" stroke-width=".995" d="M 9.5,0.4979205 C 9.5,2.041279 9.5,4.5 9.5,4.5 c 0,0 4.080603,0 5.00208,0 0,-1.9018156 -3.00574,-4.0020795 -5.00208,-4.0020795 l 0,0 z" display="inline"/></g><path id="path2609" fill="none" stroke="#bebebe" stroke-linecap="butt" stroke-linejoin="miter" stroke-opacity="1" stroke-width="1" d="m 13,12.505005 3.65625,0 -3.65625,0 z m 4.0625,0 0,0 z M 13,14.500001 l 2.681,0 -2.681,0 z m 4.625,0 2.625,0 -2.625,0 z M 13,16.5 l 1.794,0 -1.794,0 z m 4.09375,0 3.90625,0 -3.90625,0 z M 13,19.537243 l 3.594,0 -3.594,0 z m 5.40625,0 3.0625,0 -3.0625,0 z M 13,21.5 15.34375,21.5 13,21.5 z m 2.6875,0 2.15625,0 -2.15625,0 z m 3.3125,0 2.3125,0 -2.3125,0 z"/></svg>