<svg xmlns="http://www.w3.org/2000/svg" xmlns:svg="http://www.w3.org/2000/svg" xmlns:xlink="http://www.w3.org/1999/xlink" id="svg2" width="24" height="24" version="1.0"><defs id="defs4"><linearGradient id="linearGradient5105-262-943-861"><stop id="stop2487" offset="0" stop-color="#0d0d0d" stop-opacity="1"/><stop id="stop2489" offset="1" stop-color="#0d0d0d" stop-opacity="0"/></linearGradient><radialGradient id="radialGradient2403" cx="11.25" cy="19.031" r="8.063" fx="11.25" fy="19.031" gradientTransform="matrix(1.4061954,0,0,0.3867044,-3.8196983,13.522738)" gradientUnits="userSpaceOnUse" xlink:href="#linearGradient5105-262-943-861"/><linearGradient id="linearGradient2264"><stop id="stop2266" offset="0" stop-color="#d7e866" stop-opacity="1"/><stop id="stop2268" offset="1" stop-color="#8cab2a" stop-opacity="1"/></linearGradient><linearGradient id="linearGradient2400" x1="24.104" x2="24.104" y1="15.181" y2="34.225" gradientTransform="matrix(0.8988874,0,0,0.8934652,-9.4637044,-8.565972)" gradientUnits="userSpaceOnUse" xlink:href="#linearGradient2264"/><linearGradient id="linearGradient4222"><stop id="stop4224" offset="0" stop-color="#fff" stop-opacity="1"/><stop id="stop4226" offset="1" stop-color="#fff" stop-opacity="0"/></linearGradient><linearGradient id="linearGradient2397" x1="24.139" x2="24.139" y1="6.532" y2="45.69" gradientTransform="matrix(0.5399382,0,0,0.5366811,-0.8489227,-0.506198)" gradientUnits="userSpaceOnUse" xlink:href="#linearGradient4222"/></defs><g id="layer1"><path id="path2621" fill="url(#radialGradient2403)" fill-opacity="1" fill-rule="nonzero" stroke="none" stroke-width="1" d="M 23.33745,20.882198 C 23.33745,22.604113 18.261501,24 12,24 5.7384988,24 0.6625494,22.604113 0.66254954,20.882198 0.6625494,19.160283 5.7384988,17.764397 12,17.764397 c 6.261501,0 11.33745,1.395886 11.33745,3.117801 l 0,0 z" display="inline" opacity=".3" overflow="visible" visibility="visible" style="marker:none"/><path id="path2262" fill="url(#linearGradient2400)" fill-opacity="1" fill-rule="evenodd" stroke="#699536" stroke-dasharray="none" stroke-linecap="butt" stroke-linejoin="round" stroke-miterlimit="4" stroke-opacity="1" stroke-width="1" d="m 8.5663796,8.4948187 0,-5.9948187 6.9336204,0 0,5.9948187 6,0 0,7.0051813 -6,0 0,6 -6.9397278,0 -0.027869,-6 -6.0324033,0 0,-7.0051813 6.0663796,0 z" display="inline"/><path id="path2272" fill="none" stroke="url(#linearGradient2397)" stroke-dasharray="none" stroke-linecap="butt" stroke-linejoin="miter" stroke-miterlimit="4" stroke-opacity="1" stroke-width="1" d="M 9.5,9.4948187 9.5,3.5 l 5,0 0,5.9948187 6,0 0,5.0051813 -6,0 0,6 -5,0 0,-6 -6,0 0,-5.0051813 6,0 z" display="inline" opacity=".4"/></g></svg>