<svg xmlns="http://www.w3.org/2000/svg" xmlns:svg="http://www.w3.org/2000/svg" xmlns:xlink="http://www.w3.org/1999/xlink" id="svg3734" width="24" height="24" version="1.1"><metadata id="metadata29"/><defs id="defs3736"><linearGradient id="linearGradient3807"><stop id="stop3809" offset="0" stop-color="#f0c178" stop-opacity="1"/><stop id="stop3811" offset=".409" stop-color="#e18941" stop-opacity="1"/><stop id="stop3813" offset="1" stop-color="#ec4f18" stop-opacity="1"/></linearGradient><linearGradient id="linearGradient4456"><stop id="stop4458" offset="0" stop-color="#f6daae" stop-opacity="1"/><stop id="stop4460" offset="1" stop-color="#f0c178" stop-opacity="0"/></linearGradient><linearGradient id="linearGradient3390-178-986-453-4-5"><stop id="stop3624-8-6" offset="0" stop-color="#bb2b12" stop-opacity="1"/><stop id="stop3626-1-1" offset="1" stop-color="#cd7233" stop-opacity="1"/></linearGradient><linearGradient id="linearGradient4462" x1="12" x2="6" y1="-3" y2="16" gradientTransform="translate(-1,0)" gradientUnits="userSpaceOnUse" xlink:href="#linearGradient4456"/><linearGradient id="linearGradient3026" x1="11" x2="6" y1="-3" y2="16" gradientTransform="translate(-1,0)" gradientUnits="userSpaceOnUse" xlink:href="#linearGradient4456"/><linearGradient id="linearGradient3801" x1="13" x2="18" y1="16" y2="-7" gradientTransform="translate(-8,0)" gradientUnits="userSpaceOnUse" xlink:href="#linearGradient3390-178-986-453-4-5"/><linearGradient id="linearGradient3805" x1="16" x2="13" y1="-6" y2="16" gradientTransform="translate(-8,0)" gradientUnits="userSpaceOnUse" xlink:href="#linearGradient3807"/></defs><g id="layer1" transform="matrix(-1,0,0,1,18,7.000447)"><path id="path3025" fill="none" stroke="url(#linearGradient3801)" stroke-dasharray="none" stroke-linecap="round" stroke-linejoin="round" stroke-miterlimit="4" stroke-opacity="1" stroke-width="5" d="m 7.5,-2.500447 -6,7.5 6,7.5"/><path id="path3803" fill="none" stroke="url(#linearGradient3805)" stroke-dasharray="none" stroke-linecap="round" stroke-linejoin="round" stroke-miterlimit="4" stroke-opacity="1" stroke-width="3" d="m 7.5,-2.500447 -6,7.5 6,7.5"/><path id="path4466" fill="none" stroke="#f6daae" stroke-dasharray="none" stroke-linecap="round" stroke-linejoin="round" stroke-miterlimit="4" stroke-opacity="1" stroke-width="1" d="M 5.462,-1.350447 1.1,4" display="inline" enable-background="new" opacity=".24"/><path id="path4464" fill="none" stroke="url(#linearGradient4462)" stroke-dasharray="none" stroke-linecap="round" stroke-linejoin="round" stroke-miterlimit="4" stroke-opacity="1" stroke-width="1" d="m 5.3,2 2.503,-3.398447 c 1.397,-1.802 -0.803,-2.602 -1.4,-1.3 L 1,4 C 0.5,4.5 0.472436,5.3333333 1,6 l 5.713,7.281553 c 1,1 2.37383,-0.282 1.5,-1.5 L 5.5,8" display="inline" enable-background="new" opacity=".4"/><path id="path4454" fill="none" stroke="url(#linearGradient3026)" stroke-dasharray="none" stroke-linecap="round" stroke-linejoin="round" stroke-miterlimit="4" stroke-opacity="1" stroke-width="1" d="M 8.042,11.543553 3.7,6 C 2.2,4.999553 4.930537,2.4288362 5.2,2 l 2.736,-3.538447 c 1.5,-2 -0.5999999,-2.3 -1.6,-1.3 l -5.436,6.838 c -0.5,0.5 -0.527564,1.3333333 0,2 l 5.642,7.044 c 0.9999997,1 2.8080527,0.170027 1.5,-1.5 z" display="inline" enable-background="new" opacity=".4"/></g></svg>