<svg xmlns="http://www.w3.org/2000/svg" xmlns:svg="http://www.w3.org/2000/svg" xmlns:xlink="http://www.w3.org/1999/xlink" id="svg4529" width="24" height="24" version="1.1"><defs id="defs4531"><linearGradient id="linearGradient9390"><stop id="stop9392" offset="0" stop-color="#d3d7cf" stop-opacity="1"/><stop id="stop9394" offset="1" stop-color="#eeeeec" stop-opacity="1"/></linearGradient><linearGradient id="linearGradient9606"><stop id="stop9608" offset="0" stop-color="#555753" stop-opacity="1"/><stop id="stop9610" offset=".668" stop-color="#d3d7cf" stop-opacity="1"/><stop id="stop9612" offset="1" stop-color="#888a85" stop-opacity="1"/></linearGradient><linearGradient id="linearGradient9308" x1="311.063" x2="309.813" y1="182.125" y2="174.094" gradientTransform="matrix(1.1333333,0,0,1,-343.8,-156)" gradientUnits="userSpaceOnUse" xlink:href="#linearGradient9302"/><linearGradient id="linearGradient9302"><stop id="stop9304" offset="0" stop-color="#fff" stop-opacity="1"/><stop id="stop9306" offset="1" stop-color="#eeeeec" stop-opacity="1"/></linearGradient><linearGradient id="linearGradient9318" x1="305" x2="321.196" y1="181.625" y2="186.188" gradientTransform="matrix(1.125,0,0,1.0555556,-341.1875,-167.41667)" gradientUnits="userSpaceOnUse" xlink:href="#linearGradient9312"/><linearGradient id="linearGradient9312"><stop id="stop9314" offset="0" stop-color="#d3d7cf" stop-opacity="1"/><stop id="stop9316" offset="1" stop-color="#eeeeec" stop-opacity="1"/></linearGradient><linearGradient id="linearGradient9734" x1="318.063" x2="321" y1="169" y2="185.242" gradientTransform="matrix(1.125,0,0,1.0555556,-340.0625,-167.41667)" gradientUnits="userSpaceOnUse" xlink:href="#linearGradient9728"/><linearGradient id="linearGradient9728"><stop id="stop9730" offset="0" stop-color="#babdb6" stop-opacity="1"/><stop id="stop9732" offset="1" stop-color="#555753" stop-opacity="1"/></linearGradient><filter id="filter9723" width="1.134" height="2.14" x="-.067" y="-.57" color-interpolation-filters="sRGB"><feGaussianBlur id="feGaussianBlur9725" stdDeviation=".475"/></filter><linearGradient id="linearGradient4814" x1="308.431" x2="308.431" y1="169.161" y2="171.163" gradientUnits="userSpaceOnUse" xlink:href="#linearGradient9390"/><linearGradient id="linearGradient4816" x1="309.563" x2="309.563" y1="171.277" y2="167.343" gradientUnits="userSpaceOnUse" xlink:href="#linearGradient9606"/><linearGradient id="linearGradient2427" x1="-86.129" x2="-93.088" y1="2.069" y2="31.138" gradientTransform="matrix(0.40329207,-0.09756546,0.09655495,0.40751271,40.869458,-4.5802056)" gradientUnits="userSpaceOnUse" xlink:href="#linearGradient2264"/><linearGradient id="linearGradient2264"><stop id="stop2266" offset="0" stop-color="#d7e866" stop-opacity="1"/><stop id="stop2268" offset="1" stop-color="#8cab2a" stop-opacity="1"/></linearGradient><linearGradient id="linearGradient3400"><stop id="stop3402" offset="0" stop-color="#fff" stop-opacity="1"/><stop id="stop3404" offset="1" stop-color="#fff" stop-opacity="0"/></linearGradient><linearGradient id="linearGradient2848" x1="20.494" x2="20.494" y1="7.044" y2="39.78" gradientTransform="matrix(0.4138818,0,0,0.416294,-3.3898022,-1.7775922)" gradientUnits="userSpaceOnUse" xlink:href="#linearGradient3400"/></defs><g id="layer1" transform="translate(0,-8)"><path id="rect9705" fill="#000" fill-opacity="1" stroke="none" d="m 304.97963,183.69431 15.04074,0 L 321,188 l -17,0 0.97963,-4.30569 z" display="inline" enable-background="new" filter="url(#filter9723)" transform="matrix(1.1574589,0,0,0.8674174,-350.2318,-131.8977)"/><rect id="rect10371" width="18" height="19" x="2.5" y="11.5" fill="url(#linearGradient9318)" fill-opacity="1" fill-rule="nonzero" stroke="url(#linearGradient9734)" stroke-opacity="1" stroke-width="1" display="inline" enable-background="new" overflow="visible" rx=".844" ry=".792" visibility="visible" style="marker:none"/><rect id="rect8528" width="17" height="15" x="3" y="13" fill="url(#linearGradient9308)" fill-opacity="1" fill-rule="nonzero" stroke="none" stroke-width="1" display="inline" enable-background="new" overflow="visible" rx="0" ry="0" visibility="visible" style="marker:none"/><g id="g3651" display="inline" transform="translate(-351,-158)"><rect id="rect9632" width="1" height="1" x="356" y="176" fill="#888a85" fill-opacity="1" stroke="none" display="inline" enable-background="new" opacity=".48" rx="0" ry="0"/><rect id="rect9634" width="10" height="1" x="359" y="176" fill="#888a85" fill-opacity="1" stroke="none" display="inline" enable-background="new" opacity=".48" rx="0" ry="0"/><rect id="rect9640" width="1" height="1" x="356" y="178" fill="#888a85" fill-opacity="1" stroke="none" display="inline" enable-background="new" opacity=".48" rx="0" ry="0"/><rect id="rect9646" width="1" height="1" x="356" y="180" fill="#888a85" fill-opacity="1" stroke="none" display="inline" enable-background="new" opacity=".48" rx="0" ry="0"/><rect id="rect9650" width="6" height="1" x="359" y="180" fill="#888a85" fill-opacity="1" stroke="none" display="inline" enable-background="new" opacity=".48" rx="0" ry="0"/><rect id="rect9656" width="1" height="1" x="356" y="182" fill="#888a85" fill-opacity="1" stroke="none" display="inline" enable-background="new" opacity=".48" rx="0" ry="0"/><rect id="rect9658" width="10" height="1" x="359" y="182" fill="#888a85" fill-opacity="1" stroke="none" display="inline" enable-background="new" opacity=".48" rx="0" ry="0"/><rect id="rect9660" width="1" height="1" x="356" y="184" fill="#888a85" fill-opacity="1" stroke="none" display="inline" enable-background="new" opacity=".48" rx="0" ry="0"/><rect id="rect3587" width="9" height="1" x="359" y="178" fill="#888a85" fill-opacity="1" stroke="none" display="inline" enable-background="new" opacity=".48" rx="0" ry="0"/><rect id="rect3603" width="1" height="1" x="356" y="174" fill="#888a85" fill-opacity="1" stroke="none" display="inline" enable-background="new" opacity=".48" rx="0" ry="0"/><rect id="rect3605" width="10" height="1" x="359" y="174" fill="#888a85" fill-opacity="1" stroke="none" display="inline" enable-background="new" opacity=".48" rx="0" ry="0"/><rect id="rect3609" width="10" height="1" x="359" y="184" fill="#888a85" fill-opacity="1" stroke="none" display="inline" enable-background="new" opacity=".48" rx="0" ry="0"/></g><rect id="rect9300" width="19" height="1" x="2" y="30" fill="#2e3436" fill-opacity="1" stroke="none" display="inline" enable-background="new" rx="0" ry="0"/><rect id="rect9310" width="16" height="17" x="3.5" y="12.5" fill="none" stroke="#fff" stroke-opacity="1" stroke-width="1" display="inline" enable-background="new" opacity=".5" overflow="visible" rx="0" ry="0" visibility="visible" style="marker:none"/><path id="path9666" fill="#000" fill-opacity="1" stroke="none" d="m 5.499996,12 c -0.828,0 -1.49999,0.67199 -1.5,1.5 0,0.828 0.67201,1.49999 1.5,1.5 0.38234,0 0.73499,-0.13923 1,-0.375 0.0104,0.009 0.0206,0.0223 0.0312,0.0312 0.11343,0.0951 0.23673,0.16023 0.375,0.21875 0.0624,0.0271 0.12108,0.0439 0.1875,0.0625 0.0317,0.009 0.0612,0.0246 0.0937,0.0312 0.0106,0.002 0.0206,-0.002 0.0312,0 0.0886,0.0163 0.188,0.0312 0.28125,0.0312 0.38234,0 0.73499,-0.13923 1,-0.375 0.1325,0.11789 0.29967,0.21697 0.46875,0.28125 0.16908,0.0643 0.34008,0.0937 0.53125,0.0937 0.38234,0 0.73499,-0.13923 1.000001,-0.375 0.1325,0.11789 0.29967,0.21697 0.46875,0.28125 0.16908,0.0643 0.34008,0.0937 0.53125,0.0937 0.38234,0 0.73499,-0.13923 1,-0.375 0.1325,0.11789 0.29967,0.21697 0.46875,0.28125 0.16908,0.0643 0.34008,0.0937 0.53125,0.0937 0.38234,0 0.73499,-0.13923 1,-0.375 0.1325,0.11789 0.29967,0.21697 0.46875,0.28125 0.16908,0.0643 0.34008,0.0937 0.53125,0.0937 0.1035,0 0.21488,-0.0113 0.3125,-0.0312 0.0345,-0.007 0.0601,-0.0218 0.0937,-0.0312 0.0539,-0.0148 0.10491,-0.042 0.15625,-0.0625 0.008,-0.003 0.0231,0.004 0.0312,0 0.13827,-0.0585 0.26157,-0.12362 0.375,-0.21875 0.0113,-0.009 0.0203,-0.0215 0.0312,-0.0312 0.26501,0.23577 0.61766,0.375 1,0.375 0.828,0 1.5,-0.67201 1.5,-1.5 0,-0.828 -0.672,-1.50001 -1.5,-1.5 -0.38234,0 -0.73499,0.13923 -1,0.375 -0.011,-0.01 -0.02,-0.0218 -0.0312,-0.0312 -0.11343,-0.0951 -0.23673,-0.16023 -0.375,-0.21875 -0.0598,-0.0253 -0.12403,-0.045 -0.1875,-0.0625 C 15.774277,12.02559 15.643377,12 15.499997,12 c -0.0956,0 -0.19028,0.0145 -0.28125,0.0312 -0.091,0.0167 -0.16546,0.0304 -0.25,0.0625 -0.16908,0.0643 -0.33625,0.16336 -0.46875,0.28125 -0.26501,-0.23577 -0.61766,-0.375 -1,-0.375 -0.0956,0 -0.19028,0.0145 -0.28125,0.0312 -0.091,0.0167 -0.16546,0.0304 -0.25,0.0625 -0.16908,0.0643 -0.33625,0.16336 -0.46875,0.28125 -0.26501,-0.23577 -0.61766,-0.375 -1,-0.375 -0.0956,0 -0.19028,0.0145 -0.28125,0.0312 -0.091,0.0167 -0.16546,0.0304 -0.25,0.0625 -0.16908,0.0643 -0.33625,0.16336 -0.46875,0.28125 -0.265011,-0.23577 -0.617661,-0.375 -1.000001,-0.375 -0.0956,0 -0.19028,0.0145 -0.28125,0.0312 -0.091,0.0167 -0.16546,0.0304 -0.25,0.0625 -0.16908,0.0643 -0.33625,0.16336 -0.46875,0.28125 -0.26501,-0.23577 -0.61766,-0.375 -1,-0.375 -0.138,0 -0.27931,0.0276 -0.40625,0.0625 -0.0664,0.0186 -0.12514,0.0354 -0.1875,0.0625 -0.13827,0.0585 -0.26157,0.12362 -0.375,0.21875 -0.0107,0.009 -0.0209,0.022 -0.0312,0.0312 -0.26501,-0.23577 -0.61766,-0.375 -1,-0.375 z" display="inline" enable-background="new" opacity=".1"/><g id="g9344" display="inline" transform="translate(-303,-158)"><rect id="rect9320" width="2" height="4" x="307.5" y="167.5" fill="url(#linearGradient4814)" fill-opacity="1" stroke="url(#linearGradient4816)" stroke-dasharray="none" stroke-linecap="butt" stroke-linejoin="round" stroke-miterlimit="4" stroke-opacity="1" stroke-width="1" rx="1" ry="1"/><rect id="rect9332" width="1.344" height="1.344" x="307.5" y="167.688" fill="#fff" fill-opacity="1" stroke="none" rx="1.593" ry="1.344"/></g><use id="use9348" width="400" height="300" x="0" y="0" display="inline" enable-background="new" transform="translate(1.9999985,0)" xlink:href="#g9344"/><use id="use9354" width="400" height="300" x="0" y="0" display="inline" enable-background="new" transform="translate(3.9999985,0)" xlink:href="#g9344"/><use id="use9356" width="400" height="300" x="0" y="0" display="inline" enable-background="new" transform="translate(5.9999985,0)" xlink:href="#g9344"/><use id="use9358" width="400" height="300" x="0" y="0" display="inline" enable-background="new" transform="translate(7.9999985,0)" xlink:href="#g9344"/><use id="use9360" width="400" height="300" x="0" y="0" display="inline" enable-background="new" transform="translate(9.999999,0)" xlink:href="#g9344"/><use id="use3585" width="400" height="300" x="0" y="0" display="inline" enable-background="new" transform="translate(11.999999,0)" xlink:href="#g9344"/></g><g id="layer1-1" transform="matrix(0.59967819,0,0,0.6264177,10.701544,9.979178)"><path id="path1542" fill="url(#linearGradient2427)" fill-opacity="1" fill-rule="nonzero" stroke="#699536" stroke-dasharray="none" stroke-dashoffset="0" stroke-linecap="round" stroke-linejoin="round" stroke-miterlimit="4" stroke-opacity="1" stroke-width="1.566" d="M 10.416147,0.80248907 C 10.194248,0.77973379 9.9736389,0.88955072 9.8596279,1.1003809 L 5.0020005,10.081271 1.8788609,7.5719944 C 1.6006651,7.4183882 1.2535724,7.5172044 1.1015578,7.7983127 l -1.40054776,1.8169385 c -0.1520113,0.2811025 -0.049748,0.6317248 0.2284459,0.7853288 0,0 5.70246236,4.75903 5.70949776,4.76255 0.065201,0.036 0.1333852,0.05411 0.2026946,0.06297 0.2264128,0.02891 0.4581175,-0.07858 0.574501,-0.2938 L 12.967304,2.8204499 C 13.119316,2.5393437 13.017055,2.1887243 12.738859,2.0351203 L 10.636826,0.86954537 c -0.06955,-0.0384015 -0.146714,-0.0594712 -0.220679,-0.0670563 z" display="inline" overflow="visible" visibility="visible" style="marker:none"/><path id="path2429" fill="none" stroke="url(#linearGradient2848)" stroke-dasharray="none" stroke-dashoffset="0" stroke-linecap="round" stroke-linejoin="miter" stroke-miterlimit="4" stroke-opacity="1" stroke-width="1.003" d="m 10.644939,1.65625 -5.3125001,9.8125 a 0.15034923,0.15034923 0 0 1 0,0.03125 0.15034923,0.15034923 0 0 1 -0.03125,0.03125 0.15034923,0.15034923 0 0 1 -0.03125,0 0.15034923,0.15034923 0 0 1 -0.03125,0.03125 0.15034923,0.15034923 0 0 1 -0.03125,0 0.15034923,0.15034923 0 0 1 -0.03125,0 0.15034923,0.15034923 0 0 1 -0.03125,-0.03125 0.15034923,0.15034923 0 0 1 -0.03125,0 L 1.4574389,8.625 c -0.3238762,0.402465 -0.60091836,0.7779186 -0.96874996,1.25 0.1122997,0.093077 1.30297826,1.090043 2.62499996,2.1875 0.691201,0.57379 1.3815407,1.156788 1.90625,1.59375 0.2623546,0.218481 0.4993958,0.399828 0.65625,0.53125 0.050142,0.04201 0.088455,0.06296 0.125,0.09375 0.052555,-0.09355 0.1090137,-0.180551 0.25,-0.4375 0.1919644,-0.349857 0.4397058,-0.836982 0.75,-1.40625 0.6205884,-1.138535 1.4444778,-2.6103224 2.25,-4.09375 C 9.8567109,6.8603224 10.632379,5.3686542 11.238689,4.25 c 0.303155,-0.5593271 0.568682,-1.008692 0.75,-1.34375 0.141975,-0.2623568 0.21072,-0.3644899 0.25,-0.4375 -0.05507,-0.031347 -0.09995,-0.061486 -0.21875,-0.125 -0.171886,-0.091893 -0.378882,-0.1998798 -0.59375,-0.3125 -0.214868,-0.1126202 -0.431931,-0.2271481 -0.59375,-0.3125 -0.06696,-0.035318 -0.140907,-0.037473 -0.1875,-0.0625 z" display="inline" opacity=".4" overflow="visible" visibility="visible" style="marker:none"/></g></svg>