<svg xmlns="http://www.w3.org/2000/svg" xmlns:svg="http://www.w3.org/2000/svg" xmlns:xlink="http://www.w3.org/1999/xlink" id="svg3734" width="24" height="24" version="1.1"><metadata id="metadata29"/><defs id="defs3736"><linearGradient id="linearGradient4456"><stop id="stop4458" offset="0" stop-color="#f6daae" stop-opacity="1"/><stop id="stop4460" offset="1" stop-color="#f0c178" stop-opacity="0"/></linearGradient><linearGradient id="linearGradient3390-178-986-453-4-5"><stop id="stop3624-8-6" offset="0" stop-color="#bb2b12" stop-opacity="1"/><stop id="stop3626-1-1" offset="1" stop-color="#cd7233" stop-opacity="1"/></linearGradient><linearGradient id="linearGradient7012-661-145-733-759-865-745-661-970-94-1-0"><stop id="stop3618-1-9" offset="0" stop-color="#f0c178" stop-opacity="1"/><stop id="stop3270-5-6" offset=".5" stop-color="#e18941" stop-opacity="1"/><stop id="stop3620-9-3" offset="1" stop-color="#ec4f18" stop-opacity="1"/></linearGradient><linearGradient id="linearGradient3044" x1="-31.523" x2="-55.189" y1="190.512" y2="182.48" gradientTransform="matrix(0.92956783,0,0,0.99594396,51.30231,-181.73954)" gradientUnits="userSpaceOnUse" xlink:href="#linearGradient3390-178-986-453-4-5"/><linearGradient id="linearGradient3046" x1="-31.523" x2="-55.189" y1="191.516" y2="182.48" gradientTransform="matrix(0.92956783,0,0,0.99594396,51.30231,-181.73954)" gradientUnits="userSpaceOnUse" xlink:href="#linearGradient3390-178-986-453-4-5"/><linearGradient id="linearGradient3048" x1="-55.189" x2="-31.523" y1="182.48" y2="191.516" gradientTransform="matrix(0.92956783,0,0,0.99594396,51.30231,-181.73954)" gradientUnits="userSpaceOnUse" xlink:href="#linearGradient7012-661-145-733-759-865-745-661-970-94-1-0"/><linearGradient id="linearGradient3050" x1="-55.189" x2="-31.523" y1="183.484" y2="191.516" gradientTransform="matrix(0.92956783,0,0,0.99594396,51.30231,-181.73954)" gradientUnits="userSpaceOnUse" xlink:href="#linearGradient7012-661-145-733-759-865-745-661-970-94-1-0"/><linearGradient id="linearGradient3052" x1="0" x2="22" y1="0" y2="9" gradientUnits="userSpaceOnUse" xlink:href="#linearGradient4456"/><linearGradient id="linearGradient3054" x1="0" x2="22" y1="0" y2="9" gradientUnits="userSpaceOnUse" xlink:href="#linearGradient4456"/></defs><g id="layer1" transform="matrix(0,1,1,0,7.0005,1)"><path id="path3169-2-3" fill="none" stroke="url(#linearGradient3044)" stroke-dasharray="none" stroke-linecap="round" stroke-linejoin="round" stroke-miterlimit="4" stroke-opacity="1" stroke-width="5" d="M 8.475,-1.4875 2.5,4.99993 8.475,11.4875" display="inline" enable-background="new"/><path id="path3765" fill="none" stroke="url(#linearGradient3046)" stroke-dasharray="none" stroke-linecap="round" stroke-linejoin="round" stroke-miterlimit="4" stroke-opacity="1" stroke-width="6" d="M 19,5 6.5,4.99993" display="inline" enable-background="new"/><path id="path4277" fill="none" stroke="url(#linearGradient3048)" stroke-dasharray="none" stroke-linecap="round" stroke-linejoin="round" stroke-miterlimit="4" stroke-opacity="1" stroke-width="3" d="M 8.43759,-1.4501675 2.5,4.99993 8.437653,11.449983" display="inline" enable-background="new"/><path id="path4279" fill="none" stroke="url(#linearGradient3050)" stroke-dasharray="none" stroke-linecap="round" stroke-linejoin="round" stroke-miterlimit="4" stroke-opacity="1" stroke-width="4" d="M 19,5 6.5,4.99993" display="inline" enable-background="new"/><path id="path4454" fill="none" stroke="url(#linearGradient3052)" stroke-dasharray="none" stroke-linecap="round" stroke-linejoin="round" stroke-miterlimit="4" stroke-opacity="1" stroke-width="1" d="M 8.9,10.46875 6.5,8 C 5.514219,6.9859804 6.5,6.5 8,6.5 l 10.5,0 c 3,0 2.5,-3 0,-3 l -10,0 c -1.5,0 -3,0 -2,-1.5 l 2.33125,-2.19374997 c 1.5,-2.00000003 -0.5,-2.50000003 -1.5,-1.50000003 L 2,4 C 1.5,4.5 1.4724356,5.3333333 2,6 l 5.4,5.96875 c 1,1 2.978671,0.02103 1.5,-1.5 z" display="inline" enable-background="new" opacity=".4"/><path id="path4464" fill="none" stroke="url(#linearGradient3054)" stroke-dasharray="none" stroke-linecap="round" stroke-linejoin="round" stroke-miterlimit="4" stroke-opacity="1" stroke-width="1" d="M 6.5,2 8.9,-0.33124997 C 10.4,-2.33125 8.4,-2.83125 7.4,-1.83125 L 2,4 C 1.5,4.5 1.4724356,5.3333333 2,6 l 5.4,5.9 c 1,1 2.795749,0.13265 1.3625,-1.43125 L 6.5,8" display="inline" enable-background="new" opacity=".4"/><path id="path4466" fill="none" stroke="#f6daae" stroke-dasharray="none" stroke-linecap="round" stroke-linejoin="round" stroke-miterlimit="4" stroke-opacity="1" stroke-width="1" d="M 7.2625,-1.65 2,4" display="inline" enable-background="new" opacity=".51"/></g></svg>